  0
SECTION
  2
HEADER
  9
$ACADVER
  1
AC1009
  9
$FILLMODE
 70
0
  9
$EXTMIN
 10
-5.6748
 20
-0.0650
 30
0.0000
  9
$EXTMAX
 10
76.2650
 20
42.5048
 30
0.0000
  0
ENDSEC
  0
SECTION
  2
TABLES
  0
TABLE
  2
LTYPE
 70
1
  0
LTYPE
  2
CONTINUOUS
 70
64
  3
Solid line
 72
65
 73
0
 40
0
  0
ENDTAB
  0
TABLE
  2
LAYER
 70
255
  0
LAYER
  2
1
 70
64
 62
12
  6
CONTINUOUS
  0
LAYER
  2
16
 70
64
 62
132
  6
CONTINUOUS
  0
LAYER
  2
17
 70
64
 62
110
  6
CONTINUOUS
  0
LAYER
  2
18
 70
64
 62
110
  6
CONTINUOUS
  0
LAYER
  2
20
 70
64
 62
31
  6
CONTINUOUS
  0
LAYER
  2
45
 70
64
 62
253
  6
CONTINUOUS
  0
ENDTAB
  0
ENDSEC
  0
SECTION
  2
BLOCKS
  0
BLOCK
  8
0
  2
RECT
 70
64
 10
0.0000
 20
0.0000
 30
0.0000
  3
RECT
  0
SOLID
  8
0
 10
-0.5000
 20
-0.5000
 30
0.0000
 11
0.5000
 21
-0.5000
 31
0.0000
 12
-0.5000
 22
0.5000
 32
0.0000
 13
0.5000
 23
0.5000
 33
0.0000
  0
ENDBLK
  8
0
  0
BLOCK
  8
0
  2
PIE
 70
64
 10
0.0000
 20
0.0000
 30
0.0000
  3
PIE
  0
CIRCLE
  8
0
 10
0.0000
 20
0.0000
 30
0.0000
 40
0.5000
  0
ENDBLK
  8
0
  0
BLOCK
  8
0
  2
OCTAGONP
 70
64
 10
0.0000
 20
0.0000
 30
0.0000
  3
OCTAGONP
  0
POLYLINE
  8
0
 66
1
 10
0.0000
 20
0.0000
 30
0.0000
 40
0.0000
 41
0.0000
 70
1
  0
VERTEX
  8
0
 10
-0.5000
 20
-0.2071
 30
0.0000
  0
VERTEX
  8
0
 10
-0.5000
 20
0.2071
 30
0.0000
  0
VERTEX
  8
0
 10
-0.2071
 20
0.5000
 30
0.0000
  0
VERTEX
  8
0
 10
0.2071
 20
0.5000
 30
0.0000
  0
VERTEX
  8
0
 10
0.5000
 20
0.2071
 30
0.0000
  0
VERTEX
  8
0
 10
0.5000
 20
-0.2071
 30
0.0000
  0
VERTEX
  8
0
 10
0.2071
 20
-0.5000
 30
0.0000
  0
VERTEX
  8
0
 10
-0.2071
 20
-0.5000
 30
0.0000
  0
SEQEND
  8
0
  0
ENDBLK
  8
0
  0
BLOCK
  8
0
  2
SQUAREP
 70
64
 10
0.0000
 20
0.0000
 30
0.0000
  3
SQUAREP
  0
SOLID
  8
0
 10
-0.5000
 20
-0.5000
 30
0.0000
 11
0.5000
 21
-0.5000
 31
0.0000
 12
-0.5000
 22
0.5000
 32
0.0000
 13
0.5000
 23
0.5000
 33
0.0000
  0
ENDBLK
  8
0
  0
BLOCK
  8
0
  2
ROUNDP
 70
64
 10
0.0000
 20
0.0000
 30
0.0000
  3
ROUNDP
  0
CIRCLE
  8
0
 10
0.0000
 20
0.0000
 30
0.0000
 40
0.5000
  0
ENDBLK
  8
0
  0
BLOCK
  8
0
  2
ANNULUSP
 70
64
 10
0.0000
 20
0.0000
 30
0.0000
  3
ANNULUSP
  0
CIRCLE
  8
0
 10
0.0000
 20
0.0000
 30
0.0000
 40
0.5000
  0
ENDBLK
  8
0
  0
BLOCK
  8
0
  2
THERMALP
 70
64
 10
0.0000
 20
0.0000
 30
0.0000
  3
THERMALP
  0
LINE
  8
0
 10
-0.2379
 20
0.4500
 30
0.0000
 11
0.2379
 21
0.4500
 31
0.0000
  0
LINE
  8
0
 10
0.4500
 20
0.2379
 30
0.0000
 11
0.4500
 21
-0.2379
 31
0.0000
  0
LINE
  8
0
 10
0.2379
 20
-0.4500
 30
0.0000
 11
-0.2379
 21
-0.4500
 31
0.0000
  0
LINE
  8
0
 10
-0.4500
 20
-0.2379
 30
0.0000
 11
-0.4500
 21
0.2379
 31
0.0000
  0
ENDBLK
  8
0
  0
BLOCK
  8
0
  2
OCTAGONV
 70
64
 10
0.0000
 20
0.0000
 30
0.0000
  3
OCTAGONV
  0
POLYLINE
  8
0
 66
1
 10
0.0000
 20
0.0000
 30
0.0000
 40
0.0000
 41
0.0000
 70
1
  0
VERTEX
  8
0
 10
-0.5000
 20
-0.2071
 30
0.0000
  0
VERTEX
  8
0
 10
-0.5000
 20
0.2071
 30
0.0000
  0
VERTEX
  8
0
 10
-0.2071
 20
0.5000
 30
0.0000
  0
VERTEX
  8
0
 10
0.2071
 20
0.5000
 30
0.0000
  0
VERTEX
  8
0
 10
0.5000
 20
0.2071
 30
0.0000
  0
VERTEX
  8
0
 10
0.5000
 20
-0.2071
 30
0.0000
  0
VERTEX
  8
0
 10
0.2071
 20
-0.5000
 30
0.0000
  0
VERTEX
  8
0
 10
-0.2071
 20
-0.5000
 30
0.0000
  0
SEQEND
  8
0
  0
ENDBLK
  8
0
  0
BLOCK
  8
0
  2
SQUAREV
 70
64
 10
0.0000
 20
0.0000
 30
0.0000
  3
SQUAREV
  0
SOLID
  8
0
 10
-0.5000
 20
-0.5000
 30
0.0000
 11
0.5000
 21
-0.5000
 31
0.0000
 12
-0.5000
 22
0.5000
 32
0.0000
 13
0.5000
 23
0.5000
 33
0.0000
  0
ENDBLK
  8
0
  0
BLOCK
  8
0
  2
ROUNDV
 70
64
 10
0.0000
 20
0.0000
 30
0.0000
  3
ROUNDV
  0
CIRCLE
  8
0
 10
0.0000
 20
0.0000
 30
0.0000
 40
0.5000
  0
ENDBLK
  8
0
  0
BLOCK
  8
0
  2
ANNULUSV
 70
64
 10
0.0000
 20
0.0000
 30
0.0000
  3
ANNULUSV
  0
CIRCLE
  8
0
 10
0.0000
 20
0.0000
 30
0.0000
 40
0.5000
  0
ENDBLK
  8
0
  0
BLOCK
  8
0
  2
THERMALV
 70
64
 10
0.0000
 20
0.0000
 30
0.0000
  3
THERMALV
  0
LINE
  8
0
 10
-0.2379
 20
0.4500
 30
0.0000
 11
0.2379
 21
0.4500
 31
0.0000
  0
LINE
  8
0
 10
0.4500
 20
0.2379
 30
0.0000
 11
0.4500
 21
-0.2379
 31
0.0000
  0
LINE
  8
0
 10
0.2379
 20
-0.4500
 30
0.0000
 11
-0.2379
 21
-0.4500
 31
0.0000
  0
LINE
  8
0
 10
-0.4500
 20
-0.2379
 30
0.0000
 11
-0.4500
 21
0.2379
 31
0.0000
  0
ENDBLK
  8
0
  0
ENDSEC
  0
SECTION
  2
ENTITIES
  0
LINE
  8
20
 10
0.0000
 20
0.0000
 30
0.0000
 11
76.2000
 21
0.0000
 31
0.0000
  0
LINE
  8
20
 10
76.2000
 20
0.0000
 30
0.0000
 11
76.2000
 21
33.0200
 31
0.0000
  0
LINE
  8
20
 10
76.2000
 20
33.0200
 30
0.0000
 11
0.0000
 21
33.0200
 31
0.0000
  0
LINE
  8
20
 10
0.0000
 20
33.0200
 30
0.0000
 11
0.0000
 21
0.0000
 31
0.0000
  0
LINE
  8
20
 10
19.0500
 20
16.5100
 30
0.0000
 11
19.0500
 21
3.1300
 31
0.0000
  0
LINE
  8
20
 10
3.8100
 20
16.5100
 30
0.0000
 11
3.8100
 21
3.1300
 31
0.0000
  0
LINE
  8
20
 10
18.9850
 20
5.0800
 30
0.0000
 11
3.8750
 21
5.0800
 31
0.0000
  0
LINE
  8
20
 10
18.9850
 20
5.0800
 30
0.0000
 11
16.4500
 21
5.3992
 31
0.0000
  0
LINE
  8
20
 10
16.4500
 20
5.3992
 30
0.0000
 11
16.4500
 21
4.7608
 31
0.0000
  0
LINE
  8
20
 10
16.4500
 20
4.7608
 30
0.0000
 11
18.9850
 21
5.0800
 31
0.0000
  0
LINE
  8
20
 10
18.9850
 20
5.0800
 30
0.0000
 11
16.4500
 21
5.2100
 31
0.0000
  0
LINE
  8
20
 10
16.4500
 20
4.9500
 30
0.0000
 11
18.9850
 21
5.0800
 31
0.0000
  0
LINE
  8
20
 10
18.9850
 20
5.0800
 30
0.0000
 11
16.4500
 21
5.3400
 31
0.0000
  0
LINE
  8
20
 10
16.4500
 20
4.8200
 30
0.0000
 11
18.9850
 21
5.0800
 31
0.0000
  0
LINE
  8
20
 10
3.8750
 20
5.0800
 30
0.0000
 11
6.4100
 21
5.3992
 31
0.0000
  0
LINE
  8
20
 10
6.4100
 20
5.3992
 30
0.0000
 11
6.4100
 21
4.7608
 31
0.0000
  0
LINE
  8
20
 10
6.4100
 20
4.7608
 30
0.0000
 11
3.8750
 21
5.0800
 31
0.0000
  0
LINE
  8
20
 10
3.8750
 20
5.0800
 30
0.0000
 11
6.4100
 21
5.2100
 31
0.0000
  0
LINE
  8
20
 10
6.4100
 20
4.9500
 30
0.0000
 11
3.8750
 21
5.0800
 31
0.0000
  0
LINE
  8
20
 10
3.8750
 20
5.0800
 30
0.0000
 11
6.4100
 21
5.3400
 31
0.0000
  0
LINE
  8
20
 10
6.4100
 20
4.8200
 30
0.0000
 11
3.8750
 21
5.0800
 31
0.0000
  0
TEXT
  7
ISOCP
  8
20
 10
8.2479
 20
5.6545
 30
0.0000
 40
1.7780
  1
15.24
  0
LINE
  8
20
 10
67.3100
 20
33.0200
 30
0.0000
 11
67.3100
 21
37.5100
 31
0.0000
  0
LINE
  8
20
 10
49.5300
 20
33.0200
 30
0.0000
 11
49.5300
 21
37.5100
 31
0.0000
  0
LINE
  8
20
 10
67.2450
 20
35.5600
 30
0.0000
 11
49.5950
 21
35.5600
 31
0.0000
  0
LINE
  8
20
 10
67.2450
 20
35.5600
 30
0.0000
 11
64.7100
 21
35.8792
 31
0.0000
  0
LINE
  8
20
 10
64.7100
 20
35.8792
 30
0.0000
 11
64.7100
 21
35.2408
 31
0.0000
  0
LINE
  8
20
 10
64.7100
 20
35.2408
 30
0.0000
 11
67.2450
 21
35.5600
 31
0.0000
  0
LINE
  8
20
 10
67.2450
 20
35.5600
 30
0.0000
 11
64.7100
 21
35.6900
 31
0.0000
  0
LINE
  8
20
 10
64.7100
 20
35.4300
 30
0.0000
 11
67.2450
 21
35.5600
 31
0.0000
  0
LINE
  8
20
 10
67.2450
 20
35.5600
 30
0.0000
 11
64.7100
 21
35.8200
 31
0.0000
  0
LINE
  8
20
 10
64.7100
 20
35.3000
 30
0.0000
 11
67.2450
 21
35.5600
 31
0.0000
  0
LINE
  8
20
 10
49.5950
 20
35.5600
 30
0.0000
 11
52.1300
 21
35.8792
 31
0.0000
  0
LINE
  8
20
 10
52.1300
 20
35.8792
 30
0.0000
 11
52.1300
 21
35.2408
 31
0.0000
  0
LINE
  8
20
 10
52.1300
 20
35.2408
 30
0.0000
 11
49.5950
 21
35.5600
 31
0.0000
  0
LINE
  8
20
 10
49.5950
 20
35.5600
 30
0.0000
 11
52.1300
 21
35.6900
 31
0.0000
  0
LINE
  8
20
 10
52.1300
 20
35.4300
 30
0.0000
 11
49.5950
 21
35.5600
 31
0.0000
  0
LINE
  8
20
 10
49.5950
 20
35.5600
 30
0.0000
 11
52.1300
 21
35.8200
 31
0.0000
  0
LINE
  8
20
 10
52.1300
 20
35.3000
 30
0.0000
 11
49.5950
 21
35.5600
 31
0.0000
  0
TEXT
  7
ISOCP
  8
20
 10
55.2379
 20
36.1345
 30
0.0000
 40
1.7780
  1
17.78
  0
LINE
  8
20
 10
0.0000
 20
34.2900
 30
0.0000
 11
0.0000
 21
41.3200
 31
0.0000
  0
LINE
  8
20
 10
76.2000
 20
34.2900
 30
0.0000
 11
76.2000
 21
41.3200
 31
0.0000
  0
LINE
  8
20
 10
0.0650
 20
39.3700
 30
0.0000
 11
76.1350
 21
39.3700
 31
0.0000
  0
LINE
  8
20
 10
0.0650
 20
39.3700
 30
0.0000
 11
2.6000
 21
39.6892
 31
0.0000
  0
LINE
  8
20
 10
2.6000
 20
39.6892
 30
0.0000
 11
2.6000
 21
39.0508
 31
0.0000
  0
LINE
  8
20
 10
2.6000
 20
39.0508
 30
0.0000
 11
0.0650
 21
39.3700
 31
0.0000
  0
LINE
  8
20
 10
0.0650
 20
39.3700
 30
0.0000
 11
2.6000
 21
39.5000
 31
0.0000
  0
LINE
  8
20
 10
2.6000
 20
39.2400
 30
0.0000
 11
0.0650
 21
39.3700
 31
0.0000
  0
LINE
  8
20
 10
0.0650
 20
39.3700
 30
0.0000
 11
2.6000
 21
39.6300
 31
0.0000
  0
LINE
  8
20
 10
2.6000
 20
39.1100
 30
0.0000
 11
0.0650
 21
39.3700
 31
0.0000
  0
LINE
  8
20
 10
76.1350
 20
39.3700
 30
0.0000
 11
73.6000
 21
39.6892
 31
0.0000
  0
LINE
  8
20
 10
73.6000
 20
39.6892
 30
0.0000
 11
73.6000
 21
39.0508
 31
0.0000
  0
LINE
  8
20
 10
73.6000
 20
39.0508
 30
0.0000
 11
76.1350
 21
39.3700
 31
0.0000
  0
LINE
  8
20
 10
76.1350
 20
39.3700
 30
0.0000
 11
73.6000
 21
39.5000
 31
0.0000
  0
LINE
  8
20
 10
73.6000
 20
39.2400
 30
0.0000
 11
76.1350
 21
39.3700
 31
0.0000
  0
LINE
  8
20
 10
76.1350
 20
39.3700
 30
0.0000
 11
73.6000
 21
39.6300
 31
0.0000
  0
LINE
  8
20
 10
73.6000
 20
39.1100
 30
0.0000
 11
76.1350
 21
39.3700
 31
0.0000
  0
TEXT
  7
ISOCP
  8
20
 10
34.9179
 20
39.9445
 30
0.0000
 40
1.7780
  1
76.20
  0
LINE
  8
20
 10
0.0000
 20
0.0000
 30
0.0000
 11
-4.4900
 21
0.0000
 31
0.0000
  0
LINE
  8
20
 10
0.0000
 20
33.0200
 30
0.0000
 11
-4.4900
 21
33.0200
 31
0.0000
  0
LINE
  8
20
 10
-2.5400
 20
0.0650
 30
0.0000
 11
-2.5400
 21
32.9550
 31
0.0000
  0
LINE
  8
20
 10
-2.5400
 20
0.0650
 30
0.0000
 11
-2.8592
 21
2.6000
 31
0.0000
  0
LINE
  8
20
 10
-2.8592
 20
2.6000
 30
0.0000
 11
-2.2208
 21
2.6000
 31
0.0000
  0
LINE
  8
20
 10
-2.2208
 20
2.6000
 30
0.0000
 11
-2.5400
 21
0.0650
 31
0.0000
  0
LINE
  8
20
 10
-2.5400
 20
0.0650
 30
0.0000
 11
-2.6700
 21
2.6000
 31
0.0000
  0
LINE
  8
20
 10
-2.4100
 20
2.6000
 30
0.0000
 11
-2.5400
 21
0.0650
 31
0.0000
  0
LINE
  8
20
 10
-2.5400
 20
0.0650
 30
0.0000
 11
-2.8000
 21
2.6000
 31
0.0000
  0
LINE
  8
20
 10
-2.2800
 20
2.6000
 30
0.0000
 11
-2.5400
 21
0.0650
 31
0.0000
  0
LINE
  8
20
 10
-2.5400
 20
32.9550
 30
0.0000
 11
-2.8592
 21
30.4200
 31
0.0000
  0
LINE
  8
20
 10
-2.8592
 20
30.4200
 30
0.0000
 11
-2.2208
 21
30.4200
 31
0.0000
  0
LINE
  8
20
 10
-2.2208
 20
30.4200
 30
0.0000
 11
-2.5400
 21
32.9550
 31
0.0000
  0
LINE
  8
20
 10
-2.5400
 20
32.9550
 30
0.0000
 11
-2.6700
 21
30.4200
 31
0.0000
  0
LINE
  8
20
 10
-2.4100
 20
30.4200
 30
0.0000
 11
-2.5400
 21
32.9550
 31
0.0000
  0
LINE
  8
20
 10
-2.5400
 20
32.9550
 30
0.0000
 11
-2.8000
 21
30.4200
 31
0.0000
  0
LINE
  8
20
 10
-2.2800
 20
30.4200
 30
0.0000
 11
-2.5400
 21
32.9550
 31
0.0000
  0
TEXT
  7
ISOCP
  8
20
 10
-3.1145
 20
13.3279
 30
0.0000
 40
1.7780
  1
33.02
 50
90.0000
  0
CIRCLE
  8
20
 10
49.5300
 20
16.5100
 30
0.0000
 40
1.5000
  0
CIRCLE
  8
20
 10
3.8100
 20
22.8600
 30
0.0000
 40
1.5000
  0
INSERT
  8
17
  2
OCTAGONP
 10
38.1000
 20
7.6200
 30
0.0000
 41
1.5240
 42
1.5240
 43
1.0000
 50
0.0000
  0
INSERT
  8
17
  2
OCTAGONP
 10
38.1000
 20
7.6200
 30
0.0000
 41
1.5240
 42
1.5240
 43
1.0000
 50
0.0000
  0
INSERT
  8
17
  2
OCTAGONP
 10
38.1000
 20
10.1600
 30
0.0000
 41
1.5240
 42
1.5240
 43
1.0000
 50
0.0000
  0
INSERT
  8
17
  2
OCTAGONP
 10
38.1000
 20
10.1600
 30
0.0000
 41
1.5240
 42
1.5240
 43
1.0000
 50
0.0000
  0
INSERT
  8
17
  2
OCTAGONP
 10
40.6400
 20
7.6200
 30
0.0000
 41
1.5240
 42
1.5240
 43
1.0000
 50
0.0000
  0
INSERT
  8
17
  2
OCTAGONP
 10
40.6400
 20
7.6200
 30
0.0000
 41
1.5240
 42
1.5240
 43
1.0000
 50
0.0000
  0
INSERT
  8
17
  2
OCTAGONP
 10
40.6400
 20
10.1600
 30
0.0000
 41
1.5240
 42
1.5240
 43
1.0000
 50
0.0000
  0
INSERT
  8
17
  2
OCTAGONP
 10
40.6400
 20
10.1600
 30
0.0000
 41
1.5240
 42
1.5240
 43
1.0000
 50
0.0000
  0
INSERT
  8
17
  2
OCTAGONP
 10
43.1800
 20
7.6200
 30
0.0000
 41
1.5240
 42
1.5240
 43
1.0000
 50
0.0000
  0
INSERT
  8
17
  2
OCTAGONP
 10
43.1800
 20
7.6200
 30
0.0000
 41
1.5240
 42
1.5240
 43
1.0000
 50
0.0000
  0
INSERT
  8
17
  2
OCTAGONP
 10
43.1800
 20
10.1600
 30
0.0000
 41
1.5240
 42
1.5240
 43
1.0000
 50
0.0000
  0
INSERT
  8
17
  2
OCTAGONP
 10
43.1800
 20
10.1600
 30
0.0000
 41
1.5240
 42
1.5240
 43
1.0000
 50
0.0000
  0
INSERT
  8
17
  2
OCTAGONP
 10
45.7200
 20
7.6200
 30
0.0000
 41
1.5240
 42
1.5240
 43
1.0000
 50
0.0000
  0
INSERT
  8
17
  2
OCTAGONP
 10
45.7200
 20
7.6200
 30
0.0000
 41
1.5240
 42
1.5240
 43
1.0000
 50
0.0000
  0
INSERT
  8
17
  2
OCTAGONP
 10
45.7200
 20
10.1600
 30
0.0000
 41
1.5240
 42
1.5240
 43
1.0000
 50
0.0000
  0
INSERT
  8
17
  2
OCTAGONP
 10
45.7200
 20
10.1600
 30
0.0000
 41
1.5240
 42
1.5240
 43
1.0000
 50
0.0000
  0
INSERT
  8
17
  2
OCTAGONP
 10
48.2600
 20
7.6200
 30
0.0000
 41
1.5240
 42
1.5240
 43
1.0000
 50
0.0000
  0
INSERT
  8
17
  2
OCTAGONP
 10
48.2600
 20
7.6200
 30
0.0000
 41
1.5240
 42
1.5240
 43
1.0000
 50
0.0000
  0
INSERT
  8
17
  2
OCTAGONP
 10
48.2600
 20
10.1600
 30
0.0000
 41
1.5240
 42
1.5240
 43
1.0000
 50
0.0000
  0
INSERT
  8
17
  2
OCTAGONP
 10
48.2600
 20
10.1600
 30
0.0000
 41
1.5240
 42
1.5240
 43
1.0000
 50
0.0000
  0
INSERT
  8
17
  2
OCTAGONP
 10
50.8000
 20
7.6200
 30
0.0000
 41
1.5240
 42
1.5240
 43
1.0000
 50
0.0000
  0
INSERT
  8
17
  2
OCTAGONP
 10
50.8000
 20
7.6200
 30
0.0000
 41
1.5240
 42
1.5240
 43
1.0000
 50
0.0000
  0
INSERT
  8
17
  2
OCTAGONP
 10
50.8000
 20
10.1600
 30
0.0000
 41
1.5240
 42
1.5240
 43
1.0000
 50
0.0000
  0
INSERT
  8
17
  2
OCTAGONP
 10
50.8000
 20
10.1600
 30
0.0000
 41
1.5240
 42
1.5240
 43
1.0000
 50
0.0000
  0
INSERT
  8
17
  2
OCTAGONP
 10
53.3400
 20
7.6200
 30
0.0000
 41
1.5240
 42
1.5240
 43
1.0000
 50
0.0000
  0
INSERT
  8
17
  2
OCTAGONP
 10
53.3400
 20
7.6200
 30
0.0000
 41
1.5240
 42
1.5240
 43
1.0000
 50
0.0000
  0
INSERT
  8
17
  2
OCTAGONP
 10
53.3400
 20
10.1600
 30
0.0000
 41
1.5240
 42
1.5240
 43
1.0000
 50
0.0000
  0
INSERT
  8
17
  2
OCTAGONP
 10
53.3400
 20
10.1600
 30
0.0000
 41
1.5240
 42
1.5240
 43
1.0000
 50
0.0000
  0
INSERT
  8
17
  2
OCTAGONP
 10
55.8800
 20
7.6200
 30
0.0000
 41
1.5240
 42
1.5240
 43
1.0000
 50
0.0000
  0
INSERT
  8
17
  2
OCTAGONP
 10
55.8800
 20
7.6200
 30
0.0000
 41
1.5240
 42
1.5240
 43
1.0000
 50
0.0000
  0
INSERT
  8
17
  2
OCTAGONP
 10
55.8800
 20
10.1600
 30
0.0000
 41
1.5240
 42
1.5240
 43
1.0000
 50
0.0000
  0
INSERT
  8
17
  2
OCTAGONP
 10
55.8800
 20
10.1600
 30
0.0000
 41
1.5240
 42
1.5240
 43
1.0000
 50
0.0000
  0
INSERT
  8
17
  2
OCTAGONP
 10
58.4200
 20
7.6200
 30
0.0000
 41
1.5240
 42
1.5240
 43
1.0000
 50
0.0000
  0
INSERT
  8
17
  2
OCTAGONP
 10
58.4200
 20
7.6200
 30
0.0000
 41
1.5240
 42
1.5240
 43
1.0000
 50
0.0000
  0
INSERT
  8
17
  2
OCTAGONP
 10
58.4200
 20
10.1600
 30
0.0000
 41
1.5240
 42
1.5240
 43
1.0000
 50
0.0000
  0
INSERT
  8
17
  2
OCTAGONP
 10
58.4200
 20
10.1600
 30
0.0000
 41
1.5240
 42
1.5240
 43
1.0000
 50
0.0000
  0
INSERT
  8
17
  2
OCTAGONP
 10
60.9600
 20
7.6200
 30
0.0000
 41
1.5240
 42
1.5240
 43
1.0000
 50
0.0000
  0
INSERT
  8
17
  2
OCTAGONP
 10
60.9600
 20
7.6200
 30
0.0000
 41
1.5240
 42
1.5240
 43
1.0000
 50
0.0000
  0
INSERT
  8
17
  2
OCTAGONP
 10
60.9600
 20
10.1600
 30
0.0000
 41
1.5240
 42
1.5240
 43
1.0000
 50
0.0000
  0
INSERT
  8
17
  2
OCTAGONP
 10
60.9600
 20
10.1600
 30
0.0000
 41
1.5240
 42
1.5240
 43
1.0000
 50
0.0000
  0
INSERT
  8
17
  2
OCTAGONP
 10
63.5000
 20
7.6200
 30
0.0000
 41
1.5240
 42
1.5240
 43
1.0000
 50
0.0000
  0
INSERT
  8
17
  2
OCTAGONP
 10
63.5000
 20
7.6200
 30
0.0000
 41
1.5240
 42
1.5240
 43
1.0000
 50
0.0000
  0
INSERT
  8
17
  2
OCTAGONP
 10
63.5000
 20
10.1600
 30
0.0000
 41
1.5240
 42
1.5240
 43
1.0000
 50
0.0000
  0
INSERT
  8
17
  2
OCTAGONP
 10
63.5000
 20
10.1600
 30
0.0000
 41
1.5240
 42
1.5240
 43
1.0000
 50
0.0000
  0
INSERT
  8
17
  2
OCTAGONP
 10
66.0400
 20
7.6200
 30
0.0000
 41
1.5240
 42
1.5240
 43
1.0000
 50
0.0000
  0
INSERT
  8
17
  2
OCTAGONP
 10
66.0400
 20
7.6200
 30
0.0000
 41
1.5240
 42
1.5240
 43
1.0000
 50
0.0000
  0
INSERT
  8
17
  2
OCTAGONP
 10
66.0400
 20
10.1600
 30
0.0000
 41
1.5240
 42
1.5240
 43
1.0000
 50
0.0000
  0
INSERT
  8
17
  2
OCTAGONP
 10
66.0400
 20
10.1600
 30
0.0000
 41
1.5240
 42
1.5240
 43
1.0000
 50
0.0000
  0
INSERT
  8
17
  2
OCTAGONP
 10
68.5800
 20
7.6200
 30
0.0000
 41
1.5240
 42
1.5240
 43
1.0000
 50
0.0000
  0
INSERT
  8
17
  2
OCTAGONP
 10
68.5800
 20
7.6200
 30
0.0000
 41
1.5240
 42
1.5240
 43
1.0000
 50
0.0000
  0
INSERT
  8
17
  2
OCTAGONP
 10
68.5800
 20
10.1600
 30
0.0000
 41
1.5240
 42
1.5240
 43
1.0000
 50
0.0000
  0
INSERT
  8
17
  2
OCTAGONP
 10
68.5800
 20
10.1600
 30
0.0000
 41
1.5240
 42
1.5240
 43
1.0000
 50
0.0000
  0
INSERT
  8
17
  2
SQUAREP
 10
19.0830
 20
21.5790
 30
0.0000
 41
1.5240
 42
1.5240
 43
1.0000
 50
0.0000
  0
INSERT
  8
17
  2
SQUAREP
 10
19.0830
 20
21.5790
 30
0.0000
 41
1.5240
 42
1.5240
 43
1.0000
 50
0.0000
  0
INSERT
  8
17
  2
ROUNDP
 10
19.0830
 20
24.1190
 30
0.0000
 41
1.5240
 42
1.5240
 43
1.0000
 50
0.0000
  0
INSERT
  8
17
  2
ROUNDP
 10
19.0830
 20
24.1190
 30
0.0000
 41
1.5240
 42
1.5240
 43
1.0000
 50
0.0000
  0
INSERT
  8
17
  2
ROUNDP
 10
21.6230
 20
21.5790
 30
0.0000
 41
1.5240
 42
1.5240
 43
1.0000
 50
0.0000
  0
INSERT
  8
17
  2
ROUNDP
 10
21.6230
 20
21.5790
 30
0.0000
 41
1.5240
 42
1.5240
 43
1.0000
 50
0.0000
  0
INSERT
  8
17
  2
ROUNDP
 10
21.6230
 20
24.1190
 30
0.0000
 41
1.5240
 42
1.5240
 43
1.0000
 50
0.0000
  0
INSERT
  8
17
  2
ROUNDP
 10
21.6230
 20
24.1190
 30
0.0000
 41
1.5240
 42
1.5240
 43
1.0000
 50
0.0000
  0
INSERT
  8
17
  2
ROUNDP
 10
24.1630
 20
21.5790
 30
0.0000
 41
1.5240
 42
1.5240
 43
1.0000
 50
0.0000
  0
INSERT
  8
17
  2
ROUNDP
 10
24.1630
 20
21.5790
 30
0.0000
 41
1.5240
 42
1.5240
 43
1.0000
 50
0.0000
  0
INSERT
  8
17
  2
ROUNDP
 10
24.1630
 20
24.1190
 30
0.0000
 41
1.5240
 42
1.5240
 43
1.0000
 50
0.0000
  0
INSERT
  8
17
  2
ROUNDP
 10
24.1630
 20
24.1190
 30
0.0000
 41
1.5240
 42
1.5240
 43
1.0000
 50
0.0000
  0
INSERT
  8
17
  2
ROUNDP
 10
26.7030
 20
21.5790
 30
0.0000
 41
1.5240
 42
1.5240
 43
1.0000
 50
0.0000
  0
INSERT
  8
17
  2
ROUNDP
 10
26.7030
 20
21.5790
 30
0.0000
 41
1.5240
 42
1.5240
 43
1.0000
 50
0.0000
  0
INSERT
  8
17
  2
ROUNDP
 10
26.7030
 20
24.1190
 30
0.0000
 41
1.5240
 42
1.5240
 43
1.0000
 50
0.0000
  0
INSERT
  8
17
  2
ROUNDP
 10
26.7030
 20
24.1190
 30
0.0000
 41
1.5240
 42
1.5240
 43
1.0000
 50
0.0000
  0
INSERT
  8
17
  2
ROUNDP
 10
29.2430
 20
21.5790
 30
0.0000
 41
1.5240
 42
1.5240
 43
1.0000
 50
0.0000
  0
INSERT
  8
17
  2
ROUNDP
 10
29.2430
 20
21.5790
 30
0.0000
 41
1.5240
 42
1.5240
 43
1.0000
 50
0.0000
  0
INSERT
  8
17
  2
ROUNDP
 10
29.2430
 20
24.1190
 30
0.0000
 41
1.5240
 42
1.5240
 43
1.0000
 50
0.0000
  0
INSERT
  8
17
  2
ROUNDP
 10
29.2430
 20
24.1190
 30
0.0000
 41
1.5240
 42
1.5240
 43
1.0000
 50
0.0000
  0
INSERT
  8
17
  2
ROUNDP
 10
31.7830
 20
21.5790
 30
0.0000
 41
1.5240
 42
1.5240
 43
1.0000
 50
0.0000
  0
INSERT
  8
17
  2
ROUNDP
 10
31.7830
 20
21.5790
 30
0.0000
 41
1.5240
 42
1.5240
 43
1.0000
 50
0.0000
  0
INSERT
  8
17
  2
ROUNDP
 10
31.7830
 20
24.1190
 30
0.0000
 41
1.5240
 42
1.5240
 43
1.0000
 50
0.0000
  0
INSERT
  8
17
  2
ROUNDP
 10
31.7830
 20
24.1190
 30
0.0000
 41
1.5240
 42
1.5240
 43
1.0000
 50
0.0000
  0
INSERT
  8
17
  2
ROUNDP
 10
34.3230
 20
21.5790
 30
0.0000
 41
1.5240
 42
1.5240
 43
1.0000
 50
0.0000
  0
INSERT
  8
17
  2
ROUNDP
 10
34.3230
 20
21.5790
 30
0.0000
 41
1.5240
 42
1.5240
 43
1.0000
 50
0.0000
  0
INSERT
  8
17
  2
ROUNDP
 10
34.3230
 20
24.1190
 30
0.0000
 41
1.5240
 42
1.5240
 43
1.0000
 50
0.0000
  0
INSERT
  8
17
  2
ROUNDP
 10
34.3230
 20
24.1190
 30
0.0000
 41
1.5240
 42
1.5240
 43
1.0000
 50
0.0000
  0
INSERT
  8
17
  2
ROUNDP
 10
36.8630
 20
21.5790
 30
0.0000
 41
1.5240
 42
1.5240
 43
1.0000
 50
0.0000
  0
INSERT
  8
17
  2
ROUNDP
 10
36.8630
 20
21.5790
 30
0.0000
 41
1.5240
 42
1.5240
 43
1.0000
 50
0.0000
  0
INSERT
  8
17
  2
ROUNDP
 10
36.8630
 20
24.1190
 30
0.0000
 41
1.5240
 42
1.5240
 43
1.0000
 50
0.0000
  0
INSERT
  8
17
  2
ROUNDP
 10
36.8630
 20
24.1190
 30
0.0000
 41
1.5240
 42
1.5240
 43
1.0000
 50
0.0000
  0
INSERT
  8
17
  2
ROUNDP
 10
39.4030
 20
21.5790
 30
0.0000
 41
1.5240
 42
1.5240
 43
1.0000
 50
0.0000
  0
INSERT
  8
17
  2
ROUNDP
 10
39.4030
 20
21.5790
 30
0.0000
 41
1.5240
 42
1.5240
 43
1.0000
 50
0.0000
  0
INSERT
  8
17
  2
ROUNDP
 10
39.4030
 20
24.1190
 30
0.0000
 41
1.5240
 42
1.5240
 43
1.0000
 50
0.0000
  0
INSERT
  8
17
  2
ROUNDP
 10
39.4030
 20
24.1190
 30
0.0000
 41
1.5240
 42
1.5240
 43
1.0000
 50
0.0000
  0
INSERT
  8
17
  2
ROUNDP
 10
41.9430
 20
21.5790
 30
0.0000
 41
1.5240
 42
1.5240
 43
1.0000
 50
0.0000
  0
INSERT
  8
17
  2
ROUNDP
 10
41.9430
 20
21.5790
 30
0.0000
 41
1.5240
 42
1.5240
 43
1.0000
 50
0.0000
  0
INSERT
  8
17
  2
ROUNDP
 10
41.9430
 20
24.1190
 30
0.0000
 41
1.5240
 42
1.5240
 43
1.0000
 50
0.0000
  0
INSERT
  8
17
  2
ROUNDP
 10
41.9430
 20
24.1190
 30
0.0000
 41
1.5240
 42
1.5240
 43
1.0000
 50
0.0000
  0
INSERT
  8
17
  2
ROUNDP
 10
44.4830
 20
21.5790
 30
0.0000
 41
1.5240
 42
1.5240
 43
1.0000
 50
0.0000
  0
INSERT
  8
17
  2
ROUNDP
 10
44.4830
 20
21.5790
 30
0.0000
 41
1.5240
 42
1.5240
 43
1.0000
 50
0.0000
  0
INSERT
  8
17
  2
ROUNDP
 10
44.4830
 20
24.1190
 30
0.0000
 41
1.5240
 42
1.5240
 43
1.0000
 50
0.0000
  0
INSERT
  8
17
  2
ROUNDP
 10
44.4830
 20
24.1190
 30
0.0000
 41
1.5240
 42
1.5240
 43
1.0000
 50
0.0000
  0
INSERT
  8
17
  2
ROUNDP
 10
47.0230
 20
21.5790
 30
0.0000
 41
1.5240
 42
1.5240
 43
1.0000
 50
0.0000
  0
INSERT
  8
17
  2
ROUNDP
 10
47.0230
 20
21.5790
 30
0.0000
 41
1.5240
 42
1.5240
 43
1.0000
 50
0.0000
  0
INSERT
  8
17
  2
ROUNDP
 10
47.0230
 20
24.1190
 30
0.0000
 41
1.5240
 42
1.5240
 43
1.0000
 50
0.0000
  0
INSERT
  8
17
  2
ROUNDP
 10
47.0230
 20
24.1190
 30
0.0000
 41
1.5240
 42
1.5240
 43
1.0000
 50
0.0000
  0
INSERT
  8
17
  2
ROUNDP
 10
49.5630
 20
21.5790
 30
0.0000
 41
1.5240
 42
1.5240
 43
1.0000
 50
0.0000
  0
INSERT
  8
17
  2
ROUNDP
 10
49.5630
 20
21.5790
 30
0.0000
 41
1.5240
 42
1.5240
 43
1.0000
 50
0.0000
  0
INSERT
  8
17
  2
ROUNDP
 10
49.5630
 20
24.1190
 30
0.0000
 41
1.5240
 42
1.5240
 43
1.0000
 50
0.0000
  0
INSERT
  8
17
  2
ROUNDP
 10
49.5630
 20
24.1190
 30
0.0000
 41
1.5240
 42
1.5240
 43
1.0000
 50
0.0000
  0
INSERT
  8
17
  2
ROUNDP
 10
52.1030
 20
21.5790
 30
0.0000
 41
1.5240
 42
1.5240
 43
1.0000
 50
0.0000
  0
INSERT
  8
17
  2
ROUNDP
 10
52.1030
 20
21.5790
 30
0.0000
 41
1.5240
 42
1.5240
 43
1.0000
 50
0.0000
  0
INSERT
  8
17
  2
ROUNDP
 10
52.1030
 20
24.1190
 30
0.0000
 41
1.5240
 42
1.5240
 43
1.0000
 50
0.0000
  0
INSERT
  8
17
  2
ROUNDP
 10
52.1030
 20
24.1190
 30
0.0000
 41
1.5240
 42
1.5240
 43
1.0000
 50
0.0000
  0
INSERT
  8
17
  2
ROUNDP
 10
54.6430
 20
21.5790
 30
0.0000
 41
1.5240
 42
1.5240
 43
1.0000
 50
0.0000
  0
INSERT
  8
17
  2
ROUNDP
 10
54.6430
 20
21.5790
 30
0.0000
 41
1.5240
 42
1.5240
 43
1.0000
 50
0.0000
  0
INSERT
  8
17
  2
ROUNDP
 10
54.6430
 20
24.1190
 30
0.0000
 41
1.5240
 42
1.5240
 43
1.0000
 50
0.0000
  0
INSERT
  8
17
  2
ROUNDP
 10
54.6430
 20
24.1190
 30
0.0000
 41
1.5240
 42
1.5240
 43
1.0000
 50
0.0000
  0
INSERT
  8
17
  2
ROUNDP
 10
57.1830
 20
21.5790
 30
0.0000
 41
1.5240
 42
1.5240
 43
1.0000
 50
0.0000
  0
INSERT
  8
17
  2
ROUNDP
 10
57.1830
 20
21.5790
 30
0.0000
 41
1.5240
 42
1.5240
 43
1.0000
 50
0.0000
  0
INSERT
  8
17
  2
ROUNDP
 10
57.1830
 20
24.1190
 30
0.0000
 41
1.5240
 42
1.5240
 43
1.0000
 50
0.0000
  0
INSERT
  8
17
  2
ROUNDP
 10
57.1830
 20
24.1190
 30
0.0000
 41
1.5240
 42
1.5240
 43
1.0000
 50
0.0000
  0
INSERT
  8
17
  2
ROUNDP
 10
59.7230
 20
21.5790
 30
0.0000
 41
1.5240
 42
1.5240
 43
1.0000
 50
0.0000
  0
INSERT
  8
17
  2
ROUNDP
 10
59.7230
 20
21.5790
 30
0.0000
 41
1.5240
 42
1.5240
 43
1.0000
 50
0.0000
  0
INSERT
  8
17
  2
ROUNDP
 10
59.7230
 20
24.1190
 30
0.0000
 41
1.5240
 42
1.5240
 43
1.0000
 50
0.0000
  0
INSERT
  8
17
  2
ROUNDP
 10
59.7230
 20
24.1190
 30
0.0000
 41
1.5240
 42
1.5240
 43
1.0000
 50
0.0000
  0
INSERT
  8
17
  2
ROUNDP
 10
62.2630
 20
21.5790
 30
0.0000
 41
1.5240
 42
1.5240
 43
1.0000
 50
0.0000
  0
INSERT
  8
17
  2
ROUNDP
 10
62.2630
 20
21.5790
 30
0.0000
 41
1.5240
 42
1.5240
 43
1.0000
 50
0.0000
  0
INSERT
  8
17
  2
ROUNDP
 10
62.2630
 20
24.1190
 30
0.0000
 41
1.5240
 42
1.5240
 43
1.0000
 50
0.0000
  0
INSERT
  8
17
  2
ROUNDP
 10
62.2630
 20
24.1190
 30
0.0000
 41
1.5240
 42
1.5240
 43
1.0000
 50
0.0000
  0
INSERT
  8
17
  2
ROUNDP
 10
64.8030
 20
21.5790
 30
0.0000
 41
1.5240
 42
1.5240
 43
1.0000
 50
0.0000
  0
INSERT
  8
17
  2
ROUNDP
 10
64.8030
 20
21.5790
 30
0.0000
 41
1.5240
 42
1.5240
 43
1.0000
 50
0.0000
  0
INSERT
  8
17
  2
ROUNDP
 10
64.8030
 20
24.1190
 30
0.0000
 41
1.5240
 42
1.5240
 43
1.0000
 50
0.0000
  0
INSERT
  8
17
  2
ROUNDP
 10
64.8030
 20
24.1190
 30
0.0000
 41
1.5240
 42
1.5240
 43
1.0000
 50
0.0000
  0
INSERT
  8
17
  2
ROUNDP
 10
67.3430
 20
21.5790
 30
0.0000
 41
1.5240
 42
1.5240
 43
1.0000
 50
0.0000
  0
INSERT
  8
17
  2
ROUNDP
 10
67.3430
 20
21.5790
 30
0.0000
 41
1.5240
 42
1.5240
 43
1.0000
 50
0.0000
  0
INSERT
  8
17
  2
ROUNDP
 10
67.3430
 20
24.1190
 30
0.0000
 41
1.5240
 42
1.5240
 43
1.0000
 50
0.0000
  0
INSERT
  8
17
  2
ROUNDP
 10
67.3430
 20
24.1190
 30
0.0000
 41
1.5240
 42
1.5240
 43
1.0000
 50
0.0000
  0
LINE
  8
16
 10
38.1000
 20
7.6200
 30
0.0000
 11
25.4000
 21
7.6200
 31
0.0000
  0
LINE
  8
16
 10
25.4000
 20
7.6200
 30
0.0000
 11
20.3200
 21
12.7000
 31
0.0000
  0
LINE
  8
16
 10
20.3200
 20
12.7000
 30
0.0000
 11
20.3200
 21
15.2400
 31
0.0000
  0
LINE
  8
16
 10
20.3200
 20
15.2400
 30
0.0000
 11
20.3200
 21
19.0500
 31
0.0000
  0
LINE
  8
16
 10
19.0500
 20
21.5460
 30
0.0000
 11
19.0830
 21
21.5790
 31
0.0000
  0
LINE
  8
16
 10
39.4030
 20
21.5790
 30
0.0000
 11
39.4030
 21
19.0830
 31
0.0000
  0
LINE
  8
16
 10
35.5600
 20
15.2400
 30
0.0000
 11
20.3200
 21
15.2400
 31
0.0000
  0
LINE
  8
16
 10
20.3200
 20
19.0500
 30
0.0000
 11
19.0500
 21
20.3200
 31
0.0000
  0
LINE
  8
16
 10
19.0500
 20
20.3200
 30
0.0000
 11
19.0500
 21
21.5460
 31
0.0000
  0
LINE
  8
16
 10
39.4030
 20
19.0830
 30
0.0000
 11
35.5600
 21
15.2400
 31
0.0000
  0
LINE
  8
16
 10
58.4200
 20
7.6200
 30
0.0000
 11
58.4200
 21
5.0800
 31
0.0000
  0
LINE
  8
16
 10
40.6400
 20
1.2700
 30
0.0000
 11
38.1000
 21
3.8100
 31
0.0000
  0
LINE
  8
16
 10
38.1000
 20
3.8100
 30
0.0000
 11
38.1000
 21
7.6200
 31
0.0000
  0
LINE
  8
16
 10
58.4200
 20
5.0800
 30
0.0000
 11
54.6100
 21
1.2700
 31
0.0000
  0
LINE
  8
16
 10
54.6100
 20
1.2700
 30
0.0000
 11
40.6400
 21
1.2700
 31
0.0000
  0
LINE
  8
16
 10
40.6400
 20
10.1600
 30
0.0000
 11
38.1000
 21
10.1600
 31
0.0000
  0
LINE
  8
16
 10
38.1000
 20
10.1600
 30
0.0000
 11
26.6700
 21
10.1600
 31
0.0000
  0
LINE
  8
1
 10
26.6700
 20
10.1600
 30
0.0000
 11
19.0500
 21
10.1600
 31
0.0000
  0
LINE
  8
16
 10
16.5100
 20
12.7000
 30
0.0000
 11
19.0500
 21
10.1600
 31
0.0000
  0
LINE
  8
16
 10
21.6230
 20
24.1190
 30
0.0000
 11
19.0830
 21
24.1190
 31
0.0000
  0
LINE
  8
16
 10
19.0830
 20
24.1190
 30
0.0000
 11
17.7910
 21
24.1190
 31
0.0000
  0
LINE
  8
16
 10
17.7910
 20
24.1190
 30
0.0000
 11
17.7800
 21
24.1300
 31
0.0000
  0
LINE
  8
16
 10
17.7800
 20
24.1300
 30
0.0000
 11
16.5100
 21
22.8600
 31
0.0000
  0
LINE
  8
16
 10
16.5100
 20
22.8600
 30
0.0000
 11
16.5100
 21
12.7000
 31
0.0000
  0
INSERT
  8
18
  2
ROUNDV
 10
26.6700
 20
10.1600
 30
0.0000
 41
0.7564
 42
0.7564
 43
1.0000
 50
0.0000
  0
INSERT
  8
18
  2
ROUNDV
 10
26.6700
 20
10.1600
 30
0.0000
 41
0.7564
 42
0.7564
 43
1.0000
 50
0.0000
  0
INSERT
  8
18
  2
ROUNDV
 10
19.0500
 20
10.1600
 30
0.0000
 41
0.7564
 42
0.7564
 43
1.0000
 50
0.0000
  0
INSERT
  8
18
  2
ROUNDV
 10
19.0500
 20
10.1600
 30
0.0000
 41
0.7564
 42
0.7564
 43
1.0000
 50
0.0000
  0
LINE
  8
1
 10
46.9900
 20
30.4800
 30
0.0000
 11
68.5800
 21
30.4800
 31
0.0000
  0
LINE
  8
1
 10
68.5800
 20
30.4800
 30
0.0000
 11
71.1200
 21
27.9400
 31
0.0000
  0
LINE
  8
16
 10
46.9900
 20
30.4800
 30
0.0000
 11
47.0230
 21
30.4470
 31
0.0000
  0
LINE
  8
16
 10
47.0230
 20
30.4470
 30
0.0000
 11
47.0230
 21
24.1190
 31
0.0000
  0
LINE
  8
16
 10
66.0400
 20
14.3510
 30
0.0000
 11
66.0400
 21
10.1600
 31
0.0000
  0
LINE
  8
16
 10
71.1200
 20
27.9400
 30
0.0000
 11
71.1200
 21
19.4310
 31
0.0000
  0
LINE
  8
16
 10
71.1200
 20
19.4310
 30
0.0000
 11
66.0400
 21
14.3510
 31
0.0000
  0
INSERT
  8
18
  2
ROUNDV
 10
71.1200
 20
27.9400
 30
0.0000
 41
0.7564
 42
0.7564
 43
1.0000
 50
0.0000
  0
INSERT
  8
18
  2
ROUNDV
 10
71.1200
 20
27.9400
 30
0.0000
 41
0.7564
 42
0.7564
 43
1.0000
 50
0.0000
  0
INSERT
  8
18
  2
ROUNDV
 10
46.9900
 20
30.4800
 30
0.0000
 41
0.7564
 42
0.7564
 43
1.0000
 50
0.0000
  0
INSERT
  8
18
  2
ROUNDV
 10
46.9900
 20
30.4800
 30
0.0000
 41
0.7564
 42
0.7564
 43
1.0000
 50
0.0000
  0
LINE
  8
16
 10
73.6600
 20
29.2100
 30
0.0000
 11
72.3900
 21
30.4800
 31
0.0000
  0
LINE
  8
16
 10
52.0700
 20
30.4800
 30
0.0000
 11
49.5300
 21
27.9400
 31
0.0000
  0
LINE
  8
16
 10
49.5300
 20
27.9400
 30
0.0000
 11
49.5300
 21
24.1520
 31
0.0000
  0
LINE
  8
16
 10
49.5300
 20
24.1520
 30
0.0000
 11
49.5630
 21
24.1190
 31
0.0000
  0
LINE
  8
16
 10
72.3900
 20
30.4800
 30
0.0000
 11
52.0700
 21
30.4800
 31
0.0000
  0
LINE
  8
16
 10
68.5800
 20
13.9700
 30
0.0000
 11
73.6600
 21
19.0500
 31
0.0000
  0
LINE
  8
16
 10
68.5800
 20
10.1600
 30
0.0000
 11
68.5800
 21
13.9700
 31
0.0000
  0
LINE
  8
16
 10
73.6600
 20
19.0500
 30
0.0000
 11
73.6600
 21
29.2100
 31
0.0000
  0
LINE
  8
16
 10
43.1800
 20
10.1600
 30
0.0000
 11
43.1800
 21
11.4300
 31
0.0000
  0
LINE
  8
16
 10
43.1800
 20
11.4300
 30
0.0000
 11
41.9100
 21
12.7000
 31
0.0000
  0
LINE
  8
16
 10
41.9100
 20
12.7000
 30
0.0000
 11
29.2100
 21
12.7000
 31
0.0000
  0
LINE
  8
16
 10
29.2430
 20
21.5790
 30
0.0000
 11
29.2430
 21
17.8130
 31
0.0000
  0
LINE
  8
16
 10
29.2430
 20
17.8130
 30
0.0000
 11
29.2100
 21
17.7800
 31
0.0000
  0
LINE
  8
1
 10
29.2100
 20
17.7800
 30
0.0000
 11
29.2100
 21
12.7000
 31
0.0000
  0
LINE
  8
16
 10
48.2600
 20
7.6200
 30
0.0000
 11
48.2600
 21
2.7940
 31
0.0000
  0
LINE
  8
1
 10
48.2600
 20
2.7940
 30
0.0000
 11
32.7660
 21
2.7940
 31
0.0000
  0
LINE
  8
1
 10
32.7660
 20
2.7940
 30
0.0000
 11
29.2100
 21
6.3500
 31
0.0000
  0
LINE
  8
1
 10
29.2100
 20
6.3500
 30
0.0000
 11
29.2100
 21
12.7000
 31
0.0000
  0
LINE
  8
1
 10
29.2100
 20
17.7800
 30
0.0000
 11
17.7800
 21
17.7800
 31
0.0000
  0
LINE
  8
1
 10
17.7800
 20
17.7800
 30
0.0000
 11
16.5100
 21
19.0500
 31
0.0000
  0
LINE
  8
1
 10
16.5100
 20
26.6700
 30
0.0000
 11
17.7800
 21
27.9400
 31
0.0000
  0
LINE
  8
1
 10
17.7800
 20
27.9400
 30
0.0000
 11
24.1300
 21
27.9400
 31
0.0000
  0
LINE
  8
16
 10
24.1300
 20
27.9400
 30
0.0000
 11
24.1630
 21
27.9070
 31
0.0000
  0
LINE
  8
16
 10
24.1630
 20
27.9070
 30
0.0000
 11
24.1630
 21
24.1190
 31
0.0000
  0
LINE
  8
1
 10
16.5100
 20
19.0500
 30
0.0000
 11
16.5100
 21
26.6700
 31
0.0000
  0
LINE
  8
16
 10
41.9430
 20
24.1190
 30
0.0000
 11
41.9100
 21
24.1520
 31
0.0000
  0
LINE
  8
16
 10
41.9100
 20
24.1520
 30
0.0000
 11
41.9100
 21
26.6700
 31
0.0000
  0
LINE
  8
16
 10
41.9100
 20
26.6700
 30
0.0000
 11
40.6400
 21
27.9400
 31
0.0000
  0
LINE
  8
16
 10
40.6400
 20
27.9400
 30
0.0000
 11
35.5600
 21
27.9400
 31
0.0000
  0
LINE
  8
16
 10
35.5600
 20
27.9400
 30
0.0000
 11
34.2900
 21
26.6700
 31
0.0000
  0
LINE
  8
16
 10
34.2900
 20
26.6700
 30
0.0000
 11
34.2900
 21
24.1520
 31
0.0000
  0
LINE
  8
16
 10
34.2900
 20
24.1520
 30
0.0000
 11
34.3230
 21
24.1190
 31
0.0000
  0
LINE
  8
16
 10
33.0420
 20
27.9400
 30
0.0000
 11
34.3230
 21
26.6590
 31
0.0000
  0
LINE
  8
16
 10
34.3230
 20
24.1190
 30
0.0000
 11
34.3230
 21
26.6590
 31
0.0000
  0
LINE
  8
16
 10
33.0420
 20
27.9400
 30
0.0000
 11
24.1300
 21
27.9400
 31
0.0000
  0
LINE
  8
16
 10
60.9600
 20
10.1600
 30
0.0000
 11
60.9600
 21
12.7000
 31
0.0000
  0
LINE
  8
16
 10
60.9600
 20
12.7000
 30
0.0000
 11
62.2300
 21
13.9700
 31
0.0000
  0
LINE
  8
16
 10
62.2300
 20
13.9700
 30
0.0000
 11
62.2300
 21
16.5100
 31
0.0000
  0
LINE
  8
16
 10
62.2300
 20
16.5100
 30
0.0000
 11
63.5000
 21
17.7800
 31
0.0000
  0
LINE
  8
16
 10
63.5000
 20
17.7800
 30
0.0000
 11
66.0400
 21
17.7800
 31
0.0000
  0
LINE
  8
16
 10
67.3430
 20
19.0830
 30
0.0000
 11
67.3430
 21
21.5790
 31
0.0000
  0
LINE
  8
16
 10
66.0400
 20
17.7800
 30
0.0000
 11
67.3430
 21
19.0830
 31
0.0000
  0
INSERT
  8
18
  2
ROUNDV
 10
29.2100
 20
12.7000
 30
0.0000
 41
0.7564
 42
0.7564
 43
1.0000
 50
0.0000
  0
INSERT
  8
18
  2
ROUNDV
 10
29.2100
 20
12.7000
 30
0.0000
 41
0.7564
 42
0.7564
 43
1.0000
 50
0.0000
  0
INSERT
  8
18
  2
ROUNDV
 10
29.2100
 20
17.7800
 30
0.0000
 41
0.7564
 42
0.7564
 43
1.0000
 50
0.0000
  0
INSERT
  8
18
  2
ROUNDV
 10
29.2100
 20
17.7800
 30
0.0000
 41
0.7564
 42
0.7564
 43
1.0000
 50
0.0000
  0
INSERT
  8
18
  2
ROUNDV
 10
48.2600
 20
2.7940
 30
0.0000
 41
0.7564
 42
0.7564
 43
1.0000
 50
0.0000
  0
INSERT
  8
18
  2
ROUNDV
 10
48.2600
 20
2.7940
 30
0.0000
 41
0.7564
 42
0.7564
 43
1.0000
 50
0.0000
  0
INSERT
  8
18
  2
ROUNDV
 10
24.1300
 20
27.9400
 30
0.0000
 41
0.7564
 42
0.7564
 43
1.0000
 50
0.0000
  0
INSERT
  8
18
  2
ROUNDV
 10
24.1300
 20
27.9400
 30
0.0000
 41
0.7564
 42
0.7564
 43
1.0000
 50
0.0000
  0
LINE
  8
16
 10
66.0400
 20
7.6200
 30
0.0000
 11
66.0400
 21
6.3500
 31
0.0000
  0
LINE
  8
16
 10
66.0400
 20
6.3500
 30
0.0000
 11
67.3100
 21
5.0800
 31
0.0000
  0
LINE
  8
16
 10
67.3100
 20
5.0800
 30
0.0000
 11
69.8500
 21
5.0800
 31
0.0000
  0
LINE
  8
16
 10
69.8500
 20
5.0800
 30
0.0000
 11
71.1200
 21
6.3500
 31
0.0000
  0
LINE
  8
16
 10
71.1200
 20
6.3500
 30
0.0000
 11
71.1200
 21
12.7000
 31
0.0000
  0
LINE
  8
16
 10
47.0230
 20
21.5570
 30
0.0000
 11
47.0230
 21
21.5790
 31
0.0000
  0
LINE
  8
16
 10
47.0230
 20
21.5790
 30
0.0000
 11
47.0230
 21
20.3530
 31
0.0000
  0
LINE
  8
16
 10
44.4500
 20
17.7800
 30
0.0000
 11
44.4500
 21
15.2400
 31
0.0000
  0
LINE
  8
1
 10
44.4500
 20
15.2400
 30
0.0000
 11
44.4500
 21
13.9700
 31
0.0000
  0
LINE
  8
1
 10
44.4500
 20
13.9700
 30
0.0000
 11
46.2280
 21
12.1920
 31
0.0000
  0
LINE
  8
1
 10
54.1020
 20
12.1920
 30
0.0000
 11
46.2280
 21
12.1920
 31
0.0000
  0
LINE
  8
16
 10
47.0230
 20
20.3530
 30
0.0000
 11
44.4500
 21
17.7800
 31
0.0000
  0
LINE
  8
1
 10
54.6100
 20
12.7000
 30
0.0000
 11
54.1020
 21
12.1920
 31
0.0000
  0
LINE
  8
1
 10
71.1200
 20
12.7000
 30
0.0000
 11
54.6100
 21
12.7000
 31
0.0000
  0
INSERT
  8
18
  2
ROUNDV
 10
71.1200
 20
12.7000
 30
0.0000
 41
0.7564
 42
0.7564
 43
1.0000
 50
0.0000
  0
INSERT
  8
18
  2
ROUNDV
 10
71.1200
 20
12.7000
 30
0.0000
 41
0.7564
 42
0.7564
 43
1.0000
 50
0.0000
  0
INSERT
  8
18
  2
ROUNDV
 10
44.4500
 20
15.2400
 30
0.0000
 41
0.7564
 42
0.7564
 43
1.0000
 50
0.0000
  0
INSERT
  8
18
  2
ROUNDV
 10
44.4500
 20
15.2400
 30
0.0000
 41
0.7564
 42
0.7564
 43
1.0000
 50
0.0000
  0
LINE
  8
16
 10
41.9430
 20
21.5790
 30
0.0000
 11
41.9430
 21
17.8130
 31
0.0000
  0
LINE
  8
16
 10
41.9430
 20
17.8130
 30
0.0000
 11
39.3700
 21
15.2400
 31
0.0000
  0
LINE
  8
16
 10
60.9600
 20
7.6200
 30
0.0000
 11
60.9600
 21
3.8100
 31
0.0000
  0
LINE
  8
1
 10
36.8300
 20
5.0800
 30
0.0000
 11
35.5600
 21
6.3500
 31
0.0000
  0
LINE
  8
1
 10
35.5600
 20
6.3500
 30
0.0000
 11
35.5600
 21
11.4300
 31
0.0000
  0
LINE
  8
1
 10
35.5600
 20
11.4300
 30
0.0000
 11
39.3700
 21
15.2400
 31
0.0000
  0
LINE
  8
1
 10
60.9600
 20
3.8100
 30
0.0000
 11
59.6900
 21
5.0800
 31
0.0000
  0
LINE
  8
1
 10
36.8300
 20
5.0800
 30
0.0000
 11
59.6900
 21
5.0800
 31
0.0000
  0
INSERT
  8
18
  2
ROUNDV
 10
39.3700
 20
15.2400
 30
0.0000
 41
0.7564
 42
0.7564
 43
1.0000
 50
0.0000
  0
INSERT
  8
18
  2
ROUNDV
 10
39.3700
 20
15.2400
 30
0.0000
 41
0.7564
 42
0.7564
 43
1.0000
 50
0.0000
  0
INSERT
  8
18
  2
ROUNDV
 10
60.9600
 20
3.8100
 30
0.0000
 41
0.7564
 42
0.7564
 43
1.0000
 50
0.0000
  0
INSERT
  8
18
  2
ROUNDV
 10
60.9600
 20
3.8100
 30
0.0000
 41
0.7564
 42
0.7564
 43
1.0000
 50
0.0000
  0
LINE
  8
16
 10
63.5000
 20
7.6200
 30
0.0000
 11
63.5000
 21
6.3500
 31
0.0000
  0
LINE
  8
16
 10
63.5000
 20
6.3500
 30
0.0000
 11
66.0400
 21
3.8100
 31
0.0000
  0
LINE
  8
16
 10
66.0400
 20
3.8100
 30
0.0000
 11
69.8500
 21
3.8100
 31
0.0000
  0
LINE
  8
16
 10
69.8500
 20
3.8100
 30
0.0000
 11
73.6600
 21
7.6200
 31
0.0000
  0
LINE
  8
16
 10
73.6600
 20
7.6200
 30
0.0000
 11
73.6600
 21
15.2400
 31
0.0000
  0
LINE
  8
1
 10
73.6600
 20
15.2400
 30
0.0000
 11
58.4200
 21
15.2400
 31
0.0000
  0
LINE
  8
16
 10
44.4830
 20
19.0830
 30
0.0000
 11
41.9100
 21
16.5100
 31
0.0000
  0
LINE
  8
16
 10
44.4830
 20
19.0830
 30
0.0000
 11
44.4830
 21
21.5790
 31
0.0000
  0
LINE
  8
16
 10
55.8800
 20
15.2400
 30
0.0000
 11
58.4200
 21
15.2400
 31
0.0000
  0
LINE
  8
16
 10
43.4340
 20
12.4460
 30
0.0000
 11
53.0860
 21
12.4460
 31
0.0000
  0
LINE
  8
16
 10
53.0860
 20
12.4460
 30
0.0000
 11
55.8800
 21
15.2400
 31
0.0000
  0
LINE
  8
16
 10
41.9100
 20
16.5100
 30
0.0000
 11
41.9100
 21
13.9700
 31
0.0000
  0
LINE
  8
16
 10
41.9100
 20
13.9700
 30
0.0000
 11
43.4340
 21
12.4460
 31
0.0000
  0
INSERT
  8
18
  2
ROUNDV
 10
73.6600
 20
15.2400
 30
0.0000
 41
0.7564
 42
0.7564
 43
1.0000
 50
0.0000
  0
INSERT
  8
18
  2
ROUNDV
 10
73.6600
 20
15.2400
 30
0.0000
 41
0.7564
 42
0.7564
 43
1.0000
 50
0.0000
  0
INSERT
  8
18
  2
ROUNDV
 10
58.4200
 20
15.2400
 30
0.0000
 41
0.7564
 42
0.7564
 43
1.0000
 50
0.0000
  0
INSERT
  8
18
  2
ROUNDV
 10
58.4200
 20
15.2400
 30
0.0000
 41
0.7564
 42
0.7564
 43
1.0000
 50
0.0000
  0
LINE
  8
16
 10
67.3100
 20
27.9400
 30
0.0000
 11
69.8500
 21
25.4000
 31
0.0000
  0
LINE
  8
16
 10
67.3100
 20
27.9400
 30
0.0000
 11
55.8800
 21
27.9400
 31
0.0000
  0
LINE
  8
1
 10
55.8800
 20
27.9400
 30
0.0000
 11
44.4500
 21
27.9400
 31
0.0000
  0
LINE
  8
16
 10
44.4500
 20
27.9400
 30
0.0000
 11
44.4830
 21
27.9070
 31
0.0000
  0
LINE
  8
16
 10
44.4830
 20
27.9070
 30
0.0000
 11
44.4830
 21
24.1190
 31
0.0000
  0
LINE
  8
16
 10
64.7446
 20
14.8786
 30
0.0000
 11
69.8500
 21
19.9840
 31
0.0000
  0
LINE
  8
16
 10
69.8500
 20
25.4000
 30
0.0000
 11
69.8500
 21
19.9840
 31
0.0000
  0
LINE
  8
16
 10
63.5000
 20
10.1600
 30
0.0000
 11
63.5000
 21
11.4300
 31
0.0000
  0
LINE
  8
16
 10
63.5000
 20
11.4300
 30
0.0000
 11
64.7700
 21
12.7000
 31
0.0000
  0
LINE
  8
16
 10
64.7700
 20
12.7000
 30
0.0000
 11
64.7700
 21
14.8532
 31
0.0000
  0
LINE
  8
16
 10
64.7700
 20
14.8532
 30
0.0000
 11
64.7446
 21
14.8786
 31
0.0000
  0
INSERT
  8
18
  2
ROUNDV
 10
55.8800
 20
27.9400
 30
0.0000
 41
0.7564
 42
0.7564
 43
1.0000
 50
0.0000
  0
INSERT
  8
18
  2
ROUNDV
 10
55.8800
 20
27.9400
 30
0.0000
 41
0.7564
 42
0.7564
 43
1.0000
 50
0.0000
  0
INSERT
  8
18
  2
ROUNDV
 10
44.4500
 20
27.9400
 30
0.0000
 41
0.7564
 42
0.7564
 43
1.0000
 50
0.0000
  0
INSERT
  8
18
  2
ROUNDV
 10
44.4500
 20
27.9400
 30
0.0000
 41
0.7564
 42
0.7564
 43
1.0000
 50
0.0000
  0
ENDSEC
  0
EOF
