999
dxfrw 0.6.3
  0
SECTION
  2
HEADER
  9
$ACADVER
  1
AC1021
  9
$DWGCODEPAGE
  3
ANSI_1252
  9
$INSBASE
 10
0
 20
0
 30
0
  9
$EXTMIN
 10
-6.162500000000001
 20
0
 30
0
  9
$EXTMAX
 10
83.23
 20
42.9925
 30
0
  9
$LIMMIN
 10
0
 20
0
  9
$LIMMAX
 10
420
 20
297
  9
$ORTHOMODE
 70
    0
  9
$REGENMODE
 70
    1
  9
$FILLMODE
 70
    0
  9
$QTEXTMODE
 70
    0
  9
$MIRRTEXT
 70
    0
  9
$LTSCALE
 40
1
  9
$ATTMODE
 70
    0
  9
$TEXTSIZE
 40
2.5
  9
$TRACEWID
 40
15.68
  9
$TEXTSTYLE
  7
STANDARD
  9
$CLAYER
  8
0
  9
$CELTYPE
  6
BYLAYER
  9
$CECOLOR
 62
  256
  9
$CELTSCALE
 40
1
  9
$DISPSILH
 70
    0
  9
$DIMSCALE
 40
2.5
  9
$DIMASZ
 40
2.5
  9
$DIMEXO
 40
0.625
  9
$DIMDLI
 40
3.75
  9
$DIMRND
 40
0
  9
$DIMDLE
 40
0
  9
$DIMEXE
 40
1.25
  9
$DIMTP
 40
0
  9
$DIMTM
 40
0
  9
$DIMTXT
 40
2.5
  9
$DIMCEN
 40
2.5
  9
$DIMTSZ
 40
0
  9
$DIMTOL
 70
    0
  9
$DIMLIM
 70
    0
  9
$DIMTIH
 70
    0
  9
$DIMTOH
 70
    0
  9
$DIMSE1
 70
    0
  9
$DIMSE2
 70
    0
  9
$DIMTAD
 70
    1
  9
$DIMZIN
 70
    8
  9
$DIMBLK
  1

  9
$DIMASO
 70
    1
  9
$DIMSHO
 70
    1
  9
$DIMPOST
  1

  9
$DIMAPOST
  1

  9
$DIMALT
 70
    0
  9
$DIMALTD
 70
    3
  9
$DIMALTF
 40
0.03937
  9
$DIMLFAC
 40
1
  9
$DIMTOFL
 70
    1
  9
$DIMTVP
 40
0
  9
$DIMTIX
 70
    0
  9
$DIMSOXD
 70
    0
  9
$DIMSAH
 70
    0
  9
$DIMBLK1
  1

  9
$DIMBLK2
  1

  9
$DIMSTYLE
  2
STANDARD
  9
$DIMCLRD
 70
    0
  9
$DIMCLRE
 70
    0
  9
$DIMCLRT
 70
    0
  9
$DIMTFAC
 40
1
  9
$DIMGAP
 40
0.625
  9
$DIMJUST
 70
    0
  9
$DIMSD1
 70
    0
  9
$DIMSD2
 70
    0
  9
$DIMTOLJ
 70
    0
  9
$DIMTZIN
 70
    8
  9
$DIMALTZ
 70
    0
  9
$DIMALTTZ
 70
    0
  9
$DIMUPT
 70
    0
  9
$DIMDEC
 70
    2
  9
$DIMTDEC
 70
    2
  9
$DIMALTU
 70
    2
  9
$DIMALTTD
 70
    3
  9
$DIMTXSTY
  7
STANDARD
  9
$DIMAUNIT
 70
    0
  9
$DIMADEC
 70
    0
  9
$DIMALTRND
 40
0
  9
$DIMAZIN
 70
    0
  9
$DIMDSEP
 70
   44
  9
$DIMATFIT
 70
    3
  9
$DIMFRAC
 70
    0
  9
$DIMLDRBLK
  1
STANDARD
  9
$DIMLUNIT
 70
    2
  9
$DIMLWD
 70
   -2
  9
$DIMLWE
 70
   -2
  9
$DIMTMOVE
 70
    0
  9
$DIMFXL
 40
1
  9
$DIMFXLON
 70
    0
  9
$DIMJOGANG
 40
0.7854
  9
$DIMTFILL
 70
    0
  9
$DIMTFILLCLR
 70
    0
  9
$DIMARCSYM
 70
    0
  9
$DIMLTYPE
  6

  9
$DIMLTEX1
  6

  9
$DIMLTEX2
  6

  9
$LUNITS
 70
    2
  9
$LUPREC
 70
    4
  9
$SKETCHINC
 40
1
  9
$FILLETRAD
 40
0
  9
$AUNITS
 70
    0
  9
$AUPREC
 70
    2
  9
$MENU
  1
.
  9
$ELEVATION
 40
0
  9
$PELEVATION
 40
0
  9
$THICKNESS
 40
0
  9
$LIMCHECK
 70
    0
  9
$CHAMFERA
 40
0
  9
$CHAMFERB
 40
0
  9
$CHAMFERC
 40
0
  9
$CHAMFERD
 40
0
  9
$SKPOLY
 70
    0
  9
$USRTIMER
 70
    1
  9
$ANGBASE
 50
0
  9
$ANGDIR
 70
    0
  9
$PDMODE
 70
   34
  9
$PDSIZE
 40
0
  9
$PLINEWID
 40
0
  9
$SPLFRAME
 70
    0
  9
$SPLINETYPE
 70
    2
  9
$SPLINESEGS
 70
    8
  9
$HANDSEED
  5
20000
  9
$SURFTAB1
 70
    6
  9
$SURFTAB2
 70
    6
  9
$SURFTYPE
 70
    6
  9
$SURFU
 70
    6
  9
$SURFV
 70
    6
  9
$UCSBASE
  2

  9
$UCSNAME
  2

  9
$UCSORG
 10
0
 20
0
 30
0
  9
$UCSXDIR
 10
1
 20
0
 30
0
  9
$UCSYDIR
 10
0
 20
1
 30
0
  9
$UCSORTHOREF
  2

  9
$UCSORTHOVIEW
 70
    0
  9
$UCSORGTOP
 10
0
 20
0
 30
0
  9
$UCSORGBOTTOM
 10
0
 20
0
 30
0
  9
$UCSORGLEFT
 10
0
 20
0
 30
0
  9
$UCSORGRIGHT
 10
0
 20
0
 30
0
  9
$UCSORGFRONT
 10
0
 20
0
 30
0
  9
$UCSORGBACK
 10
0
 20
0
 30
0
  9
$PUCSBASE
  2

  9
$PUCSNAME
  2

  9
$PUCSORG
 10
0
 20
0
 30
0
  9
$PUCSXDIR
 10
1
 20
0
 30
0
  9
$PUCSYDIR
 10
0
 20
1
 30
0
  9
$PUCSORTHOREF
  2

  9
$PUCSORTHOVIEW
 70
    0
  9
$PUCSORGTOP
 10
0
 20
0
 30
0
  9
$PUCSORGBOTTOM
 10
0
 20
0
 30
0
  9
$PUCSORGLEFT
 10
0
 20
0
 30
0
  9
$PUCSORGRIGHT
 10
0
 20
0
 30
0
  9
$PUCSORGFRONT
 10
0
 20
0
 30
0
  9
$PUCSORGBACK
 10
0
 20
0
 30
0
  9
$USERI1
 70
    0
  9
$USERI2
 70
    0
  9
$USERI3
 70
    0
  9
$USERI4
 70
    0
  9
$USERI5
 70
    0
  9
$USERR1
 40
0
  9
$USERR2
 40
0
  9
$USERR3
 40
0
  9
$USERR4
 40
0
  9
$USERR5
 40
0
  9
$WORLDVIEW
 70
    1
  9
$SHADEDGE
 70
    3
  9
$SHADEDIF
 70
   70
  9
$TILEMODE
 70
    1
  9
$MAXACTVP
 70
   64
  9
$PINSBASE
 10
0
 20
0
 30
0
  9
$PLIMCHECK
 70
    0
  9
$PEXTMIN
 10
0
 20
0
 30
0
  9
$PEXTMAX
 10
0
 20
0
 30
0
  9
$SNAPSTYLE
 70
    0
  9
$PLIMMIN
 10
0
 20
0
  9
$PLIMMAX
 10
297
 20
210
  9
$UNITMODE
 70
    0
  9
$VISRETAIN
 70
    1
  9
$PLINEGEN
 70
    0
  9
$PSLTSCALE
 70
    1
  9
$TREEDEPTH
 70
 3020
  9
$CMLSTYLE
  2
Standard
  9
$CMLJUST
 70
    0
  9
$CMLSCALE
 40
20
  9
$PROXYGRAPHICS
 70
    1
  9
$MEASUREMENT
 70
    1
  9
$CELWEIGHT
370
   -1
  9
$ENDCAPS
280
    0
  9
$JOINSTYLE
280
    0
  9
$LWDISPLAY
290
    0
  9
$INSUNITS
 70
    4
  9
$HYPERLINKBASE
  1

  9
$STYLESHEET
  1

  9
$XEDIT
290
    1
  9
$CEPSNTYPE
380
    0
  9
$PSTYLEMODE
290
    1
  9
$EXTNAMES
290
    1
  9
$PSVPSCALE
 40
0
  9
$OLESTARTUP
290
    0
  9
$SORTENTS
280
  127
  9
$INDEXCTL
280
    0
  9
$HIDETEXT
280
    1
  9
$XCLIPFRAME
290
    0
  9
$HALOGAP
280
    0
  9
$OBSCOLOR
 70
  257
  9
$OBSLTYPE
280
    0
  9
$INTERSECTIONDISPLAY
280
    0
  9
$INTERSECTIONCOLOR
 70
  257
  9
$DIMASSOC
280
    1
  9
$PROJECTNAME
  1

  9
$CAMERADISPLAY
290
    0
  9
$LENSLENGTH
 40
50
  9
$CAMERAHEIGHT
 40
0
  9
$STEPSPERSEC
 40
2
  9
$STEPSIZE
 40
50
  9
$3DDWFPREC
 40
2
  9
$PSOLWIDTH
 40
5
  9
$PSOLHEIGHT
 40
80
  9
$LOFTANG1
 40
1.570796326794897
  9
$LOFTANG2
 40
1.570796326794897
  9
$LOFTMAG1
 40
0
  9
$LOFTMAG2
 40
0
  9
$LOFTPARAM
 70
    7
  9
$LOFTNORMALS
280
    1
  9
$LATITUDE
 40
1
  9
$LONGITUDE
 40
1
  9
$NORTHDIRECTION
 40
0
  9
$TIMEZONE
 70
-8000
  9
$LIGHTGLYPHDISPLAY
280
    1
  9
$TILEMODELIGHTSYNCH
280
    1
  9
$SOLIDHIST
280
    1
  9
$SHOWHIST
280
    1
  9
$DWFFRAME
280
    2
  9
$DGNFRAME
280
    0
  9
$REALWORLDSCALE
290
    1
  9
$INTERFERECOLOR
 62
    1
  9
$CSHADOW
280
    0
  9
$SHADOWPLANELOCATION
 40
0
  0
ENDSEC
  0
SECTION
  2
CLASSES
  0
ENDSEC
  0
SECTION
  2
TABLES
  0
TABLE
  2
VPORT
  5
8
330
0
100
AcDbSymbolTable
 70
    1
  0
VPORT
  5
31
330
2
100
AcDbSymbolTableRecord
100
AcDbViewportTableRecord
  2
*ACTIVE
 70
    0
 10
0
 20
0
 11
1
 21
1
 12
88.17775871080138
 22
27.9701968641115
 13
0
 23
0
 14
10
 24
10
 15
10
 25
10
 16
0
 26
0
 36
1
 17
0
 27
0
 37
0
 40
67.09109581881533
 41
2.728876508820798
 42
50
 43
0
 44
0
 50
0
 51
0
 71
    0
 72
  100
 73
    1
 74
    3
 75
    0
 76
    1
 77
    0
 78
    0
281
    0
 65
    1
110
0
120
0
130
0
111
1
121
0
131
0
112
0
122
1
132
0
 79
    0
146
0
348
10020
 60
    7
 61
    5
292
1
282
    1
141
0
142
0
 63
  250
421
3358443
  0
ENDTAB
  0
TABLE
  2
LTYPE
  5
5
330
0
100
AcDbSymbolTable
 70
    4
  0
LTYPE
  5
14
330
5
100
AcDbSymbolTableRecord
100
AcDbLinetypeTableRecord
  2
ByBlock
 70
    0
  3

 72
   65
 73
    0
 40
0
  0
LTYPE
  5
15
330
5
100
AcDbSymbolTableRecord
100
AcDbLinetypeTableRecord
  2
ByLayer
 70
    0
  3

 72
   65
 73
    0
 40
0
  0
LTYPE
  5
16
330
5
100
AcDbSymbolTableRecord
100
AcDbLinetypeTableRecord
  2
Continuous
 70
    0
  3
Solid line
 72
   65
 73
    0
 40
0
  0
LTYPE
  5
32
330
5
100
AcDbSymbolTableRecord
100
AcDbLinetypeTableRecord
  2
DOT
 70
    0
  3
Dot . . . . . . . . . . . . . . . . . . . . . .
 72
   65
 73
    2
 40
6.35
 49
0
 74
    0
 49
-6.35
 74
    0
  0
LTYPE
  5
33
330
5
100
AcDbSymbolTableRecord
100
AcDbLinetypeTableRecord
  2
DOTTINY
 70
    0
  3
Dot (.15x) .....................................
 72
   65
 73
    2
 40
0.9525
 49
0
 74
    0
 49
-0.9525
 74
    0
  0
LTYPE
  5
34
330
5
100
AcDbSymbolTableRecord
100
AcDbLinetypeTableRecord
  2
DOT2
 70
    0
  3
Dot (.5x) .....................................
 72
   65
 73
    2
 40
3.175
 49
0
 74
    0
 49
-3.175
 74
    0
  0
LTYPE
  5
35
330
5
100
AcDbSymbolTableRecord
100
AcDbLinetypeTableRecord
  2
DOTX2
 70
    0
  3
Dot (2x) .  .  .  .  .  .  .  .  .  .  .  .  .
 72
   65
 73
    2
 40
12.7
 49
0
 74
    0
 49
-12.7
 74
    0
  0
LTYPE
  5
36
330
5
100
AcDbSymbolTableRecord
100
AcDbLinetypeTableRecord
  2
DASHED
 70
    0
  3
Dashed _ _ _ _ _ _ _ _ _ _ _ _ _ _ _ _ _
 72
   65
 73
    2
 40
19.05
 49
12.7
 74
    0
 49
-6.35
 74
    0
  0
LTYPE
  5
37
330
5
100
AcDbSymbolTableRecord
100
AcDbLinetypeTableRecord
  2
DASHEDTINY
 70
    0
  3
Dashed (.15x) _ _ _ _ _ _ _ _ _ _ _ _ _ _ _ _ _
 72
   65
 73
    2
 40
2.8575
 49
1.905
 74
    0
 49
-0.9525
 74
    0
  0
LTYPE
  5
38
330
5
100
AcDbSymbolTableRecord
100
AcDbLinetypeTableRecord
  2
DASHED2
 70
    0
  3
Dashed (.5x) _ _ _ _ _ _ _ _ _ _ _ _ _ _ _ _ _
 72
   65
 73
    2
 40
9.524999999999999
 49
6.35
 74
    0
 49
-3.175
 74
    0
  0
LTYPE
  5
39
330
5
100
AcDbSymbolTableRecord
100
AcDbLinetypeTableRecord
  2
DASHEDX2
 70
    0
  3
Dashed (2x) ____  ____  ____  ____  ____  ___
 72
   65
 73
    2
 40
38.09999999999999
 49
25.4
 74
    0
 49
-12.7
 74
    0
  0
LTYPE
  5
3A
330
5
100
AcDbSymbolTableRecord
100
AcDbLinetypeTableRecord
  2
DASHDOT
 70
    0
  3
Dash dot __ . __ . __ . __ . __ . __ . __ . __
 72
   65
 73
    4
 40
25.4
 49
12.7
 74
    0
 49
-6.35
 74
    0
 49
0
 74
    0
 49
-6.35
 74
    0
  0
LTYPE
  5
3B
330
5
100
AcDbSymbolTableRecord
100
AcDbLinetypeTableRecord
  2
DASHDOTTINY
 70
    0
  3
Dash dot (.15x) _._._._._._._._._._._._._._._.
 72
   65
 73
    4
 40
3.81
 49
1.905
 74
    0
 49
-0.9525
 74
    0
 49
0
 74
    0
 49
-0.9525
 74
    0
  0
LTYPE
  5
3C
330
5
100
AcDbSymbolTableRecord
100
AcDbLinetypeTableRecord
  2
DASHDOT2
 70
    0
  3
Dash dot (.5x) _._._._._._._._._._._._._._._.
 72
   65
 73
    4
 40
12.7
 49
6.35
 74
    0
 49
-3.175
 74
    0
 49
0
 74
    0
 49
-3.175
 74
    0
  0
LTYPE
  5
3D
330
5
100
AcDbSymbolTableRecord
100
AcDbLinetypeTableRecord
  2
DASHDOTX2
 70
    0
  3
Dash dot (2x) ____  .  ____  .  ____  .  ___
 72
   65
 73
    4
 40
50.8
 49
25.4
 74
    0
 49
-12.7
 74
    0
 49
0
 74
    0
 49
-12.7
 74
    0
  0
LTYPE
  5
3E
330
5
100
AcDbSymbolTableRecord
100
AcDbLinetypeTableRecord
  2
DIVIDE
 70
    0
  3
Divide ____ . . ____ . . ____ . . ____ . . ____
 72
   65
 73
    6
 40
31.75
 49
12.7
 74
    0
 49
-6.35
 74
    0
 49
0
 74
    0
 49
-6.35
 74
    0
 49
0
 74
    0
 49
-6.35
 74
    0
  0
LTYPE
  5
3F
330
5
100
AcDbSymbolTableRecord
100
AcDbLinetypeTableRecord
  2
DIVIDETINY
 70
    0
  3
Divide (.15x) __..__..__..__..__..__..__..__.._
 72
   65
 73
    6
 40
4.7625
 49
1.905
 74
    0
 49
-0.9525
 74
    0
 49
0
 74
    0
 49
-0.9525
 74
    0
 49
0
 74
    0
 49
-0.9525
 74
    0
  0
LTYPE
  5
40
330
5
100
AcDbSymbolTableRecord
100
AcDbLinetypeTableRecord
  2
DIVIDE2
 70
    0
  3
Divide (.5x) __..__..__..__..__..__..__..__.._
 72
   65
 73
    6
 40
15.875
 49
6.35
 74
    0
 49
-3.175
 74
    0
 49
0
 74
    0
 49
-3.175
 74
    0
 49
0
 74
    0
 49
-3.175
 74
    0
  0
LTYPE
  5
41
330
5
100
AcDbSymbolTableRecord
100
AcDbLinetypeTableRecord
  2
DIVIDEX2
 70
    0
  3
Divide (2x) ________  .  .  ________  .  .  _
 72
   65
 73
    6
 40
63.5
 49
25.4
 74
    0
 49
-12.7
 74
    0
 49
0
 74
    0
 49
-12.7
 74
    0
 49
0
 74
    0
 49
-12.7
 74
    0
  0
LTYPE
  5
42
330
5
100
AcDbSymbolTableRecord
100
AcDbLinetypeTableRecord
  2
BORDER
 70
    0
  3
Border __ __ . __ __ . __ __ . __ __ . __ __ .
 72
   65
 73
    6
 40
44.45
 49
12.7
 74
    0
 49
-6.35
 74
    0
 49
12.7
 74
    0
 49
-6.35
 74
    0
 49
0
 74
    0
 49
-6.35
 74
    0
  0
LTYPE
  5
43
330
5
100
AcDbSymbolTableRecord
100
AcDbLinetypeTableRecord
  2
BORDERTINY
 70
    0
  3
Border (.15x) __.__.__.__.__.__.__.__.__.__.__.
 72
   65
 73
    6
 40
6.6675
 49
1.905
 74
    0
 49
-0.9525
 74
    0
 49
1.905
 74
    0
 49
-0.9525
 74
    0
 49
0
 74
    0
 49
-0.9525
 74
    0
  0
LTYPE
  5
44
330
5
100
AcDbSymbolTableRecord
100
AcDbLinetypeTableRecord
  2
BORDER2
 70
    0
  3
Border (.5x) __.__.__.__.__.__.__.__.__.__.__.
 72
   65
 73
    6
 40
22.225
 49
6.35
 74
    0
 49
-3.175
 74
    0
 49
6.35
 74
    0
 49
-3.175
 74
    0
 49
0
 74
    0
 49
-3.175
 74
    0
  0
LTYPE
  5
45
330
5
100
AcDbSymbolTableRecord
100
AcDbLinetypeTableRecord
  2
BORDERX2
 70
    0
  3
Border (2x) ____  ____  .  ____  ____  .  ___
 72
   65
 73
    6
 40
88.89999999999999
 49
25.4
 74
    0
 49
-12.7
 74
    0
 49
25.4
 74
    0
 49
-12.7
 74
    0
 49
0
 74
    0
 49
-12.7
 74
    0
  0
LTYPE
  5
46
330
5
100
AcDbSymbolTableRecord
100
AcDbLinetypeTableRecord
  2
CENTER
 70
    0
  3
Center ____ _ ____ _ ____ _ ____ _ ____ _ ____
 72
   65
 73
    4
 40
50.8
 49
31.75
 74
    0
 49
-6.35
 74
    0
 49
6.35
 74
    0
 49
-6.35
 74
    0
  0
LTYPE
  5
47
330
5
100
AcDbSymbolTableRecord
100
AcDbLinetypeTableRecord
  2
CENTERTINY
 70
    0
  3
Center (.15x) ___ _ ___ _ ___ _ ___ _ ___ _ ___
 72
   65
 73
    4
 40
7.619999999999999
 49
4.7625
 74
    0
 49
-0.9525
 74
    0
 49
0.9525
 74
    0
 49
-0.9525
 74
    0
  0
LTYPE
  5
48
330
5
100
AcDbSymbolTableRecord
100
AcDbLinetypeTableRecord
  2
CENTER2
 70
    0
  3
Center (.5x) ___ _ ___ _ ___ _ ___ _ ___ _ ___
 72
   65
 73
    4
 40
28.575
 49
19.05
 74
    0
 49
-3.175
 74
    0
 49
3.175
 74
    0
 49
-3.175
 74
    0
  0
LTYPE
  5
49
330
5
100
AcDbSymbolTableRecord
100
AcDbLinetypeTableRecord
  2
CENTERX2
 70
    0
  3
Center (2x) ________  __  ________  __  _____
 72
   65
 73
    4
 40
101.6
 49
63.5
 74
    0
 49
-12.7
 74
    0
 49
12.7
 74
    0
 49
-12.7
 74
    0
  0
ENDTAB
  0
TABLE
  2
LAYER
  5
2
330
0
100
AcDbSymbolTable
 70
    1
  0
LAYER
  5
10
330
2
100
AcDbSymbolTableRecord
100
AcDbLayerTableRecord
  2
0
 70
    0
 62
    7
  6
CONTINUOUS
370
    0
390
F
  0
LAYER
  5
4A
330
2
100
AcDbSymbolTableRecord
100
AcDbLayerTableRecord
  2
1
 70
    0
 62
   12
  6
CONTINUOUS
370
   -3
390
F
  0
LAYER
  5
4B
330
2
100
AcDbSymbolTableRecord
100
AcDbLayerTableRecord
  2
16
 70
    0
 62
  132
  6
CONTINUOUS
370
   -3
390
F
  0
LAYER
  5
4C
330
2
100
AcDbSymbolTableRecord
100
AcDbLayerTableRecord
  2
17
 70
    0
 62
  110
  6
CONTINUOUS
370
   -3
390
F
  0
LAYER
  5
4D
330
2
100
AcDbSymbolTableRecord
100
AcDbLayerTableRecord
  2
18
 70
    0
 62
  110
  6
CONTINUOUS
370
   -3
390
F
  0
LAYER
  5
4E
330
2
100
AcDbSymbolTableRecord
100
AcDbLayerTableRecord
  2
20
 70
    0
 62
   31
  6
CONTINUOUS
370
   -3
390
F
  0
LAYER
  5
4F
330
2
100
AcDbSymbolTableRecord
100
AcDbLayerTableRecord
  2
45
 70
    0
 62
  253
  6
CONTINUOUS
370
   -3
390
F
  0
ENDTAB
  0
TABLE
  2
STYLE
  5
3
330
0
100
AcDbSymbolTable
 70
    3
  0
STYLE
  5
50
330
2
100
AcDbSymbolTableRecord
100
AcDbTextStyleTableRecord
  2
isocp
 70
    0
 40
0
 41
1
 50
0
 71
    0
 42
1
  3
isocp
  4

  0
STYLE
  5
51
330
2
100
AcDbSymbolTableRecord
100
AcDbTextStyleTableRecord
  2
Standard
 70
    0
 40
0
 41
1
 50
0
 71
    0
 42
1
  3
txt
  4

  0
ENDTAB
  0
TABLE
  2
VIEW
  5
6
330
0
100
AcDbSymbolTable
 70
    0
  0
ENDTAB
  0
TABLE
  2
UCS
  5
7
330
0
100
AcDbSymbolTable
 70
    0
  0
ENDTAB
  0
TABLE
  2
APPID
  5
9
330
0
100
AcDbSymbolTable
 70
    1
  0
APPID
  5
12
330
9
100
AcDbSymbolTableRecord
100
AcDbRegAppTableRecord
  2
ACAD
 70
    0
  0
APPID
  5
52
330
9
100
AcDbSymbolTableRecord
100
AcDbRegAppTableRecord
  2
LibreCad
 70
    0
  0
ENDTAB
  0
TABLE
  2
DIMSTYLE
  5
A
330
0
100
AcDbSymbolTable
 70
    1
100
AcDbDimStyleTable
 71
    1
  0
DIMSTYLE
105
53
330
A
100
AcDbSymbolTableRecord
100
AcDbDimStyleTableRecord
  2
Standard
 70
    0
 40
1
 41
2.5
 42
0.625
 43
0.38
 44
1.25
 45
0
 46
0
 47
0
 48
0
 49
1
140
2.5
141
0.09
142
2.5
143
25.4
144
1
145
0
146
1
147
0.625
148
0
 71
    0
 72
    0
 73
    0
 74
    1
 75
    0
 76
    0
 77
    0
 78
    1
 79
    0
170
    0
171
    2
172
    0
173
    0
174
    0
175
    0
176
    0
177
    0
178
    0
179
    0
271
    2
272
    4
273
    2
274
    2
275
    0
276
    0
277
    2
278
    0
279
    0
280
    0
281
    0
282
    0
283
    1
284
    0
285
    0
286
    0
288
    0
289
    3
340
standard
341

371
   -2
372
   -2
  0
ENDTAB
  0
TABLE
  2
BLOCK_RECORD
  5
1
330
0
100
AcDbSymbolTable
 70
    2
  0
BLOCK_RECORD
  5
1F
330
1
100
AcDbSymbolTableRecord
100
AcDbBlockTableRecord
  2
*Model_Space
 70
    0
280
    1
281
    0
  0
BLOCK_RECORD
  5
1E
330
1
100
AcDbSymbolTableRecord
100
AcDbBlockTableRecord
  2
*Paper_Space
 70
    0
280
    1
281
    0
  0
BLOCK_RECORD
  5
54
330
1
100
AcDbSymbolTableRecord
100
AcDbBlockTableRecord
  2
RECT
 70
    0
280
    1
281
    0
  0
BLOCK_RECORD
  5
57
330
1
100
AcDbSymbolTableRecord
100
AcDbBlockTableRecord
  2
PIE
 70
    0
280
    1
281
    0
  0
BLOCK_RECORD
  5
5A
330
1
100
AcDbSymbolTableRecord
100
AcDbBlockTableRecord
  2
OCTAGONP
 70
    0
280
    1
281
    0
  0
BLOCK_RECORD
  5
5D
330
1
100
AcDbSymbolTableRecord
100
AcDbBlockTableRecord
  2
SQUAREP
 70
    0
280
    1
281
    0
  0
BLOCK_RECORD
  5
60
330
1
100
AcDbSymbolTableRecord
100
AcDbBlockTableRecord
  2
ROUNDP
 70
    0
280
    1
281
    0
  0
BLOCK_RECORD
  5
63
330
1
100
AcDbSymbolTableRecord
100
AcDbBlockTableRecord
  2
ANNULUSP
 70
    0
280
    1
281
    0
  0
BLOCK_RECORD
  5
66
330
1
100
AcDbSymbolTableRecord
100
AcDbBlockTableRecord
  2
THERMALP
 70
    0
280
    1
281
    0
  0
BLOCK_RECORD
  5
69
330
1
100
AcDbSymbolTableRecord
100
AcDbBlockTableRecord
  2
OCTAGONV
 70
    0
280
    1
281
    0
  0
BLOCK_RECORD
  5
6C
330
1
100
AcDbSymbolTableRecord
100
AcDbBlockTableRecord
  2
SQUAREV
 70
    0
280
    1
281
    0
  0
BLOCK_RECORD
  5
6F
330
1
100
AcDbSymbolTableRecord
100
AcDbBlockTableRecord
  2
ROUNDV
 70
    0
280
    1
281
    0
  0
BLOCK_RECORD
  5
72
330
1
100
AcDbSymbolTableRecord
100
AcDbBlockTableRecord
  2
ANNULUSV
 70
    0
280
    1
281
    0
  0
BLOCK_RECORD
  5
75
330
1
100
AcDbSymbolTableRecord
100
AcDbBlockTableRecord
  2
THERMALV
 70
    0
280
    1
281
    0
  0
ENDTAB
  0
ENDSEC
  0
SECTION
  2
BLOCKS
  0
BLOCK
  5
20
330
1F
100
AcDbEntity
  8
0
100
AcDbBlockBegin
  2
*Model_Space
 70
    0
 10
0
 20
0
 30
0
  3
*Model_Space
  1

  0
ENDBLK
  5
21
330
1F
100
AcDbEntity
  8
0
100
AcDbBlockEnd
  0
BLOCK
  5
1C
330
1B
100
AcDbEntity
  8
0
100
AcDbBlockBegin
  2
*Paper_Space
 70
    0
 10
0
 20
0
 30
0
  3
*Paper_Space
  1

  0
ENDBLK
  5
1D
330
1F
100
AcDbEntity
  8
0
100
AcDbBlockEnd
  0
BLOCK
  5
55
330
54
100
AcDbEntity
  8
0
100
AcDbBlockBegin
  2
RECT
 70
    0
 10
0
 20
0
  3
RECT
  1

  0
SOLID
  5
78
100
AcDbEntity
  8
0
  6
ByLayer
 62
  256
370
   -1
100
AcDbTrace
 10
-0.5
 20
-0.5
 30
0
 11
0.5
 21
-0.5
 31
0
 12
-0.5
 22
0.5
 32
0
 13
0.5
 23
0.5
 33
0
  0
ENDBLK
  5
56
330
54
100
AcDbEntity
  8
0
100
AcDbBlockEnd
  0
BLOCK
  5
58
330
57
100
AcDbEntity
  8
0
100
AcDbBlockBegin
  2
PIE
 70
    0
 10
0
 20
0
  3
PIE
  1

  0
CIRCLE
  5
79
100
AcDbEntity
  8
0
  6
ByLayer
 62
  256
370
   -1
100
AcDbCircle
 10
0
 20
0
 40
0.5
  0
ENDBLK
  5
59
330
57
100
AcDbEntity
  8
0
100
AcDbBlockEnd
  0
BLOCK
  5
5B
330
5A
100
AcDbEntity
  8
0
100
AcDbBlockBegin
  2
OCTAGONP
 70
    0
 10
0
 20
0
  3
OCTAGONP
  1

  0
LWPOLYLINE
  5
7A
100
AcDbEntity
  8
0
  6
ByLayer
 62
  256
370
   -1
100
AcDbPolyline
 90
    8
 70
    1
 43
0
 10
-0.5
 20
-0.2071
 10
-0.5
 20
0.2071
 10
-0.2071
 20
0.5
 10
0.2071
 20
0.5
 10
0.5
 20
0.2071
 10
0.5
 20
-0.2071
 10
0.2071
 20
-0.5
 10
-0.2071
 20
-0.5
  0
ENDBLK
  5
5C
330
5A
100
AcDbEntity
  8
0
100
AcDbBlockEnd
  0
BLOCK
  5
5E
330
5D
100
AcDbEntity
  8
0
100
AcDbBlockBegin
  2
SQUAREP
 70
    0
 10
0
 20
0
  3
SQUAREP
  1

  0
SOLID
  5
7B
100
AcDbEntity
  8
0
  6
ByLayer
 62
  256
370
   -1
100
AcDbTrace
 10
-0.5
 20
-0.5
 30
0
 11
0.5
 21
-0.5
 31
0
 12
-0.5
 22
0.5
 32
0
 13
0.5
 23
0.5
 33
0
  0
ENDBLK
  5
5F
330
5D
100
AcDbEntity
  8
0
100
AcDbBlockEnd
  0
BLOCK
  5
61
330
60
100
AcDbEntity
  8
0
100
AcDbBlockBegin
  2
ROUNDP
 70
    0
 10
0
 20
0
  3
ROUNDP
  1

  0
CIRCLE
  5
7C
100
AcDbEntity
  8
0
  6
ByLayer
 62
  256
370
   -1
100
AcDbCircle
 10
0
 20
0
 40
0.5
  0
ENDBLK
  5
62
330
60
100
AcDbEntity
  8
0
100
AcDbBlockEnd
  0
BLOCK
  5
64
330
63
100
AcDbEntity
  8
0
100
AcDbBlockBegin
  2
ANNULUSP
 70
    0
 10
0
 20
0
  3
ANNULUSP
  1

  0
CIRCLE
  5
7D
100
AcDbEntity
  8
0
  6
ByLayer
 62
  256
370
   -1
100
AcDbCircle
 10
0
 20
0
 40
0.5
  0
ENDBLK
  5
65
330
63
100
AcDbEntity
  8
0
100
AcDbBlockEnd
  0
BLOCK
  5
67
330
66
100
AcDbEntity
  8
0
100
AcDbBlockBegin
  2
THERMALP
 70
    0
 10
0
 20
0
  3
THERMALP
  1

  0
LINE
  5
7E
100
AcDbEntity
  8
0
  6
ByLayer
 62
  256
370
   -1
100
AcDbLine
 10
-0.2379
 20
0.45
 11
0.2379
 21
0.45
  0
LINE
  5
7F
100
AcDbEntity
  8
0
  6
ByLayer
 62
  256
370
   -1
100
AcDbLine
 10
0.45
 20
0.2379
 11
0.45
 21
-0.2379
  0
LINE
  5
80
100
AcDbEntity
  8
0
  6
ByLayer
 62
  256
370
   -1
100
AcDbLine
 10
0.2379
 20
-0.45
 11
-0.2379
 21
-0.45
  0
LINE
  5
81
100
AcDbEntity
  8
0
  6
ByLayer
 62
  256
370
   -1
100
AcDbLine
 10
-0.45
 20
-0.2379
 11
-0.45
 21
0.2379
  0
ENDBLK
  5
68
330
66
100
AcDbEntity
  8
0
100
AcDbBlockEnd
  0
BLOCK
  5
6A
330
69
100
AcDbEntity
  8
0
100
AcDbBlockBegin
  2
OCTAGONV
 70
    0
 10
0
 20
0
  3
OCTAGONV
  1

  0
LWPOLYLINE
  5
82
100
AcDbEntity
  8
0
  6
ByLayer
 62
  256
370
   -1
100
AcDbPolyline
 90
    8
 70
    1
 43
0
 10
-0.5
 20
-0.2071
 10
-0.5
 20
0.2071
 10
-0.2071
 20
0.5
 10
0.2071
 20
0.5
 10
0.5
 20
0.2071
 10
0.5
 20
-0.2071
 10
0.2071
 20
-0.5
 10
-0.2071
 20
-0.5
  0
ENDBLK
  5
6B
330
69
100
AcDbEntity
  8
0
100
AcDbBlockEnd
  0
BLOCK
  5
6D
330
6C
100
AcDbEntity
  8
0
100
AcDbBlockBegin
  2
SQUAREV
 70
    0
 10
0
 20
0
  3
SQUAREV
  1

  0
SOLID
  5
83
100
AcDbEntity
  8
0
  6
ByLayer
 62
  256
370
   -1
100
AcDbTrace
 10
-0.5
 20
-0.5
 30
0
 11
0.5
 21
-0.5
 31
0
 12
-0.5
 22
0.5
 32
0
 13
0.5
 23
0.5
 33
0
  0
ENDBLK
  5
6E
330
6C
100
AcDbEntity
  8
0
100
AcDbBlockEnd
  0
BLOCK
  5
70
330
6F
100
AcDbEntity
  8
0
100
AcDbBlockBegin
  2
ROUNDV
 70
    0
 10
0
 20
0
  3
ROUNDV
  1

  0
CIRCLE
  5
84
100
AcDbEntity
  8
0
  6
ByLayer
 62
  256
370
   -1
100
AcDbCircle
 10
0
 20
0
 40
0.5
  0
ENDBLK
  5
71
330
6F
100
AcDbEntity
  8
0
100
AcDbBlockEnd
  0
BLOCK
  5
73
330
72
100
AcDbEntity
  8
0
100
AcDbBlockBegin
  2
ANNULUSV
 70
    0
 10
0
 20
0
  3
ANNULUSV
  1

  0
CIRCLE
  5
85
100
AcDbEntity
  8
0
  6
ByLayer
 62
  256
370
   -1
100
AcDbCircle
 10
0
 20
0
 40
0.5
  0
ENDBLK
  5
74
330
72
100
AcDbEntity
  8
0
100
AcDbBlockEnd
  0
BLOCK
  5
76
330
75
100
AcDbEntity
  8
0
100
AcDbBlockBegin
  2
THERMALV
 70
    0
 10
0
 20
0
  3
THERMALV
  1

  0
LINE
  5
86
100
AcDbEntity
  8
0
  6
ByLayer
 62
  256
370
   -1
100
AcDbLine
 10
-0.2379
 20
0.45
 11
0.2379
 21
0.45
  0
LINE
  5
87
100
AcDbEntity
  8
0
  6
ByLayer
 62
  256
370
   -1
100
AcDbLine
 10
0.45
 20
0.2379
 11
0.45
 21
-0.2379
  0
LINE
  5
88
100
AcDbEntity
  8
0
  6
ByLayer
 62
  256
370
   -1
100
AcDbLine
 10
0.2379
 20
-0.45
 11
-0.2379
 21
-0.45
  0
LINE
  5
89
100
AcDbEntity
  8
0
  6
ByLayer
 62
  256
370
   -1
100
AcDbLine
 10
-0.45
 20
-0.2379
 11
-0.45
 21
0.2379
  0
ENDBLK
  5
77
330
75
100
AcDbEntity
  8
0
100
AcDbBlockEnd
  0
ENDSEC
  0
SECTION
  2
ENTITIES
  0
LINE
  5
8A
100
AcDbEntity
  8
20
  6
ByLayer
 62
  256
370
   -1
100
AcDbLine
 10
0
 20
0
 11
76.2
 21
0
  0
LINE
  5
8B
100
AcDbEntity
  8
20
  6
ByLayer
 62
  256
370
   -1
100
AcDbLine
 10
76.2
 20
0
 11
76.2
 21
33.02
  0
LINE
  5
8C
100
AcDbEntity
  8
20
  6
ByLayer
 62
  256
370
   -1
100
AcDbLine
 10
76.2
 20
33.02
 11
0
 21
33.02
  0
LINE
  5
8D
100
AcDbEntity
  8
20
  6
ByLayer
 62
  256
370
   -1
100
AcDbLine
 10
0
 20
33.02
 11
0
 21
0
  0
LINE
  5
8E
100
AcDbEntity
  8
20
  6
ByLayer
 62
  256
370
   -1
100
AcDbLine
 10
19.05
 20
16.51
 11
19.05
 21
3.13
  0
LINE
  5
8F
100
AcDbEntity
  8
20
  6
ByLayer
 62
  256
370
   -1
100
AcDbLine
 10
3.81
 20
16.51
 11
3.81
 21
3.13
  0
LINE
  5
90
100
AcDbEntity
  8
20
  6
ByLayer
 62
  256
370
   -1
100
AcDbLine
 10
18.985
 20
5.08
 11
3.875
 21
5.08
  0
LINE
  5
91
100
AcDbEntity
  8
20
  6
ByLayer
 62
  256
370
   -1
100
AcDbLine
 10
18.985
 20
5.08
 11
16.45
 21
5.3992
  0
LINE
  5
92
100
AcDbEntity
  8
20
  6
ByLayer
 62
  256
370
   -1
100
AcDbLine
 10
16.45
 20
5.3992
 11
16.45
 21
4.7608
  0
LINE
  5
93
100
AcDbEntity
  8
20
  6
ByLayer
 62
  256
370
   -1
100
AcDbLine
 10
16.45
 20
4.7608
 11
18.985
 21
5.08
  0
LINE
  5
94
100
AcDbEntity
  8
20
  6
ByLayer
 62
  256
370
   -1
100
AcDbLine
 10
18.985
 20
5.08
 11
16.45
 21
5.21
  0
LINE
  5
95
100
AcDbEntity
  8
20
  6
ByLayer
 62
  256
370
   -1
100
AcDbLine
 10
16.45
 20
4.95
 11
18.985
 21
5.08
  0
LINE
  5
96
100
AcDbEntity
  8
20
  6
ByLayer
 62
  256
370
   -1
100
AcDbLine
 10
18.985
 20
5.08
 11
16.45
 21
5.34
  0
LINE
  5
97
100
AcDbEntity
  8
20
  6
ByLayer
 62
  256
370
   -1
100
AcDbLine
 10
16.45
 20
4.82
 11
18.985
 21
5.08
  0
LINE
  5
98
100
AcDbEntity
  8
20
  6
ByLayer
 62
  256
370
   -1
100
AcDbLine
 10
3.875
 20
5.08
 11
6.41
 21
5.3992
  0
LINE
  5
99
100
AcDbEntity
  8
20
  6
ByLayer
 62
  256
370
   -1
100
AcDbLine
 10
6.41
 20
5.3992
 11
6.41
 21
4.7608
  0
LINE
  5
9A
100
AcDbEntity
  8
20
  6
ByLayer
 62
  256
370
   -1
100
AcDbLine
 10
6.41
 20
4.7608
 11
3.875
 21
5.08
  0
LINE
  5
9B
100
AcDbEntity
  8
20
  6
ByLayer
 62
  256
370
   -1
100
AcDbLine
 10
3.875
 20
5.08
 11
6.41
 21
5.21
  0
LINE
  5
9C
100
AcDbEntity
  8
20
  6
ByLayer
 62
  256
370
   -1
100
AcDbLine
 10
6.41
 20
4.95
 11
3.875
 21
5.08
  0
LINE
  5
9D
100
AcDbEntity
  8
20
  6
ByLayer
 62
  256
370
   -1
100
AcDbLine
 10
3.875
 20
5.08
 11
6.41
 21
5.34
  0
LINE
  5
9E
100
AcDbEntity
  8
20
  6
ByLayer
 62
  256
370
   -1
100
AcDbLine
 10
6.41
 20
4.82
 11
3.875
 21
5.08
  0
TEXT
  5
9F
100
AcDbEntity
  8
20
  6
ByLayer
 62
  256
370
   -1
100
AcDbText
 10
8.2479
 20
5.6545
 30
0
 40
1.778
  1
15.24
 50
0
 41
1
 51
0
  7
isocp
 71
    0
210
0
220
0
230
1
100
AcDbText
  0
LINE
  5
A0
100
AcDbEntity
  8
20
  6
ByLayer
 62
  256
370
   -1
100
AcDbLine
 10
67.31
 20
33.02
 11
67.31
 21
37.51
  0
LINE
  5
A1
100
AcDbEntity
  8
20
  6
ByLayer
 62
  256
370
   -1
100
AcDbLine
 10
49.53
 20
33.02
 11
49.53
 21
37.51
  0
LINE
  5
A2
100
AcDbEntity
  8
20
  6
ByLayer
 62
  256
370
   -1
100
AcDbLine
 10
67.245
 20
35.56
 11
49.595
 21
35.56
  0
LINE
  5
A3
100
AcDbEntity
  8
20
  6
ByLayer
 62
  256
370
   -1
100
AcDbLine
 10
67.245
 20
35.56
 11
64.70999999999999
 21
35.8792
  0
LINE
  5
A4
100
AcDbEntity
  8
20
  6
ByLayer
 62
  256
370
   -1
100
AcDbLine
 10
64.70999999999999
 20
35.8792
 11
64.70999999999999
 21
35.2408
  0
LINE
  5
A5
100
AcDbEntity
  8
20
  6
ByLayer
 62
  256
370
   -1
100
AcDbLine
 10
64.70999999999999
 20
35.2408
 11
67.245
 21
35.56
  0
LINE
  5
A6
100
AcDbEntity
  8
20
  6
ByLayer
 62
  256
370
   -1
100
AcDbLine
 10
67.245
 20
35.56
 11
64.70999999999999
 21
35.69
  0
LINE
  5
A7
100
AcDbEntity
  8
20
  6
ByLayer
 62
  256
370
   -1
100
AcDbLine
 10
64.70999999999999
 20
35.43
 11
67.245
 21
35.56
  0
LINE
  5
A8
100
AcDbEntity
  8
20
  6
ByLayer
 62
  256
370
   -1
100
AcDbLine
 10
67.245
 20
35.56
 11
64.70999999999999
 21
35.82
  0
LINE
  5
A9
100
AcDbEntity
  8
20
  6
ByLayer
 62
  256
370
   -1
100
AcDbLine
 10
64.70999999999999
 20
35.3
 11
67.245
 21
35.56
  0
LINE
  5
AA
100
AcDbEntity
  8
20
  6
ByLayer
 62
  256
370
   -1
100
AcDbLine
 10
49.595
 20
35.56
 11
52.13
 21
35.8792
  0
LINE
  5
AB
100
AcDbEntity
  8
20
  6
ByLayer
 62
  256
370
   -1
100
AcDbLine
 10
52.13
 20
35.8792
 11
52.13
 21
35.2408
  0
LINE
  5
AC
100
AcDbEntity
  8
20
  6
ByLayer
 62
  256
370
   -1
100
AcDbLine
 10
52.13
 20
35.2408
 11
49.595
 21
35.56
  0
LINE
  5
AD
100
AcDbEntity
  8
20
  6
ByLayer
 62
  256
370
   -1
100
AcDbLine
 10
49.595
 20
35.56
 11
52.13
 21
35.69
  0
LINE
  5
AE
100
AcDbEntity
  8
20
  6
ByLayer
 62
  256
370
   -1
100
AcDbLine
 10
52.13
 20
35.43
 11
49.595
 21
35.56
  0
LINE
  5
AF
100
AcDbEntity
  8
20
  6
ByLayer
 62
  256
370
   -1
100
AcDbLine
 10
49.595
 20
35.56
 11
52.13
 21
35.82
  0
LINE
  5
B0
100
AcDbEntity
  8
20
  6
ByLayer
 62
  256
370
   -1
100
AcDbLine
 10
52.13
 20
35.3
 11
49.595
 21
35.56
  0
TEXT
  5
B1
100
AcDbEntity
  8
20
  6
ByLayer
 62
  256
370
   -1
100
AcDbText
 10
55.2379
 20
36.1345
 30
0
 40
1.778
  1
17.78
 50
0
 41
1
 51
0
  7
isocp
 71
    0
210
0
220
0
230
1
100
AcDbText
  0
LINE
  5
B2
100
AcDbEntity
  8
20
  6
ByLayer
 62
  256
370
   -1
100
AcDbLine
 10
0
 20
34.29
 11
0
 21
41.32
  0
LINE
  5
B3
100
AcDbEntity
  8
20
  6
ByLayer
 62
  256
370
   -1
100
AcDbLine
 10
76.2
 20
34.29
 11
76.2
 21
41.32
  0
LINE
  5
B4
100
AcDbEntity
  8
20
  6
ByLayer
 62
  256
370
   -1
100
AcDbLine
 10
0.065
 20
39.37
 11
76.13500000000001
 21
39.37
  0
LINE
  5
B5
100
AcDbEntity
  8
20
  6
ByLayer
 62
  256
370
   -1
100
AcDbLine
 10
0.065
 20
39.37
 11
2.6
 21
39.6892
  0
LINE
  5
B6
100
AcDbEntity
  8
20
  6
ByLayer
 62
  256
370
   -1
100
AcDbLine
 10
2.6
 20
39.6892
 11
2.6
 21
39.0508
  0
LINE
  5
B7
100
AcDbEntity
  8
20
  6
ByLayer
 62
  256
370
   -1
100
AcDbLine
 10
2.6
 20
39.0508
 11
0.065
 21
39.37
  0
LINE
  5
B8
100
AcDbEntity
  8
20
  6
ByLayer
 62
  256
370
   -1
100
AcDbLine
 10
0.065
 20
39.37
 11
2.6
 21
39.5
  0
LINE
  5
B9
100
AcDbEntity
  8
20
  6
ByLayer
 62
  256
370
   -1
100
AcDbLine
 10
2.6
 20
39.24
 11
0.065
 21
39.37
  0
LINE
  5
BA
100
AcDbEntity
  8
20
  6
ByLayer
 62
  256
370
   -1
100
AcDbLine
 10
0.065
 20
39.37
 11
2.6
 21
39.63
  0
LINE
  5
BB
100
AcDbEntity
  8
20
  6
ByLayer
 62
  256
370
   -1
100
AcDbLine
 10
2.6
 20
39.11
 11
0.065
 21
39.37
  0
LINE
  5
BC
100
AcDbEntity
  8
20
  6
ByLayer
 62
  256
370
   -1
100
AcDbLine
 10
76.13500000000001
 20
39.37
 11
73.59999999999999
 21
39.6892
  0
LINE
  5
BD
100
AcDbEntity
  8
20
  6
ByLayer
 62
  256
370
   -1
100
AcDbLine
 10
73.59999999999999
 20
39.6892
 11
73.59999999999999
 21
39.0508
  0
LINE
  5
BE
100
AcDbEntity
  8
20
  6
ByLayer
 62
  256
370
   -1
100
AcDbLine
 10
73.59999999999999
 20
39.0508
 11
76.13500000000001
 21
39.37
  0
LINE
  5
BF
100
AcDbEntity
  8
20
  6
ByLayer
 62
  256
370
   -1
100
AcDbLine
 10
76.13500000000001
 20
39.37
 11
73.59999999999999
 21
39.5
  0
LINE
  5
C0
100
AcDbEntity
  8
20
  6
ByLayer
 62
  256
370
   -1
100
AcDbLine
 10
73.59999999999999
 20
39.24
 11
76.13500000000001
 21
39.37
  0
LINE
  5
C1
100
AcDbEntity
  8
20
  6
ByLayer
 62
  256
370
   -1
100
AcDbLine
 10
76.13500000000001
 20
39.37
 11
73.59999999999999
 21
39.63
  0
LINE
  5
C2
100
AcDbEntity
  8
20
  6
ByLayer
 62
  256
370
   -1
100
AcDbLine
 10
73.59999999999999
 20
39.11
 11
76.13500000000001
 21
39.37
  0
TEXT
  5
C3
100
AcDbEntity
  8
20
  6
ByLayer
 62
  256
370
   -1
100
AcDbText
 10
34.9179
 20
39.9445
 30
0
 40
1.778
  1
76.20
 50
0
 41
1
 51
0
  7
isocp
 71
    0
210
0
220
0
230
1
100
AcDbText
  0
LINE
  5
C4
100
AcDbEntity
  8
20
  6
ByLayer
 62
  256
370
   -1
100
AcDbLine
 10
0
 20
0
 11
-4.49
 21
0
  0
LINE
  5
C5
100
AcDbEntity
  8
20
  6
ByLayer
 62
  256
370
   -1
100
AcDbLine
 10
0
 20
33.02
 11
-4.49
 21
33.02
  0
LINE
  5
C6
100
AcDbEntity
  8
20
  6
ByLayer
 62
  256
370
   -1
100
AcDbLine
 10
-2.54
 20
0.065
 11
-2.54
 21
32.955
  0
LINE
  5
C7
100
AcDbEntity
  8
20
  6
ByLayer
 62
  256
370
   -1
100
AcDbLine
 10
-2.54
 20
0.065
 11
-2.8592
 21
2.6
  0
LINE
  5
C8
100
AcDbEntity
  8
20
  6
ByLayer
 62
  256
370
   -1
100
AcDbLine
 10
-2.8592
 20
2.6
 11
-2.2208
 21
2.6
  0
LINE
  5
C9
100
AcDbEntity
  8
20
  6
ByLayer
 62
  256
370
   -1
100
AcDbLine
 10
-2.2208
 20
2.6
 11
-2.54
 21
0.065
  0
LINE
  5
CA
100
AcDbEntity
  8
20
  6
ByLayer
 62
  256
370
   -1
100
AcDbLine
 10
-2.54
 20
0.065
 11
-2.67
 21
2.6
  0
LINE
  5
CB
100
AcDbEntity
  8
20
  6
ByLayer
 62
  256
370
   -1
100
AcDbLine
 10
-2.41
 20
2.6
 11
-2.54
 21
0.065
  0
LINE
  5
CC
100
AcDbEntity
  8
20
  6
ByLayer
 62
  256
370
   -1
100
AcDbLine
 10
-2.54
 20
0.065
 11
-2.8
 21
2.6
  0
LINE
  5
CD
100
AcDbEntity
  8
20
  6
ByLayer
 62
  256
370
   -1
100
AcDbLine
 10
-2.28
 20
2.6
 11
-2.54
 21
0.065
  0
LINE
  5
CE
100
AcDbEntity
  8
20
  6
ByLayer
 62
  256
370
   -1
100
AcDbLine
 10
-2.54
 20
32.955
 11
-2.8592
 21
30.42
  0
LINE
  5
CF
100
AcDbEntity
  8
20
  6
ByLayer
 62
  256
370
   -1
100
AcDbLine
 10
-2.8592
 20
30.42
 11
-2.2208
 21
30.42
  0
LINE
  5
D0
100
AcDbEntity
  8
20
  6
ByLayer
 62
  256
370
   -1
100
AcDbLine
 10
-2.2208
 20
30.42
 11
-2.54
 21
32.955
  0
LINE
  5
D1
100
AcDbEntity
  8
20
  6
ByLayer
 62
  256
370
   -1
100
AcDbLine
 10
-2.54
 20
32.955
 11
-2.67
 21
30.42
  0
LINE
  5
D2
100
AcDbEntity
  8
20
  6
ByLayer
 62
  256
370
   -1
100
AcDbLine
 10
-2.41
 20
30.42
 11
-2.54
 21
32.955
  0
LINE
  5
D3
100
AcDbEntity
  8
20
  6
ByLayer
 62
  256
370
   -1
100
AcDbLine
 10
-2.54
 20
32.955
 11
-2.8
 21
30.42
  0
LINE
  5
D4
100
AcDbEntity
  8
20
  6
ByLayer
 62
  256
370
   -1
100
AcDbLine
 10
-2.28
 20
30.42
 11
-2.54
 21
32.955
  0
TEXT
  5
D5
100
AcDbEntity
  8
20
  6
ByLayer
 62
  256
370
   -1
100
AcDbText
 10
-3.1145
 20
13.3279
 30
0
 40
1.778
  1
33.02
 50
90
 41
1
 51
0
  7
isocp
 71
    0
210
0
220
0
230
1
100
AcDbText
  0
LINE
  5
D6
100
AcDbEntity
  8
20
  6
ByLayer
 62
  256
370
   -1
100
AcDbLine
 10
3.81
 20
27.94
 11
3.81
 21
24.72
  0
LINE
  5
D7
100
AcDbEntity
  8
20
  6
ByLayer
 62
  256
370
   -1
100
AcDbLine
 10
5.08
 20
27.94
 11
5.08
 21
24.72
  0
LINE
  5
D8
100
AcDbEntity
  8
20
  6
ByLayer
 62
  256
370
   -1
100
AcDbLine
 10
3.745
 20
26.67
 11
-1.39
 21
26.67
  0
LINE
  5
D9
100
AcDbEntity
  8
20
  6
ByLayer
 62
  256
370
   -1
100
AcDbLine
 10
5.145
 20
26.67
 11
12.6339
 21
26.67
  0
LINE
  5
DA
100
AcDbEntity
  8
20
  6
ByLayer
 62
  256
370
   -1
100
AcDbLine
 10
3.745
 20
26.67
 11
1.21
 21
26.9892
  0
LINE
  5
DB
100
AcDbEntity
  8
20
  6
ByLayer
 62
  256
370
   -1
100
AcDbLine
 10
1.21
 20
26.9892
 11
1.21
 21
26.3508
  0
LINE
  5
DC
100
AcDbEntity
  8
20
  6
ByLayer
 62
  256
370
   -1
100
AcDbLine
 10
1.21
 20
26.3508
 11
3.745
 21
26.67
  0
LINE
  5
DD
100
AcDbEntity
  8
20
  6
ByLayer
 62
  256
370
   -1
100
AcDbLine
 10
3.745
 20
26.67
 11
1.21
 21
26.8
  0
LINE
  5
DE
100
AcDbEntity
  8
20
  6
ByLayer
 62
  256
370
   -1
100
AcDbLine
 10
1.21
 20
26.54
 11
3.745
 21
26.67
  0
LINE
  5
DF
100
AcDbEntity
  8
20
  6
ByLayer
 62
  256
370
   -1
100
AcDbLine
 10
3.745
 20
26.67
 11
1.21
 21
26.93
  0
LINE
  5
E0
100
AcDbEntity
  8
20
  6
ByLayer
 62
  256
370
   -1
100
AcDbLine
 10
1.21
 20
26.41
 11
3.745
 21
26.67
  0
LINE
  5
E1
100
AcDbEntity
  8
20
  6
ByLayer
 62
  256
370
   -1
100
AcDbLine
 10
5.145
 20
26.67
 11
7.68
 21
26.9892
  0
LINE
  5
E2
100
AcDbEntity
  8
20
  6
ByLayer
 62
  256
370
   -1
100
AcDbLine
 10
7.68
 20
26.9892
 11
7.68
 21
26.3508
  0
LINE
  5
E3
100
AcDbEntity
  8
20
  6
ByLayer
 62
  256
370
   -1
100
AcDbLine
 10
7.68
 20
26.3508
 11
5.145
 21
26.67
  0
LINE
  5
E4
100
AcDbEntity
  8
20
  6
ByLayer
 62
  256
370
   -1
100
AcDbLine
 10
5.145
 20
26.67
 11
7.68
 21
26.8
  0
LINE
  5
E5
100
AcDbEntity
  8
20
  6
ByLayer
 62
  256
370
   -1
100
AcDbLine
 10
7.68
 20
26.54
 11
5.145
 21
26.67
  0
LINE
  5
E6
100
AcDbEntity
  8
20
  6
ByLayer
 62
  256
370
   -1
100
AcDbLine
 10
5.145
 20
26.67
 11
7.68
 21
26.93
  0
LINE
  5
E7
100
AcDbEntity
  8
20
  6
ByLayer
 62
  256
370
   -1
100
AcDbLine
 10
7.68
 20
26.41
 11
5.145
 21
26.67
  0
TEXT
  5
E8
100
AcDbEntity
  8
20
  6
ByLayer
 62
  256
370
   -1
100
AcDbText
 10
7.68
 20
27.2445
 30
0
 40
1.778
  1
1.27
 50
0
 41
1
 51
0
  7
isocp
 71
    0
210
0
220
0
230
1
100
AcDbText
  0
LINE
  5
E9
100
AcDbEntity
  8
20
  6
ByLayer
 62
  256
370
   -1
100
AcDbLine
 10
10.16
 20
22.86
 11
-5.76
 21
22.86
  0
LINE
  5
EA
100
AcDbEntity
  8
20
  6
ByLayer
 62
  256
370
   -1
100
AcDbLine
 10
10.16
 20
31.75
 11
-5.76
 21
31.75
  0
LINE
  5
EB
100
AcDbEntity
  8
20
  6
ByLayer
 62
  256
370
   -1
100
AcDbLine
 10
-3.81
 20
22.925
 11
-3.81
 21
31.685
  0
LINE
  5
EC
100
AcDbEntity
  8
20
  6
ByLayer
 62
  256
370
   -1
100
AcDbLine
 10
-3.81
 20
22.925
 11
-4.1292
 21
25.46
  0
LINE
  5
ED
100
AcDbEntity
  8
20
  6
ByLayer
 62
  256
370
   -1
100
AcDbLine
 10
-4.1292
 20
25.46
 11
-3.4908
 21
25.46
  0
LINE
  5
EE
100
AcDbEntity
  8
20
  6
ByLayer
 62
  256
370
   -1
100
AcDbLine
 10
-3.4908
 20
25.46
 11
-3.81
 21
22.925
  0
LINE
  5
EF
100
AcDbEntity
  8
20
  6
ByLayer
 62
  256
370
   -1
100
AcDbLine
 10
-3.81
 20
22.925
 11
-3.94
 21
25.46
  0
LINE
  5
F0
100
AcDbEntity
  8
20
  6
ByLayer
 62
  256
370
   -1
100
AcDbLine
 10
-3.68
 20
25.46
 11
-3.81
 21
22.925
  0
LINE
  5
F1
100
AcDbEntity
  8
20
  6
ByLayer
 62
  256
370
   -1
100
AcDbLine
 10
-3.81
 20
22.925
 11
-4.07
 21
25.46
  0
LINE
  5
F2
100
AcDbEntity
  8
20
  6
ByLayer
 62
  256
370
   -1
100
AcDbLine
 10
-3.55
 20
25.46
 11
-3.81
 21
22.925
  0
LINE
  5
F3
100
AcDbEntity
  8
20
  6
ByLayer
 62
  256
370
   -1
100
AcDbLine
 10
-3.81
 20
31.685
 11
-4.1292
 21
29.15
  0
LINE
  5
F4
100
AcDbEntity
  8
20
  6
ByLayer
 62
  256
370
   -1
100
AcDbLine
 10
-4.1292
 20
29.15
 11
-3.4908
 21
29.15
  0
LINE
  5
F5
100
AcDbEntity
  8
20
  6
ByLayer
 62
  256
370
   -1
100
AcDbLine
 10
-3.4908
 20
29.15
 11
-3.81
 21
31.685
  0
LINE
  5
F6
100
AcDbEntity
  8
20
  6
ByLayer
 62
  256
370
   -1
100
AcDbLine
 10
-3.81
 20
31.685
 11
-3.94
 21
29.15
  0
LINE
  5
F7
100
AcDbEntity
  8
20
  6
ByLayer
 62
  256
370
   -1
100
AcDbLine
 10
-3.68
 20
29.15
 11
-3.81
 21
31.685
  0
LINE
  5
F8
100
AcDbEntity
  8
20
  6
ByLayer
 62
  256
370
   -1
100
AcDbLine
 10
-3.81
 20
31.685
 11
-4.07
 21
29.15
  0
LINE
  5
F9
100
AcDbEntity
  8
20
  6
ByLayer
 62
  256
370
   -1
100
AcDbLine
 10
-3.55
 20
29.15
 11
-3.81
 21
31.685
  0
TEXT
  5
FA
100
AcDbEntity
  8
20
  6
ByLayer
 62
  256
370
   -1
100
AcDbText
 10
-4.3845
 20
24.8281
 30
0
 40
1.778
  1
8.89
 50
90
 41
1
 51
0
  7
isocp
 71
    0
210
0
220
0
230
1
100
AcDbText
  0
LINE
  5
FB
100
AcDbEntity
  8
20
  6
ByLayer
 62
  256
370
   -1
100
AcDbLine
 10
73.66
 20
16.51
 11
83.23
 21
16.51
  0
LINE
  5
FC
100
AcDbEntity
  8
20
  6
ByLayer
 62
  256
370
   -1
100
AcDbLine
 10
73.66
 20
33.02
 11
83.23
 21
33.02
  0
LINE
  5
FD
100
AcDbEntity
  8
20
  6
ByLayer
 62
  256
370
   -1
100
AcDbLine
 10
81.28
 20
16.575
 11
81.28
 21
32.955
  0
LINE
  5
FE
100
AcDbEntity
  8
20
  6
ByLayer
 62
  256
370
   -1
100
AcDbLine
 10
81.28
 20
16.575
 11
80.96080000000001
 21
19.11
  0
LINE
  5
FF
100
AcDbEntity
  8
20
  6
ByLayer
 62
  256
370
   -1
100
AcDbLine
 10
80.96080000000001
 20
19.11
 11
81.5992
 21
19.11
  0
LINE
  5
100
100
AcDbEntity
  8
20
  6
ByLayer
 62
  256
370
   -1
100
AcDbLine
 10
81.5992
 20
19.11
 11
81.28
 21
16.575
  0
LINE
  5
101
100
AcDbEntity
  8
20
  6
ByLayer
 62
  256
370
   -1
100
AcDbLine
 10
81.28
 20
16.575
 11
81.15000000000001
 21
19.11
  0
LINE
  5
102
100
AcDbEntity
  8
20
  6
ByLayer
 62
  256
370
   -1
100
AcDbLine
 10
81.41
 20
19.11
 11
81.28
 21
16.575
  0
LINE
  5
103
100
AcDbEntity
  8
20
  6
ByLayer
 62
  256
370
   -1
100
AcDbLine
 10
81.28
 20
16.575
 11
81.02
 21
19.11
  0
LINE
  5
104
100
AcDbEntity
  8
20
  6
ByLayer
 62
  256
370
   -1
100
AcDbLine
 10
81.54000000000001
 20
19.11
 11
81.28
 21
16.575
  0
LINE
  5
105
100
AcDbEntity
  8
20
  6
ByLayer
 62
  256
370
   -1
100
AcDbLine
 10
81.28
 20
32.955
 11
80.96080000000001
 21
30.42
  0
LINE
  5
106
100
AcDbEntity
  8
20
  6
ByLayer
 62
  256
370
   -1
100
AcDbLine
 10
80.96080000000001
 20
30.42
 11
81.5992
 21
30.42
  0
LINE
  5
107
100
AcDbEntity
  8
20
  6
ByLayer
 62
  256
370
   -1
100
AcDbLine
 10
81.5992
 20
30.42
 11
81.28
 21
32.955
  0
LINE
  5
108
100
AcDbEntity
  8
20
  6
ByLayer
 62
  256
370
   -1
100
AcDbLine
 10
81.28
 20
32.955
 11
81.15000000000001
 21
30.42
  0
LINE
  5
109
100
AcDbEntity
  8
20
  6
ByLayer
 62
  256
370
   -1
100
AcDbLine
 10
81.41
 20
30.42
 11
81.28
 21
32.955
  0
LINE
  5
10A
100
AcDbEntity
  8
20
  6
ByLayer
 62
  256
370
   -1
100
AcDbLine
 10
81.28
 20
32.955
 11
81.02
 21
30.42
  0
LINE
  5
10B
100
AcDbEntity
  8
20
  6
ByLayer
 62
  256
370
   -1
100
AcDbLine
 10
81.54000000000001
 20
30.42
 11
81.28
 21
32.955
  0
TEXT
  5
10C
100
AcDbEntity
  8
20
  6
ByLayer
 62
  256
370
   -1
100
AcDbText
 10
80.7055
 20
21.5829
 30
0
 40
1.778
  1
16.51
 50
90
 41
1
 51
0
  7
isocp
 71
    0
210
0
220
0
230
1
100
AcDbText
  0
LINE
  5
10D
100
AcDbEntity
  8
20
  6
ByLayer
 62
  256
370
   -1
100
AcDbLine
 10
49.53
 20
33.02
 11
49.53
 21
42.59
  0
LINE
  5
10E
100
AcDbEntity
  8
20
  6
ByLayer
 62
  256
370
   -1
100
AcDbLine
 10
72.39
 20
33.02
 11
72.39
 21
42.59
  0
LINE
  5
10F
100
AcDbEntity
  8
20
  6
ByLayer
 62
  256
370
   -1
100
AcDbLine
 10
49.595
 20
40.64
 11
72.325
 21
40.64
  0
LINE
  5
110
100
AcDbEntity
  8
20
  6
ByLayer
 62
  256
370
   -1
100
AcDbLine
 10
49.595
 20
40.64
 11
52.13
 21
40.9592
  0
LINE
  5
111
100
AcDbEntity
  8
20
  6
ByLayer
 62
  256
370
   -1
100
AcDbLine
 10
52.13
 20
40.9592
 11
52.13
 21
40.3208
  0
LINE
  5
112
100
AcDbEntity
  8
20
  6
ByLayer
 62
  256
370
   -1
100
AcDbLine
 10
52.13
 20
40.3208
 11
49.595
 21
40.64
  0
LINE
  5
113
100
AcDbEntity
  8
20
  6
ByLayer
 62
  256
370
   -1
100
AcDbLine
 10
49.595
 20
40.64
 11
52.13
 21
40.77
  0
LINE
  5
114
100
AcDbEntity
  8
20
  6
ByLayer
 62
  256
370
   -1
100
AcDbLine
 10
52.13
 20
40.51
 11
49.595
 21
40.64
  0
LINE
  5
115
100
AcDbEntity
  8
20
  6
ByLayer
 62
  256
370
   -1
100
AcDbLine
 10
49.595
 20
40.64
 11
52.13
 21
40.9
  0
LINE
  5
116
100
AcDbEntity
  8
20
  6
ByLayer
 62
  256
370
   -1
100
AcDbLine
 10
52.13
 20
40.38
 11
49.595
 21
40.64
  0
LINE
  5
117
100
AcDbEntity
  8
20
  6
ByLayer
 62
  256
370
   -1
100
AcDbLine
 10
72.325
 20
40.64
 11
69.79000000000001
 21
40.9592
  0
LINE
  5
118
100
AcDbEntity
  8
20
  6
ByLayer
 62
  256
370
   -1
100
AcDbLine
 10
69.79000000000001
 20
40.9592
 11
69.79000000000001
 21
40.3208
  0
LINE
  5
119
100
AcDbEntity
  8
20
  6
ByLayer
 62
  256
370
   -1
100
AcDbLine
 10
69.79000000000001
 20
40.3208
 11
72.325
 21
40.64
  0
LINE
  5
11A
100
AcDbEntity
  8
20
  6
ByLayer
 62
  256
370
   -1
100
AcDbLine
 10
72.325
 20
40.64
 11
69.79000000000001
 21
40.77
  0
LINE
  5
11B
100
AcDbEntity
  8
20
  6
ByLayer
 62
  256
370
   -1
100
AcDbLine
 10
69.79000000000001
 20
40.51
 11
72.325
 21
40.64
  0
LINE
  5
11C
100
AcDbEntity
  8
20
  6
ByLayer
 62
  256
370
   -1
100
AcDbLine
 10
72.325
 20
40.64
 11
69.79000000000001
 21
40.9
  0
LINE
  5
11D
100
AcDbEntity
  8
20
  6
ByLayer
 62
  256
370
   -1
100
AcDbLine
 10
69.79000000000001
 20
40.38
 11
72.325
 21
40.64
  0
TEXT
  5
11E
100
AcDbEntity
  8
20
  6
ByLayer
 62
  256
370
   -1
100
AcDbText
 10
57.7779
 20
41.2145
 30
0
 40
1.778
  1
22.86
 50
0
 41
1
 51
0
  7
isocp
 71
    0
210
0
220
0
230
1
100
AcDbText
  0
CIRCLE
  5
11F
100
AcDbEntity
  8
20
  6
ByLayer
 62
  256
370
   -1
100
AcDbCircle
 10
49.53
 20
16.51
 40
1.5
  0
CIRCLE
  5
120
100
AcDbEntity
  8
20
  6
ByLayer
 62
  256
370
   -1
100
AcDbCircle
 10
3.81
 20
22.86
 40
1.5
  0
CIRCLE
  5
121
100
AcDbEntity
  8
20
  6
ByLayer
 62
  256
370
   -1
100
AcDbCircle
 10
5.08
 20
31.75
 40
1.5
  0
CIRCLE
  5
122
100
AcDbEntity
  8
20
  6
ByLayer
 62
  256
370
   -1
100
AcDbCircle
 10
72.39
 20
33.02
 40
1.5
  0
INSERT
  5
123
100
AcDbEntity
  8
17
  6
ByLayer
 62
  256
370
   -1
100
AcDbBlockReference
  2
OCTAGONP
 10
38.1
 20
7.62
 30
0
 41
1.524
 42
1.524
 43
0
 50
0
 70
    1
 71
    1
 44
0
 45
0
  0
INSERT
  5
124
100
AcDbEntity
  8
17
  6
ByLayer
 62
  256
370
   -1
100
AcDbBlockReference
  2
OCTAGONP
 10
38.1
 20
7.62
 30
0
 41
1.524
 42
1.524
 43
0
 50
0
 70
    1
 71
    1
 44
0
 45
0
  0
INSERT
  5
125
100
AcDbEntity
  8
17
  6
ByLayer
 62
  256
370
   -1
100
AcDbBlockReference
  2
OCTAGONP
 10
38.1
 20
10.16
 30
0
 41
1.524
 42
1.524
 43
0
 50
0
 70
    1
 71
    1
 44
0
 45
0
  0
INSERT
  5
126
100
AcDbEntity
  8
17
  6
ByLayer
 62
  256
370
   -1
100
AcDbBlockReference
  2
OCTAGONP
 10
38.1
 20
10.16
 30
0
 41
1.524
 42
1.524
 43
0
 50
0
 70
    1
 71
    1
 44
0
 45
0
  0
INSERT
  5
127
100
AcDbEntity
  8
17
  6
ByLayer
 62
  256
370
   -1
100
AcDbBlockReference
  2
OCTAGONP
 10
40.64
 20
7.62
 30
0
 41
1.524
 42
1.524
 43
0
 50
0
 70
    1
 71
    1
 44
0
 45
0
  0
INSERT
  5
128
100
AcDbEntity
  8
17
  6
ByLayer
 62
  256
370
   -1
100
AcDbBlockReference
  2
OCTAGONP
 10
40.64
 20
7.62
 30
0
 41
1.524
 42
1.524
 43
0
 50
0
 70
    1
 71
    1
 44
0
 45
0
  0
INSERT
  5
129
100
AcDbEntity
  8
17
  6
ByLayer
 62
  256
370
   -1
100
AcDbBlockReference
  2
OCTAGONP
 10
40.64
 20
10.16
 30
0
 41
1.524
 42
1.524
 43
0
 50
0
 70
    1
 71
    1
 44
0
 45
0
  0
INSERT
  5
12A
100
AcDbEntity
  8
17
  6
ByLayer
 62
  256
370
   -1
100
AcDbBlockReference
  2
OCTAGONP
 10
40.64
 20
10.16
 30
0
 41
1.524
 42
1.524
 43
0
 50
0
 70
    1
 71
    1
 44
0
 45
0
  0
INSERT
  5
12B
100
AcDbEntity
  8
17
  6
ByLayer
 62
  256
370
   -1
100
AcDbBlockReference
  2
OCTAGONP
 10
43.18
 20
7.62
 30
0
 41
1.524
 42
1.524
 43
0
 50
0
 70
    1
 71
    1
 44
0
 45
0
  0
INSERT
  5
12C
100
AcDbEntity
  8
17
  6
ByLayer
 62
  256
370
   -1
100
AcDbBlockReference
  2
OCTAGONP
 10
43.18
 20
7.62
 30
0
 41
1.524
 42
1.524
 43
0
 50
0
 70
    1
 71
    1
 44
0
 45
0
  0
INSERT
  5
12D
100
AcDbEntity
  8
17
  6
ByLayer
 62
  256
370
   -1
100
AcDbBlockReference
  2
OCTAGONP
 10
43.18
 20
10.16
 30
0
 41
1.524
 42
1.524
 43
0
 50
0
 70
    1
 71
    1
 44
0
 45
0
  0
INSERT
  5
12E
100
AcDbEntity
  8
17
  6
ByLayer
 62
  256
370
   -1
100
AcDbBlockReference
  2
OCTAGONP
 10
43.18
 20
10.16
 30
0
 41
1.524
 42
1.524
 43
0
 50
0
 70
    1
 71
    1
 44
0
 45
0
  0
INSERT
  5
12F
100
AcDbEntity
  8
17
  6
ByLayer
 62
  256
370
   -1
100
AcDbBlockReference
  2
OCTAGONP
 10
45.72
 20
7.62
 30
0
 41
1.524
 42
1.524
 43
0
 50
0
 70
    1
 71
    1
 44
0
 45
0
  0
INSERT
  5
130
100
AcDbEntity
  8
17
  6
ByLayer
 62
  256
370
   -1
100
AcDbBlockReference
  2
OCTAGONP
 10
45.72
 20
7.62
 30
0
 41
1.524
 42
1.524
 43
0
 50
0
 70
    1
 71
    1
 44
0
 45
0
  0
INSERT
  5
131
100
AcDbEntity
  8
17
  6
ByLayer
 62
  256
370
   -1
100
AcDbBlockReference
  2
OCTAGONP
 10
45.72
 20
10.16
 30
0
 41
1.524
 42
1.524
 43
0
 50
0
 70
    1
 71
    1
 44
0
 45
0
  0
INSERT
  5
132
100
AcDbEntity
  8
17
  6
ByLayer
 62
  256
370
   -1
100
AcDbBlockReference
  2
OCTAGONP
 10
45.72
 20
10.16
 30
0
 41
1.524
 42
1.524
 43
0
 50
0
 70
    1
 71
    1
 44
0
 45
0
  0
INSERT
  5
133
100
AcDbEntity
  8
17
  6
ByLayer
 62
  256
370
   -1
100
AcDbBlockReference
  2
OCTAGONP
 10
48.26
 20
7.62
 30
0
 41
1.524
 42
1.524
 43
0
 50
0
 70
    1
 71
    1
 44
0
 45
0
  0
INSERT
  5
134
100
AcDbEntity
  8
17
  6
ByLayer
 62
  256
370
   -1
100
AcDbBlockReference
  2
OCTAGONP
 10
48.26
 20
7.62
 30
0
 41
1.524
 42
1.524
 43
0
 50
0
 70
    1
 71
    1
 44
0
 45
0
  0
INSERT
  5
135
100
AcDbEntity
  8
17
  6
ByLayer
 62
  256
370
   -1
100
AcDbBlockReference
  2
OCTAGONP
 10
48.26
 20
10.16
 30
0
 41
1.524
 42
1.524
 43
0
 50
0
 70
    1
 71
    1
 44
0
 45
0
  0
INSERT
  5
136
100
AcDbEntity
  8
17
  6
ByLayer
 62
  256
370
   -1
100
AcDbBlockReference
  2
OCTAGONP
 10
48.26
 20
10.16
 30
0
 41
1.524
 42
1.524
 43
0
 50
0
 70
    1
 71
    1
 44
0
 45
0
  0
INSERT
  5
137
100
AcDbEntity
  8
17
  6
ByLayer
 62
  256
370
   -1
100
AcDbBlockReference
  2
OCTAGONP
 10
50.8
 20
7.62
 30
0
 41
1.524
 42
1.524
 43
0
 50
0
 70
    1
 71
    1
 44
0
 45
0
  0
INSERT
  5
138
100
AcDbEntity
  8
17
  6
ByLayer
 62
  256
370
   -1
100
AcDbBlockReference
  2
OCTAGONP
 10
50.8
 20
7.62
 30
0
 41
1.524
 42
1.524
 43
0
 50
0
 70
    1
 71
    1
 44
0
 45
0
  0
INSERT
  5
139
100
AcDbEntity
  8
17
  6
ByLayer
 62
  256
370
   -1
100
AcDbBlockReference
  2
OCTAGONP
 10
50.8
 20
10.16
 30
0
 41
1.524
 42
1.524
 43
0
 50
0
 70
    1
 71
    1
 44
0
 45
0
  0
INSERT
  5
13A
100
AcDbEntity
  8
17
  6
ByLayer
 62
  256
370
   -1
100
AcDbBlockReference
  2
OCTAGONP
 10
50.8
 20
10.16
 30
0
 41
1.524
 42
1.524
 43
0
 50
0
 70
    1
 71
    1
 44
0
 45
0
  0
INSERT
  5
13B
100
AcDbEntity
  8
17
  6
ByLayer
 62
  256
370
   -1
100
AcDbBlockReference
  2
OCTAGONP
 10
53.34
 20
7.62
 30
0
 41
1.524
 42
1.524
 43
0
 50
0
 70
    1
 71
    1
 44
0
 45
0
  0
INSERT
  5
13C
100
AcDbEntity
  8
17
  6
ByLayer
 62
  256
370
   -1
100
AcDbBlockReference
  2
OCTAGONP
 10
53.34
 20
7.62
 30
0
 41
1.524
 42
1.524
 43
0
 50
0
 70
    1
 71
    1
 44
0
 45
0
  0
INSERT
  5
13D
100
AcDbEntity
  8
17
  6
ByLayer
 62
  256
370
   -1
100
AcDbBlockReference
  2
OCTAGONP
 10
53.34
 20
10.16
 30
0
 41
1.524
 42
1.524
 43
0
 50
0
 70
    1
 71
    1
 44
0
 45
0
  0
INSERT
  5
13E
100
AcDbEntity
  8
17
  6
ByLayer
 62
  256
370
   -1
100
AcDbBlockReference
  2
OCTAGONP
 10
53.34
 20
10.16
 30
0
 41
1.524
 42
1.524
 43
0
 50
0
 70
    1
 71
    1
 44
0
 45
0
  0
INSERT
  5
13F
100
AcDbEntity
  8
17
  6
ByLayer
 62
  256
370
   -1
100
AcDbBlockReference
  2
OCTAGONP
 10
55.88
 20
7.62
 30
0
 41
1.524
 42
1.524
 43
0
 50
0
 70
    1
 71
    1
 44
0
 45
0
  0
INSERT
  5
140
100
AcDbEntity
  8
17
  6
ByLayer
 62
  256
370
   -1
100
AcDbBlockReference
  2
OCTAGONP
 10
55.88
 20
7.62
 30
0
 41
1.524
 42
1.524
 43
0
 50
0
 70
    1
 71
    1
 44
0
 45
0
  0
INSERT
  5
141
100
AcDbEntity
  8
17
  6
ByLayer
 62
  256
370
   -1
100
AcDbBlockReference
  2
OCTAGONP
 10
55.88
 20
10.16
 30
0
 41
1.524
 42
1.524
 43
0
 50
0
 70
    1
 71
    1
 44
0
 45
0
  0
INSERT
  5
142
100
AcDbEntity
  8
17
  6
ByLayer
 62
  256
370
   -1
100
AcDbBlockReference
  2
OCTAGONP
 10
55.88
 20
10.16
 30
0
 41
1.524
 42
1.524
 43
0
 50
0
 70
    1
 71
    1
 44
0
 45
0
  0
INSERT
  5
143
100
AcDbEntity
  8
17
  6
ByLayer
 62
  256
370
   -1
100
AcDbBlockReference
  2
OCTAGONP
 10
58.42
 20
7.62
 30
0
 41
1.524
 42
1.524
 43
0
 50
0
 70
    1
 71
    1
 44
0
 45
0
  0
INSERT
  5
144
100
AcDbEntity
  8
17
  6
ByLayer
 62
  256
370
   -1
100
AcDbBlockReference
  2
OCTAGONP
 10
58.42
 20
7.62
 30
0
 41
1.524
 42
1.524
 43
0
 50
0
 70
    1
 71
    1
 44
0
 45
0
  0
INSERT
  5
145
100
AcDbEntity
  8
17
  6
ByLayer
 62
  256
370
   -1
100
AcDbBlockReference
  2
OCTAGONP
 10
58.42
 20
10.16
 30
0
 41
1.524
 42
1.524
 43
0
 50
0
 70
    1
 71
    1
 44
0
 45
0
  0
INSERT
  5
146
100
AcDbEntity
  8
17
  6
ByLayer
 62
  256
370
   -1
100
AcDbBlockReference
  2
OCTAGONP
 10
58.42
 20
10.16
 30
0
 41
1.524
 42
1.524
 43
0
 50
0
 70
    1
 71
    1
 44
0
 45
0
  0
INSERT
  5
147
100
AcDbEntity
  8
17
  6
ByLayer
 62
  256
370
   -1
100
AcDbBlockReference
  2
OCTAGONP
 10
60.96
 20
7.62
 30
0
 41
1.524
 42
1.524
 43
0
 50
0
 70
    1
 71
    1
 44
0
 45
0
  0
INSERT
  5
148
100
AcDbEntity
  8
17
  6
ByLayer
 62
  256
370
   -1
100
AcDbBlockReference
  2
OCTAGONP
 10
60.96
 20
7.62
 30
0
 41
1.524
 42
1.524
 43
0
 50
0
 70
    1
 71
    1
 44
0
 45
0
  0
INSERT
  5
149
100
AcDbEntity
  8
17
  6
ByLayer
 62
  256
370
   -1
100
AcDbBlockReference
  2
OCTAGONP
 10
60.96
 20
10.16
 30
0
 41
1.524
 42
1.524
 43
0
 50
0
 70
    1
 71
    1
 44
0
 45
0
  0
INSERT
  5
14A
100
AcDbEntity
  8
17
  6
ByLayer
 62
  256
370
   -1
100
AcDbBlockReference
  2
OCTAGONP
 10
60.96
 20
10.16
 30
0
 41
1.524
 42
1.524
 43
0
 50
0
 70
    1
 71
    1
 44
0
 45
0
  0
INSERT
  5
14B
100
AcDbEntity
  8
17
  6
ByLayer
 62
  256
370
   -1
100
AcDbBlockReference
  2
OCTAGONP
 10
63.5
 20
7.62
 30
0
 41
1.524
 42
1.524
 43
0
 50
0
 70
    1
 71
    1
 44
0
 45
0
  0
INSERT
  5
14C
100
AcDbEntity
  8
17
  6
ByLayer
 62
  256
370
   -1
100
AcDbBlockReference
  2
OCTAGONP
 10
63.5
 20
7.62
 30
0
 41
1.524
 42
1.524
 43
0
 50
0
 70
    1
 71
    1
 44
0
 45
0
  0
INSERT
  5
14D
100
AcDbEntity
  8
17
  6
ByLayer
 62
  256
370
   -1
100
AcDbBlockReference
  2
OCTAGONP
 10
63.5
 20
10.16
 30
0
 41
1.524
 42
1.524
 43
0
 50
0
 70
    1
 71
    1
 44
0
 45
0
  0
INSERT
  5
14E
100
AcDbEntity
  8
17
  6
ByLayer
 62
  256
370
   -1
100
AcDbBlockReference
  2
OCTAGONP
 10
63.5
 20
10.16
 30
0
 41
1.524
 42
1.524
 43
0
 50
0
 70
    1
 71
    1
 44
0
 45
0
  0
INSERT
  5
14F
100
AcDbEntity
  8
17
  6
ByLayer
 62
  256
370
   -1
100
AcDbBlockReference
  2
OCTAGONP
 10
66.04000000000001
 20
7.62
 30
0
 41
1.524
 42
1.524
 43
0
 50
0
 70
    1
 71
    1
 44
0
 45
0
  0
INSERT
  5
150
100
AcDbEntity
  8
17
  6
ByLayer
 62
  256
370
   -1
100
AcDbBlockReference
  2
OCTAGONP
 10
66.04000000000001
 20
7.62
 30
0
 41
1.524
 42
1.524
 43
0
 50
0
 70
    1
 71
    1
 44
0
 45
0
  0
INSERT
  5
151
100
AcDbEntity
  8
17
  6
ByLayer
 62
  256
370
   -1
100
AcDbBlockReference
  2
OCTAGONP
 10
66.04000000000001
 20
10.16
 30
0
 41
1.524
 42
1.524
 43
0
 50
0
 70
    1
 71
    1
 44
0
 45
0
  0
INSERT
  5
152
100
AcDbEntity
  8
17
  6
ByLayer
 62
  256
370
   -1
100
AcDbBlockReference
  2
OCTAGONP
 10
66.04000000000001
 20
10.16
 30
0
 41
1.524
 42
1.524
 43
0
 50
0
 70
    1
 71
    1
 44
0
 45
0
  0
INSERT
  5
153
100
AcDbEntity
  8
17
  6
ByLayer
 62
  256
370
   -1
100
AcDbBlockReference
  2
OCTAGONP
 10
68.58
 20
7.62
 30
0
 41
1.524
 42
1.524
 43
0
 50
0
 70
    1
 71
    1
 44
0
 45
0
  0
INSERT
  5
154
100
AcDbEntity
  8
17
  6
ByLayer
 62
  256
370
   -1
100
AcDbBlockReference
  2
OCTAGONP
 10
68.58
 20
7.62
 30
0
 41
1.524
 42
1.524
 43
0
 50
0
 70
    1
 71
    1
 44
0
 45
0
  0
INSERT
  5
155
100
AcDbEntity
  8
17
  6
ByLayer
 62
  256
370
   -1
100
AcDbBlockReference
  2
OCTAGONP
 10
68.58
 20
10.16
 30
0
 41
1.524
 42
1.524
 43
0
 50
0
 70
    1
 71
    1
 44
0
 45
0
  0
INSERT
  5
156
100
AcDbEntity
  8
17
  6
ByLayer
 62
  256
370
   -1
100
AcDbBlockReference
  2
OCTAGONP
 10
68.58
 20
10.16
 30
0
 41
1.524
 42
1.524
 43
0
 50
0
 70
    1
 71
    1
 44
0
 45
0
  0
INSERT
  5
157
100
AcDbEntity
  8
17
  6
ByLayer
 62
  256
370
   -1
100
AcDbBlockReference
  2
SQUAREP
 10
19.083
 20
21.579
 30
0
 41
1.524
 42
1.524
 43
0
 50
0
 70
    1
 71
    1
 44
0
 45
0
  0
INSERT
  5
158
100
AcDbEntity
  8
17
  6
ByLayer
 62
  256
370
   -1
100
AcDbBlockReference
  2
SQUAREP
 10
19.083
 20
21.579
 30
0
 41
1.524
 42
1.524
 43
0
 50
0
 70
    1
 71
    1
 44
0
 45
0
  0
INSERT
  5
159
100
AcDbEntity
  8
17
  6
ByLayer
 62
  256
370
   -1
100
AcDbBlockReference
  2
ROUNDP
 10
19.083
 20
24.119
 30
0
 41
1.524
 42
1.524
 43
0
 50
0
 70
    1
 71
    1
 44
0
 45
0
  0
INSERT
  5
15A
100
AcDbEntity
  8
17
  6
ByLayer
 62
  256
370
   -1
100
AcDbBlockReference
  2
ROUNDP
 10
19.083
 20
24.119
 30
0
 41
1.524
 42
1.524
 43
0
 50
0
 70
    1
 71
    1
 44
0
 45
0
  0
INSERT
  5
15B
100
AcDbEntity
  8
17
  6
ByLayer
 62
  256
370
   -1
100
AcDbBlockReference
  2
ROUNDP
 10
21.623
 20
21.579
 30
0
 41
1.524
 42
1.524
 43
0
 50
0
 70
    1
 71
    1
 44
0
 45
0
  0
INSERT
  5
15C
100
AcDbEntity
  8
17
  6
ByLayer
 62
  256
370
   -1
100
AcDbBlockReference
  2
ROUNDP
 10
21.623
 20
21.579
 30
0
 41
1.524
 42
1.524
 43
0
 50
0
 70
    1
 71
    1
 44
0
 45
0
  0
INSERT
  5
15D
100
AcDbEntity
  8
17
  6
ByLayer
 62
  256
370
   -1
100
AcDbBlockReference
  2
ROUNDP
 10
21.623
 20
24.119
 30
0
 41
1.524
 42
1.524
 43
0
 50
0
 70
    1
 71
    1
 44
0
 45
0
  0
INSERT
  5
15E
100
AcDbEntity
  8
17
  6
ByLayer
 62
  256
370
   -1
100
AcDbBlockReference
  2
ROUNDP
 10
21.623
 20
24.119
 30
0
 41
1.524
 42
1.524
 43
0
 50
0
 70
    1
 71
    1
 44
0
 45
0
  0
INSERT
  5
15F
100
AcDbEntity
  8
17
  6
ByLayer
 62
  256
370
   -1
100
AcDbBlockReference
  2
ROUNDP
 10
24.163
 20
21.579
 30
0
 41
1.524
 42
1.524
 43
0
 50
0
 70
    1
 71
    1
 44
0
 45
0
  0
INSERT
  5
160
100
AcDbEntity
  8
17
  6
ByLayer
 62
  256
370
   -1
100
AcDbBlockReference
  2
ROUNDP
 10
24.163
 20
21.579
 30
0
 41
1.524
 42
1.524
 43
0
 50
0
 70
    1
 71
    1
 44
0
 45
0
  0
INSERT
  5
161
100
AcDbEntity
  8
17
  6
ByLayer
 62
  256
370
   -1
100
AcDbBlockReference
  2
ROUNDP
 10
24.163
 20
24.119
 30
0
 41
1.524
 42
1.524
 43
0
 50
0
 70
    1
 71
    1
 44
0
 45
0
  0
INSERT
  5
162
100
AcDbEntity
  8
17
  6
ByLayer
 62
  256
370
   -1
100
AcDbBlockReference
  2
ROUNDP
 10
24.163
 20
24.119
 30
0
 41
1.524
 42
1.524
 43
0
 50
0
 70
    1
 71
    1
 44
0
 45
0
  0
INSERT
  5
163
100
AcDbEntity
  8
17
  6
ByLayer
 62
  256
370
   -1
100
AcDbBlockReference
  2
ROUNDP
 10
26.703
 20
21.579
 30
0
 41
1.524
 42
1.524
 43
0
 50
0
 70
    1
 71
    1
 44
0
 45
0
  0
INSERT
  5
164
100
AcDbEntity
  8
17
  6
ByLayer
 62
  256
370
   -1
100
AcDbBlockReference
  2
ROUNDP
 10
26.703
 20
21.579
 30
0
 41
1.524
 42
1.524
 43
0
 50
0
 70
    1
 71
    1
 44
0
 45
0
  0
INSERT
  5
165
100
AcDbEntity
  8
17
  6
ByLayer
 62
  256
370
   -1
100
AcDbBlockReference
  2
ROUNDP
 10
26.703
 20
24.119
 30
0
 41
1.524
 42
1.524
 43
0
 50
0
 70
    1
 71
    1
 44
0
 45
0
  0
INSERT
  5
166
100
AcDbEntity
  8
17
  6
ByLayer
 62
  256
370
   -1
100
AcDbBlockReference
  2
ROUNDP
 10
26.703
 20
24.119
 30
0
 41
1.524
 42
1.524
 43
0
 50
0
 70
    1
 71
    1
 44
0
 45
0
  0
INSERT
  5
167
100
AcDbEntity
  8
17
  6
ByLayer
 62
  256
370
   -1
100
AcDbBlockReference
  2
ROUNDP
 10
29.243
 20
21.579
 30
0
 41
1.524
 42
1.524
 43
0
 50
0
 70
    1
 71
    1
 44
0
 45
0
  0
INSERT
  5
168
100
AcDbEntity
  8
17
  6
ByLayer
 62
  256
370
   -1
100
AcDbBlockReference
  2
ROUNDP
 10
29.243
 20
21.579
 30
0
 41
1.524
 42
1.524
 43
0
 50
0
 70
    1
 71
    1
 44
0
 45
0
  0
INSERT
  5
169
100
AcDbEntity
  8
17
  6
ByLayer
 62
  256
370
   -1
100
AcDbBlockReference
  2
ROUNDP
 10
29.243
 20
24.119
 30
0
 41
1.524
 42
1.524
 43
0
 50
0
 70
    1
 71
    1
 44
0
 45
0
  0
INSERT
  5
16A
100
AcDbEntity
  8
17
  6
ByLayer
 62
  256
370
   -1
100
AcDbBlockReference
  2
ROUNDP
 10
29.243
 20
24.119
 30
0
 41
1.524
 42
1.524
 43
0
 50
0
 70
    1
 71
    1
 44
0
 45
0
  0
INSERT
  5
16B
100
AcDbEntity
  8
17
  6
ByLayer
 62
  256
370
   -1
100
AcDbBlockReference
  2
ROUNDP
 10
31.783
 20
21.579
 30
0
 41
1.524
 42
1.524
 43
0
 50
0
 70
    1
 71
    1
 44
0
 45
0
  0
INSERT
  5
16C
100
AcDbEntity
  8
17
  6
ByLayer
 62
  256
370
   -1
100
AcDbBlockReference
  2
ROUNDP
 10
31.783
 20
21.579
 30
0
 41
1.524
 42
1.524
 43
0
 50
0
 70
    1
 71
    1
 44
0
 45
0
  0
INSERT
  5
16D
100
AcDbEntity
  8
17
  6
ByLayer
 62
  256
370
   -1
100
AcDbBlockReference
  2
ROUNDP
 10
31.783
 20
24.119
 30
0
 41
1.524
 42
1.524
 43
0
 50
0
 70
    1
 71
    1
 44
0
 45
0
  0
INSERT
  5
16E
100
AcDbEntity
  8
17
  6
ByLayer
 62
  256
370
   -1
100
AcDbBlockReference
  2
ROUNDP
 10
31.783
 20
24.119
 30
0
 41
1.524
 42
1.524
 43
0
 50
0
 70
    1
 71
    1
 44
0
 45
0
  0
INSERT
  5
16F
100
AcDbEntity
  8
17
  6
ByLayer
 62
  256
370
   -1
100
AcDbBlockReference
  2
ROUNDP
 10
34.323
 20
21.579
 30
0
 41
1.524
 42
1.524
 43
0
 50
0
 70
    1
 71
    1
 44
0
 45
0
  0
INSERT
  5
170
100
AcDbEntity
  8
17
  6
ByLayer
 62
  256
370
   -1
100
AcDbBlockReference
  2
ROUNDP
 10
34.323
 20
21.579
 30
0
 41
1.524
 42
1.524
 43
0
 50
0
 70
    1
 71
    1
 44
0
 45
0
  0
INSERT
  5
171
100
AcDbEntity
  8
17
  6
ByLayer
 62
  256
370
   -1
100
AcDbBlockReference
  2
ROUNDP
 10
34.323
 20
24.119
 30
0
 41
1.524
 42
1.524
 43
0
 50
0
 70
    1
 71
    1
 44
0
 45
0
  0
INSERT
  5
172
100
AcDbEntity
  8
17
  6
ByLayer
 62
  256
370
   -1
100
AcDbBlockReference
  2
ROUNDP
 10
34.323
 20
24.119
 30
0
 41
1.524
 42
1.524
 43
0
 50
0
 70
    1
 71
    1
 44
0
 45
0
  0
INSERT
  5
173
100
AcDbEntity
  8
17
  6
ByLayer
 62
  256
370
   -1
100
AcDbBlockReference
  2
ROUNDP
 10
36.863
 20
21.579
 30
0
 41
1.524
 42
1.524
 43
0
 50
0
 70
    1
 71
    1
 44
0
 45
0
  0
INSERT
  5
174
100
AcDbEntity
  8
17
  6
ByLayer
 62
  256
370
   -1
100
AcDbBlockReference
  2
ROUNDP
 10
36.863
 20
21.579
 30
0
 41
1.524
 42
1.524
 43
0
 50
0
 70
    1
 71
    1
 44
0
 45
0
  0
INSERT
  5
175
100
AcDbEntity
  8
17
  6
ByLayer
 62
  256
370
   -1
100
AcDbBlockReference
  2
ROUNDP
 10
36.863
 20
24.119
 30
0
 41
1.524
 42
1.524
 43
0
 50
0
 70
    1
 71
    1
 44
0
 45
0
  0
INSERT
  5
176
100
AcDbEntity
  8
17
  6
ByLayer
 62
  256
370
   -1
100
AcDbBlockReference
  2
ROUNDP
 10
36.863
 20
24.119
 30
0
 41
1.524
 42
1.524
 43
0
 50
0
 70
    1
 71
    1
 44
0
 45
0
  0
INSERT
  5
177
100
AcDbEntity
  8
17
  6
ByLayer
 62
  256
370
   -1
100
AcDbBlockReference
  2
ROUNDP
 10
39.403
 20
21.579
 30
0
 41
1.524
 42
1.524
 43
0
 50
0
 70
    1
 71
    1
 44
0
 45
0
  0
INSERT
  5
178
100
AcDbEntity
  8
17
  6
ByLayer
 62
  256
370
   -1
100
AcDbBlockReference
  2
ROUNDP
 10
39.403
 20
21.579
 30
0
 41
1.524
 42
1.524
 43
0
 50
0
 70
    1
 71
    1
 44
0
 45
0
  0
INSERT
  5
179
100
AcDbEntity
  8
17
  6
ByLayer
 62
  256
370
   -1
100
AcDbBlockReference
  2
ROUNDP
 10
39.403
 20
24.119
 30
0
 41
1.524
 42
1.524
 43
0
 50
0
 70
    1
 71
    1
 44
0
 45
0
  0
INSERT
  5
17A
100
AcDbEntity
  8
17
  6
ByLayer
 62
  256
370
   -1
100
AcDbBlockReference
  2
ROUNDP
 10
39.403
 20
24.119
 30
0
 41
1.524
 42
1.524
 43
0
 50
0
 70
    1
 71
    1
 44
0
 45
0
  0
INSERT
  5
17B
100
AcDbEntity
  8
17
  6
ByLayer
 62
  256
370
   -1
100
AcDbBlockReference
  2
ROUNDP
 10
41.943
 20
21.579
 30
0
 41
1.524
 42
1.524
 43
0
 50
0
 70
    1
 71
    1
 44
0
 45
0
  0
INSERT
  5
17C
100
AcDbEntity
  8
17
  6
ByLayer
 62
  256
370
   -1
100
AcDbBlockReference
  2
ROUNDP
 10
41.943
 20
21.579
 30
0
 41
1.524
 42
1.524
 43
0
 50
0
 70
    1
 71
    1
 44
0
 45
0
  0
INSERT
  5
17D
100
AcDbEntity
  8
17
  6
ByLayer
 62
  256
370
   -1
100
AcDbBlockReference
  2
ROUNDP
 10
41.943
 20
24.119
 30
0
 41
1.524
 42
1.524
 43
0
 50
0
 70
    1
 71
    1
 44
0
 45
0
  0
INSERT
  5
17E
100
AcDbEntity
  8
17
  6
ByLayer
 62
  256
370
   -1
100
AcDbBlockReference
  2
ROUNDP
 10
41.943
 20
24.119
 30
0
 41
1.524
 42
1.524
 43
0
 50
0
 70
    1
 71
    1
 44
0
 45
0
  0
INSERT
  5
17F
100
AcDbEntity
  8
17
  6
ByLayer
 62
  256
370
   -1
100
AcDbBlockReference
  2
ROUNDP
 10
44.483
 20
21.579
 30
0
 41
1.524
 42
1.524
 43
0
 50
0
 70
    1
 71
    1
 44
0
 45
0
  0
INSERT
  5
180
100
AcDbEntity
  8
17
  6
ByLayer
 62
  256
370
   -1
100
AcDbBlockReference
  2
ROUNDP
 10
44.483
 20
21.579
 30
0
 41
1.524
 42
1.524
 43
0
 50
0
 70
    1
 71
    1
 44
0
 45
0
  0
INSERT
  5
181
100
AcDbEntity
  8
17
  6
ByLayer
 62
  256
370
   -1
100
AcDbBlockReference
  2
ROUNDP
 10
44.483
 20
24.119
 30
0
 41
1.524
 42
1.524
 43
0
 50
0
 70
    1
 71
    1
 44
0
 45
0
  0
INSERT
  5
182
100
AcDbEntity
  8
17
  6
ByLayer
 62
  256
370
   -1
100
AcDbBlockReference
  2
ROUNDP
 10
44.483
 20
24.119
 30
0
 41
1.524
 42
1.524
 43
0
 50
0
 70
    1
 71
    1
 44
0
 45
0
  0
INSERT
  5
183
100
AcDbEntity
  8
17
  6
ByLayer
 62
  256
370
   -1
100
AcDbBlockReference
  2
ROUNDP
 10
47.023
 20
21.579
 30
0
 41
1.524
 42
1.524
 43
0
 50
0
 70
    1
 71
    1
 44
0
 45
0
  0
INSERT
  5
184
100
AcDbEntity
  8
17
  6
ByLayer
 62
  256
370
   -1
100
AcDbBlockReference
  2
ROUNDP
 10
47.023
 20
21.579
 30
0
 41
1.524
 42
1.524
 43
0
 50
0
 70
    1
 71
    1
 44
0
 45
0
  0
INSERT
  5
185
100
AcDbEntity
  8
17
  6
ByLayer
 62
  256
370
   -1
100
AcDbBlockReference
  2
ROUNDP
 10
47.023
 20
24.119
 30
0
 41
1.524
 42
1.524
 43
0
 50
0
 70
    1
 71
    1
 44
0
 45
0
  0
INSERT
  5
186
100
AcDbEntity
  8
17
  6
ByLayer
 62
  256
370
   -1
100
AcDbBlockReference
  2
ROUNDP
 10
47.023
 20
24.119
 30
0
 41
1.524
 42
1.524
 43
0
 50
0
 70
    1
 71
    1
 44
0
 45
0
  0
INSERT
  5
187
100
AcDbEntity
  8
17
  6
ByLayer
 62
  256
370
   -1
100
AcDbBlockReference
  2
ROUNDP
 10
49.563
 20
21.579
 30
0
 41
1.524
 42
1.524
 43
0
 50
0
 70
    1
 71
    1
 44
0
 45
0
  0
INSERT
  5
188
100
AcDbEntity
  8
17
  6
ByLayer
 62
  256
370
   -1
100
AcDbBlockReference
  2
ROUNDP
 10
49.563
 20
21.579
 30
0
 41
1.524
 42
1.524
 43
0
 50
0
 70
    1
 71
    1
 44
0
 45
0
  0
INSERT
  5
189
100
AcDbEntity
  8
17
  6
ByLayer
 62
  256
370
   -1
100
AcDbBlockReference
  2
ROUNDP
 10
49.563
 20
24.119
 30
0
 41
1.524
 42
1.524
 43
0
 50
0
 70
    1
 71
    1
 44
0
 45
0
  0
INSERT
  5
18A
100
AcDbEntity
  8
17
  6
ByLayer
 62
  256
370
   -1
100
AcDbBlockReference
  2
ROUNDP
 10
49.563
 20
24.119
 30
0
 41
1.524
 42
1.524
 43
0
 50
0
 70
    1
 71
    1
 44
0
 45
0
  0
INSERT
  5
18B
100
AcDbEntity
  8
17
  6
ByLayer
 62
  256
370
   -1
100
AcDbBlockReference
  2
ROUNDP
 10
52.103
 20
21.579
 30
0
 41
1.524
 42
1.524
 43
0
 50
0
 70
    1
 71
    1
 44
0
 45
0
  0
INSERT
  5
18C
100
AcDbEntity
  8
17
  6
ByLayer
 62
  256
370
   -1
100
AcDbBlockReference
  2
ROUNDP
 10
52.103
 20
21.579
 30
0
 41
1.524
 42
1.524
 43
0
 50
0
 70
    1
 71
    1
 44
0
 45
0
  0
INSERT
  5
18D
100
AcDbEntity
  8
17
  6
ByLayer
 62
  256
370
   -1
100
AcDbBlockReference
  2
ROUNDP
 10
52.103
 20
24.119
 30
0
 41
1.524
 42
1.524
 43
0
 50
0
 70
    1
 71
    1
 44
0
 45
0
  0
INSERT
  5
18E
100
AcDbEntity
  8
17
  6
ByLayer
 62
  256
370
   -1
100
AcDbBlockReference
  2
ROUNDP
 10
52.103
 20
24.119
 30
0
 41
1.524
 42
1.524
 43
0
 50
0
 70
    1
 71
    1
 44
0
 45
0
  0
INSERT
  5
18F
100
AcDbEntity
  8
17
  6
ByLayer
 62
  256
370
   -1
100
AcDbBlockReference
  2
ROUNDP
 10
54.643
 20
21.579
 30
0
 41
1.524
 42
1.524
 43
0
 50
0
 70
    1
 71
    1
 44
0
 45
0
  0
INSERT
  5
190
100
AcDbEntity
  8
17
  6
ByLayer
 62
  256
370
   -1
100
AcDbBlockReference
  2
ROUNDP
 10
54.643
 20
21.579
 30
0
 41
1.524
 42
1.524
 43
0
 50
0
 70
    1
 71
    1
 44
0
 45
0
  0
INSERT
  5
191
100
AcDbEntity
  8
17
  6
ByLayer
 62
  256
370
   -1
100
AcDbBlockReference
  2
ROUNDP
 10
54.643
 20
24.119
 30
0
 41
1.524
 42
1.524
 43
0
 50
0
 70
    1
 71
    1
 44
0
 45
0
  0
INSERT
  5
192
100
AcDbEntity
  8
17
  6
ByLayer
 62
  256
370
   -1
100
AcDbBlockReference
  2
ROUNDP
 10
54.643
 20
24.119
 30
0
 41
1.524
 42
1.524
 43
0
 50
0
 70
    1
 71
    1
 44
0
 45
0
  0
INSERT
  5
193
100
AcDbEntity
  8
17
  6
ByLayer
 62
  256
370
   -1
100
AcDbBlockReference
  2
ROUNDP
 10
57.183
 20
21.579
 30
0
 41
1.524
 42
1.524
 43
0
 50
0
 70
    1
 71
    1
 44
0
 45
0
  0
INSERT
  5
194
100
AcDbEntity
  8
17
  6
ByLayer
 62
  256
370
   -1
100
AcDbBlockReference
  2
ROUNDP
 10
57.183
 20
21.579
 30
0
 41
1.524
 42
1.524
 43
0
 50
0
 70
    1
 71
    1
 44
0
 45
0
  0
INSERT
  5
195
100
AcDbEntity
  8
17
  6
ByLayer
 62
  256
370
   -1
100
AcDbBlockReference
  2
ROUNDP
 10
57.183
 20
24.119
 30
0
 41
1.524
 42
1.524
 43
0
 50
0
 70
    1
 71
    1
 44
0
 45
0
  0
INSERT
  5
196
100
AcDbEntity
  8
17
  6
ByLayer
 62
  256
370
   -1
100
AcDbBlockReference
  2
ROUNDP
 10
57.183
 20
24.119
 30
0
 41
1.524
 42
1.524
 43
0
 50
0
 70
    1
 71
    1
 44
0
 45
0
  0
INSERT
  5
197
100
AcDbEntity
  8
17
  6
ByLayer
 62
  256
370
   -1
100
AcDbBlockReference
  2
ROUNDP
 10
59.723
 20
21.579
 30
0
 41
1.524
 42
1.524
 43
0
 50
0
 70
    1
 71
    1
 44
0
 45
0
  0
INSERT
  5
198
100
AcDbEntity
  8
17
  6
ByLayer
 62
  256
370
   -1
100
AcDbBlockReference
  2
ROUNDP
 10
59.723
 20
21.579
 30
0
 41
1.524
 42
1.524
 43
0
 50
0
 70
    1
 71
    1
 44
0
 45
0
  0
INSERT
  5
199
100
AcDbEntity
  8
17
  6
ByLayer
 62
  256
370
   -1
100
AcDbBlockReference
  2
ROUNDP
 10
59.723
 20
24.119
 30
0
 41
1.524
 42
1.524
 43
0
 50
0
 70
    1
 71
    1
 44
0
 45
0
  0
INSERT
  5
19A
100
AcDbEntity
  8
17
  6
ByLayer
 62
  256
370
   -1
100
AcDbBlockReference
  2
ROUNDP
 10
59.723
 20
24.119
 30
0
 41
1.524
 42
1.524
 43
0
 50
0
 70
    1
 71
    1
 44
0
 45
0
  0
INSERT
  5
19B
100
AcDbEntity
  8
17
  6
ByLayer
 62
  256
370
   -1
100
AcDbBlockReference
  2
ROUNDP
 10
62.263
 20
21.579
 30
0
 41
1.524
 42
1.524
 43
0
 50
0
 70
    1
 71
    1
 44
0
 45
0
  0
INSERT
  5
19C
100
AcDbEntity
  8
17
  6
ByLayer
 62
  256
370
   -1
100
AcDbBlockReference
  2
ROUNDP
 10
62.263
 20
21.579
 30
0
 41
1.524
 42
1.524
 43
0
 50
0
 70
    1
 71
    1
 44
0
 45
0
  0
INSERT
  5
19D
100
AcDbEntity
  8
17
  6
ByLayer
 62
  256
370
   -1
100
AcDbBlockReference
  2
ROUNDP
 10
62.263
 20
24.119
 30
0
 41
1.524
 42
1.524
 43
0
 50
0
 70
    1
 71
    1
 44
0
 45
0
  0
INSERT
  5
19E
100
AcDbEntity
  8
17
  6
ByLayer
 62
  256
370
   -1
100
AcDbBlockReference
  2
ROUNDP
 10
62.263
 20
24.119
 30
0
 41
1.524
 42
1.524
 43
0
 50
0
 70
    1
 71
    1
 44
0
 45
0
  0
INSERT
  5
19F
100
AcDbEntity
  8
17
  6
ByLayer
 62
  256
370
   -1
100
AcDbBlockReference
  2
ROUNDP
 10
64.803
 20
21.579
 30
0
 41
1.524
 42
1.524
 43
0
 50
0
 70
    1
 71
    1
 44
0
 45
0
  0
INSERT
  5
1A0
100
AcDbEntity
  8
17
  6
ByLayer
 62
  256
370
   -1
100
AcDbBlockReference
  2
ROUNDP
 10
64.803
 20
21.579
 30
0
 41
1.524
 42
1.524
 43
0
 50
0
 70
    1
 71
    1
 44
0
 45
0
  0
INSERT
  5
1A1
100
AcDbEntity
  8
17
  6
ByLayer
 62
  256
370
   -1
100
AcDbBlockReference
  2
ROUNDP
 10
64.803
 20
24.119
 30
0
 41
1.524
 42
1.524
 43
0
 50
0
 70
    1
 71
    1
 44
0
 45
0
  0
INSERT
  5
1A2
100
AcDbEntity
  8
17
  6
ByLayer
 62
  256
370
   -1
100
AcDbBlockReference
  2
ROUNDP
 10
64.803
 20
24.119
 30
0
 41
1.524
 42
1.524
 43
0
 50
0
 70
    1
 71
    1
 44
0
 45
0
  0
INSERT
  5
1A3
100
AcDbEntity
  8
17
  6
ByLayer
 62
  256
370
   -1
100
AcDbBlockReference
  2
ROUNDP
 10
67.343
 20
21.579
 30
0
 41
1.524
 42
1.524
 43
0
 50
0
 70
    1
 71
    1
 44
0
 45
0
  0
INSERT
  5
1A4
100
AcDbEntity
  8
17
  6
ByLayer
 62
  256
370
   -1
100
AcDbBlockReference
  2
ROUNDP
 10
67.343
 20
21.579
 30
0
 41
1.524
 42
1.524
 43
0
 50
0
 70
    1
 71
    1
 44
0
 45
0
  0
INSERT
  5
1A5
100
AcDbEntity
  8
17
  6
ByLayer
 62
  256
370
   -1
100
AcDbBlockReference
  2
ROUNDP
 10
67.343
 20
24.119
 30
0
 41
1.524
 42
1.524
 43
0
 50
0
 70
    1
 71
    1
 44
0
 45
0
  0
INSERT
  5
1A6
100
AcDbEntity
  8
17
  6
ByLayer
 62
  256
370
   -1
100
AcDbBlockReference
  2
ROUNDP
 10
67.343
 20
24.119
 30
0
 41
1.524
 42
1.524
 43
0
 50
0
 70
    1
 71
    1
 44
0
 45
0
  0
LINE
  5
1A7
100
AcDbEntity
  8
16
  6
ByLayer
 62
  256
370
   -1
100
AcDbLine
 10
38.1
 20
7.62
 11
25.4
 21
7.62
  0
LINE
  5
1A8
100
AcDbEntity
  8
16
  6
ByLayer
 62
  256
370
   -1
100
AcDbLine
 10
25.4
 20
7.62
 11
20.32
 21
12.7
  0
LINE
  5
1A9
100
AcDbEntity
  8
16
  6
ByLayer
 62
  256
370
   -1
100
AcDbLine
 10
20.32
 20
12.7
 11
20.32
 21
15.24
  0
LINE
  5
1AA
100
AcDbEntity
  8
16
  6
ByLayer
 62
  256
370
   -1
100
AcDbLine
 10
20.32
 20
15.24
 11
20.32
 21
19.05
  0
LINE
  5
1AB
100
AcDbEntity
  8
16
  6
ByLayer
 62
  256
370
   -1
100
AcDbLine
 10
19.05
 20
21.546
 11
19.083
 21
21.579
  0
LINE
  5
1AC
100
AcDbEntity
  8
16
  6
ByLayer
 62
  256
370
   -1
100
AcDbLine
 10
39.403
 20
21.579
 11
39.403
 21
19.083
  0
LINE
  5
1AD
100
AcDbEntity
  8
16
  6
ByLayer
 62
  256
370
   -1
100
AcDbLine
 10
35.56
 20
15.24
 11
20.32
 21
15.24
  0
LINE
  5
1AE
100
AcDbEntity
  8
16
  6
ByLayer
 62
  256
370
   -1
100
AcDbLine
 10
20.32
 20
19.05
 11
19.05
 21
20.32
  0
LINE
  5
1AF
100
AcDbEntity
  8
16
  6
ByLayer
 62
  256
370
   -1
100
AcDbLine
 10
19.05
 20
20.32
 11
19.05
 21
21.546
  0
LINE
  5
1B0
100
AcDbEntity
  8
16
  6
ByLayer
 62
  256
370
   -1
100
AcDbLine
 10
39.403
 20
19.083
 11
35.56
 21
15.24
  0
LINE
  5
1B1
100
AcDbEntity
  8
16
  6
ByLayer
 62
  256
370
   -1
100
AcDbLine
 10
58.42
 20
7.62
 11
58.42
 21
5.08
  0
LINE
  5
1B2
100
AcDbEntity
  8
16
  6
ByLayer
 62
  256
370
   -1
100
AcDbLine
 10
40.64
 20
1.27
 11
38.1
 21
3.81
  0
LINE
  5
1B3
100
AcDbEntity
  8
16
  6
ByLayer
 62
  256
370
   -1
100
AcDbLine
 10
38.1
 20
3.81
 11
38.1
 21
7.62
  0
LINE
  5
1B4
100
AcDbEntity
  8
16
  6
ByLayer
 62
  256
370
   -1
100
AcDbLine
 10
58.42
 20
5.08
 11
54.61
 21
1.27
  0
LINE
  5
1B5
100
AcDbEntity
  8
16
  6
ByLayer
 62
  256
370
   -1
100
AcDbLine
 10
54.61
 20
1.27
 11
40.64
 21
1.27
  0
LINE
  5
1B6
100
AcDbEntity
  8
16
  6
ByLayer
 62
  256
370
   -1
100
AcDbLine
 10
40.64
 20
10.16
 11
38.1
 21
10.16
  0
LINE
  5
1B7
100
AcDbEntity
  8
16
  6
ByLayer
 62
  256
370
   -1
100
AcDbLine
 10
38.1
 20
10.16
 11
26.67
 21
10.16
  0
LINE
  5
1B8
100
AcDbEntity
  8
1
  6
ByLayer
 62
  256
370
   -1
100
AcDbLine
 10
26.67
 20
10.16
 11
19.05
 21
10.16
  0
LINE
  5
1B9
100
AcDbEntity
  8
16
  6
ByLayer
 62
  256
370
   -1
100
AcDbLine
 10
16.51
 20
12.7
 11
19.05
 21
10.16
  0
LINE
  5
1BA
100
AcDbEntity
  8
16
  6
ByLayer
 62
  256
370
   -1
100
AcDbLine
 10
21.623
 20
24.119
 11
19.083
 21
24.119
  0
LINE
  5
1BB
100
AcDbEntity
  8
16
  6
ByLayer
 62
  256
370
   -1
100
AcDbLine
 10
19.083
 20
24.119
 11
17.791
 21
24.119
  0
LINE
  5
1BC
100
AcDbEntity
  8
16
  6
ByLayer
 62
  256
370
   -1
100
AcDbLine
 10
17.791
 20
24.119
 11
17.78
 21
24.13
  0
LINE
  5
1BD
100
AcDbEntity
  8
16
  6
ByLayer
 62
  256
370
   -1
100
AcDbLine
 10
17.78
 20
24.13
 11
16.51
 21
22.86
  0
LINE
  5
1BE
100
AcDbEntity
  8
16
  6
ByLayer
 62
  256
370
   -1
100
AcDbLine
 10
16.51
 20
22.86
 11
16.51
 21
12.7
  0
INSERT
  5
1BF
100
AcDbEntity
  8
18
  6
ByLayer
 62
  256
370
   -1
100
AcDbBlockReference
  2
ROUNDV
 10
26.67
 20
10.16
 30
0
 41
0.7564
 42
0.7564
 43
0
 50
0
 70
    1
 71
    1
 44
0
 45
0
  0
INSERT
  5
1C0
100
AcDbEntity
  8
18
  6
ByLayer
 62
  256
370
   -1
100
AcDbBlockReference
  2
ROUNDV
 10
26.67
 20
10.16
 30
0
 41
0.7564
 42
0.7564
 43
0
 50
0
 70
    1
 71
    1
 44
0
 45
0
  0
INSERT
  5
1C1
100
AcDbEntity
  8
18
  6
ByLayer
 62
  256
370
   -1
100
AcDbBlockReference
  2
ROUNDV
 10
19.05
 20
10.16
 30
0
 41
0.7564
 42
0.7564
 43
0
 50
0
 70
    1
 71
    1
 44
0
 45
0
  0
INSERT
  5
1C2
100
AcDbEntity
  8
18
  6
ByLayer
 62
  256
370
   -1
100
AcDbBlockReference
  2
ROUNDV
 10
19.05
 20
10.16
 30
0
 41
0.7564
 42
0.7564
 43
0
 50
0
 70
    1
 71
    1
 44
0
 45
0
  0
LINE
  5
1C3
100
AcDbEntity
  8
1
  6
ByLayer
 62
  256
370
   -1
100
AcDbLine
 10
46.99
 20
30.48
 11
68.58
 21
30.48
  0
LINE
  5
1C4
100
AcDbEntity
  8
1
  6
ByLayer
 62
  256
370
   -1
100
AcDbLine
 10
68.58
 20
30.48
 11
71.12
 21
27.94
  0
LINE
  5
1C5
100
AcDbEntity
  8
16
  6
ByLayer
 62
  256
370
   -1
100
AcDbLine
 10
46.99
 20
30.48
 11
47.023
 21
30.447
  0
LINE
  5
1C6
100
AcDbEntity
  8
16
  6
ByLayer
 62
  256
370
   -1
100
AcDbLine
 10
47.023
 20
30.447
 11
47.023
 21
24.119
  0
LINE
  5
1C7
100
AcDbEntity
  8
16
  6
ByLayer
 62
  256
370
   -1
100
AcDbLine
 10
66.04000000000001
 20
14.351
 11
66.04000000000001
 21
10.16
  0
LINE
  5
1C8
100
AcDbEntity
  8
16
  6
ByLayer
 62
  256
370
   -1
100
AcDbLine
 10
71.12
 20
27.94
 11
71.12
 21
19.431
  0
LINE
  5
1C9
100
AcDbEntity
  8
16
  6
ByLayer
 62
  256
370
   -1
100
AcDbLine
 10
71.12
 20
19.431
 11
66.04000000000001
 21
14.351
  0
INSERT
  5
1CA
100
AcDbEntity
  8
18
  6
ByLayer
 62
  256
370
   -1
100
AcDbBlockReference
  2
ROUNDV
 10
71.12
 20
27.94
 30
0
 41
0.7564
 42
0.7564
 43
0
 50
0
 70
    1
 71
    1
 44
0
 45
0
  0
INSERT
  5
1CB
100
AcDbEntity
  8
18
  6
ByLayer
 62
  256
370
   -1
100
AcDbBlockReference
  2
ROUNDV
 10
71.12
 20
27.94
 30
0
 41
0.7564
 42
0.7564
 43
0
 50
0
 70
    1
 71
    1
 44
0
 45
0
  0
INSERT
  5
1CC
100
AcDbEntity
  8
18
  6
ByLayer
 62
  256
370
   -1
100
AcDbBlockReference
  2
ROUNDV
 10
46.99
 20
30.48
 30
0
 41
0.7564
 42
0.7564
 43
0
 50
0
 70
    1
 71
    1
 44
0
 45
0
  0
INSERT
  5
1CD
100
AcDbEntity
  8
18
  6
ByLayer
 62
  256
370
   -1
100
AcDbBlockReference
  2
ROUNDV
 10
46.99
 20
30.48
 30
0
 41
0.7564
 42
0.7564
 43
0
 50
0
 70
    1
 71
    1
 44
0
 45
0
  0
LINE
  5
1CE
100
AcDbEntity
  8
16
  6
ByLayer
 62
  256
370
   -1
100
AcDbLine
 10
73.66
 20
29.21
 11
72.39
 21
30.48
  0
LINE
  5
1CF
100
AcDbEntity
  8
16
  6
ByLayer
 62
  256
370
   -1
100
AcDbLine
 10
52.07
 20
30.48
 11
49.53
 21
27.94
  0
LINE
  5
1D0
100
AcDbEntity
  8
16
  6
ByLayer
 62
  256
370
   -1
100
AcDbLine
 10
49.53
 20
27.94
 11
49.53
 21
24.152
  0
LINE
  5
1D1
100
AcDbEntity
  8
16
  6
ByLayer
 62
  256
370
   -1
100
AcDbLine
 10
49.53
 20
24.152
 11
49.563
 21
24.119
  0
LINE
  5
1D2
100
AcDbEntity
  8
16
  6
ByLayer
 62
  256
370
   -1
100
AcDbLine
 10
72.39
 20
30.48
 11
52.07
 21
30.48
  0
LINE
  5
1D3
100
AcDbEntity
  8
16
  6
ByLayer
 62
  256
370
   -1
100
AcDbLine
 10
68.58
 20
13.97
 11
73.66
 21
19.05
  0
LINE
  5
1D4
100
AcDbEntity
  8
16
  6
ByLayer
 62
  256
370
   -1
100
AcDbLine
 10
68.58
 20
10.16
 11
68.58
 21
13.97
  0
LINE
  5
1D5
100
AcDbEntity
  8
16
  6
ByLayer
 62
  256
370
   -1
100
AcDbLine
 10
73.66
 20
19.05
 11
73.66
 21
29.21
  0
LINE
  5
1D6
100
AcDbEntity
  8
16
  6
ByLayer
 62
  256
370
   -1
100
AcDbLine
 10
43.18
 20
10.16
 11
43.18
 21
11.43
  0
LINE
  5
1D7
100
AcDbEntity
  8
16
  6
ByLayer
 62
  256
370
   -1
100
AcDbLine
 10
43.18
 20
11.43
 11
41.91
 21
12.7
  0
LINE
  5
1D8
100
AcDbEntity
  8
16
  6
ByLayer
 62
  256
370
   -1
100
AcDbLine
 10
41.91
 20
12.7
 11
29.21
 21
12.7
  0
LINE
  5
1D9
100
AcDbEntity
  8
16
  6
ByLayer
 62
  256
370
   -1
100
AcDbLine
 10
29.243
 20
21.579
 11
29.243
 21
17.813
  0
LINE
  5
1DA
100
AcDbEntity
  8
16
  6
ByLayer
 62
  256
370
   -1
100
AcDbLine
 10
29.243
 20
17.813
 11
29.21
 21
17.78
  0
LINE
  5
1DB
100
AcDbEntity
  8
1
  6
ByLayer
 62
  256
370
   -1
100
AcDbLine
 10
29.21
 20
17.78
 11
29.21
 21
12.7
  0
LINE
  5
1DC
100
AcDbEntity
  8
16
  6
ByLayer
 62
  256
370
   -1
100
AcDbLine
 10
48.26
 20
7.62
 11
48.26
 21
2.794
  0
LINE
  5
1DD
100
AcDbEntity
  8
1
  6
ByLayer
 62
  256
370
   -1
100
AcDbLine
 10
48.26
 20
2.794
 11
32.766
 21
2.794
  0
LINE
  5
1DE
100
AcDbEntity
  8
1
  6
ByLayer
 62
  256
370
   -1
100
AcDbLine
 10
32.766
 20
2.794
 11
29.21
 21
6.35
  0
LINE
  5
1DF
100
AcDbEntity
  8
1
  6
ByLayer
 62
  256
370
   -1
100
AcDbLine
 10
29.21
 20
6.35
 11
29.21
 21
12.7
  0
LINE
  5
1E0
100
AcDbEntity
  8
1
  6
ByLayer
 62
  256
370
   -1
100
AcDbLine
 10
29.21
 20
17.78
 11
17.78
 21
17.78
  0
LINE
  5
1E1
100
AcDbEntity
  8
1
  6
ByLayer
 62
  256
370
   -1
100
AcDbLine
 10
17.78
 20
17.78
 11
16.51
 21
19.05
  0
LINE
  5
1E2
100
AcDbEntity
  8
1
  6
ByLayer
 62
  256
370
   -1
100
AcDbLine
 10
16.51
 20
26.67
 11
17.78
 21
27.94
  0
LINE
  5
1E3
100
AcDbEntity
  8
1
  6
ByLayer
 62
  256
370
   -1
100
AcDbLine
 10
17.78
 20
27.94
 11
24.13
 21
27.94
  0
LINE
  5
1E4
100
AcDbEntity
  8
16
  6
ByLayer
 62
  256
370
   -1
100
AcDbLine
 10
24.13
 20
27.94
 11
24.163
 21
27.907
  0
LINE
  5
1E5
100
AcDbEntity
  8
16
  6
ByLayer
 62
  256
370
   -1
100
AcDbLine
 10
24.163
 20
27.907
 11
24.163
 21
24.119
  0
LINE
  5
1E6
100
AcDbEntity
  8
1
  6
ByLayer
 62
  256
370
   -1
100
AcDbLine
 10
16.51
 20
19.05
 11
16.51
 21
26.67
  0
LINE
  5
1E7
100
AcDbEntity
  8
16
  6
ByLayer
 62
  256
370
   -1
100
AcDbLine
 10
41.943
 20
24.119
 11
41.91
 21
24.152
  0
LINE
  5
1E8
100
AcDbEntity
  8
16
  6
ByLayer
 62
  256
370
   -1
100
AcDbLine
 10
41.91
 20
24.152
 11
41.91
 21
26.67
  0
LINE
  5
1E9
100
AcDbEntity
  8
16
  6
ByLayer
 62
  256
370
   -1
100
AcDbLine
 10
41.91
 20
26.67
 11
40.64
 21
27.94
  0
LINE
  5
1EA
100
AcDbEntity
  8
16
  6
ByLayer
 62
  256
370
   -1
100
AcDbLine
 10
40.64
 20
27.94
 11
35.56
 21
27.94
  0
LINE
  5
1EB
100
AcDbEntity
  8
16
  6
ByLayer
 62
  256
370
   -1
100
AcDbLine
 10
35.56
 20
27.94
 11
34.29
 21
26.67
  0
LINE
  5
1EC
100
AcDbEntity
  8
16
  6
ByLayer
 62
  256
370
   -1
100
AcDbLine
 10
34.29
 20
26.67
 11
34.29
 21
24.152
  0
LINE
  5
1ED
100
AcDbEntity
  8
16
  6
ByLayer
 62
  256
370
   -1
100
AcDbLine
 10
34.29
 20
24.152
 11
34.323
 21
24.119
  0
LINE
  5
1EE
100
AcDbEntity
  8
16
  6
ByLayer
 62
  256
370
   -1
100
AcDbLine
 10
33.042
 20
27.94
 11
34.323
 21
26.659
  0
LINE
  5
1EF
100
AcDbEntity
  8
16
  6
ByLayer
 62
  256
370
   -1
100
AcDbLine
 10
34.323
 20
24.119
 11
34.323
 21
26.659
  0
LINE
  5
1F0
100
AcDbEntity
  8
16
  6
ByLayer
 62
  256
370
   -1
100
AcDbLine
 10
33.042
 20
27.94
 11
24.13
 21
27.94
  0
LINE
  5
1F1
100
AcDbEntity
  8
16
  6
ByLayer
 62
  256
370
   -1
100
AcDbLine
 10
60.96
 20
10.16
 11
60.96
 21
12.7
  0
LINE
  5
1F2
100
AcDbEntity
  8
16
  6
ByLayer
 62
  256
370
   -1
100
AcDbLine
 10
60.96
 20
12.7
 11
62.23
 21
13.97
  0
LINE
  5
1F3
100
AcDbEntity
  8
16
  6
ByLayer
 62
  256
370
   -1
100
AcDbLine
 10
62.23
 20
13.97
 11
62.23
 21
16.51
  0
LINE
  5
1F4
100
AcDbEntity
  8
16
  6
ByLayer
 62
  256
370
   -1
100
AcDbLine
 10
62.23
 20
16.51
 11
63.5
 21
17.78
  0
LINE
  5
1F5
100
AcDbEntity
  8
16
  6
ByLayer
 62
  256
370
   -1
100
AcDbLine
 10
63.5
 20
17.78
 11
66.04000000000001
 21
17.78
  0
LINE
  5
1F6
100
AcDbEntity
  8
16
  6
ByLayer
 62
  256
370
   -1
100
AcDbLine
 10
67.343
 20
19.083
 11
67.343
 21
21.579
  0
LINE
  5
1F7
100
AcDbEntity
  8
16
  6
ByLayer
 62
  256
370
   -1
100
AcDbLine
 10
66.04000000000001
 20
17.78
 11
67.343
 21
19.083
  0
INSERT
  5
1F8
100
AcDbEntity
  8
18
  6
ByLayer
 62
  256
370
   -1
100
AcDbBlockReference
  2
ROUNDV
 10
29.21
 20
12.7
 30
0
 41
0.7564
 42
0.7564
 43
0
 50
0
 70
    1
 71
    1
 44
0
 45
0
  0
INSERT
  5
1F9
100
AcDbEntity
  8
18
  6
ByLayer
 62
  256
370
   -1
100
AcDbBlockReference
  2
ROUNDV
 10
29.21
 20
12.7
 30
0
 41
0.7564
 42
0.7564
 43
0
 50
0
 70
    1
 71
    1
 44
0
 45
0
  0
INSERT
  5
1FA
100
AcDbEntity
  8
18
  6
ByLayer
 62
  256
370
   -1
100
AcDbBlockReference
  2
ROUNDV
 10
29.21
 20
17.78
 30
0
 41
0.7564
 42
0.7564
 43
0
 50
0
 70
    1
 71
    1
 44
0
 45
0
  0
INSERT
  5
1FB
100
AcDbEntity
  8
18
  6
ByLayer
 62
  256
370
   -1
100
AcDbBlockReference
  2
ROUNDV
 10
29.21
 20
17.78
 30
0
 41
0.7564
 42
0.7564
 43
0
 50
0
 70
    1
 71
    1
 44
0
 45
0
  0
INSERT
  5
1FC
100
AcDbEntity
  8
18
  6
ByLayer
 62
  256
370
   -1
100
AcDbBlockReference
  2
ROUNDV
 10
48.26
 20
2.794
 30
0
 41
0.7564
 42
0.7564
 43
0
 50
0
 70
    1
 71
    1
 44
0
 45
0
  0
INSERT
  5
1FD
100
AcDbEntity
  8
18
  6
ByLayer
 62
  256
370
   -1
100
AcDbBlockReference
  2
ROUNDV
 10
48.26
 20
2.794
 30
0
 41
0.7564
 42
0.7564
 43
0
 50
0
 70
    1
 71
    1
 44
0
 45
0
  0
INSERT
  5
1FE
100
AcDbEntity
  8
18
  6
ByLayer
 62
  256
370
   -1
100
AcDbBlockReference
  2
ROUNDV
 10
24.13
 20
27.94
 30
0
 41
0.7564
 42
0.7564
 43
0
 50
0
 70
    1
 71
    1
 44
0
 45
0
  0
INSERT
  5
1FF
100
AcDbEntity
  8
18
  6
ByLayer
 62
  256
370
   -1
100
AcDbBlockReference
  2
ROUNDV
 10
24.13
 20
27.94
 30
0
 41
0.7564
 42
0.7564
 43
0
 50
0
 70
    1
 71
    1
 44
0
 45
0
  0
LINE
  5
200
100
AcDbEntity
  8
16
  6
ByLayer
 62
  256
370
   -1
100
AcDbLine
 10
66.04000000000001
 20
7.62
 11
66.04000000000001
 21
6.35
  0
LINE
  5
201
100
AcDbEntity
  8
16
  6
ByLayer
 62
  256
370
   -1
100
AcDbLine
 10
66.04000000000001
 20
6.35
 11
67.31
 21
5.08
  0
LINE
  5
202
100
AcDbEntity
  8
16
  6
ByLayer
 62
  256
370
   -1
100
AcDbLine
 10
67.31
 20
5.08
 11
69.84999999999999
 21
5.08
  0
LINE
  5
203
100
AcDbEntity
  8
16
  6
ByLayer
 62
  256
370
   -1
100
AcDbLine
 10
69.84999999999999
 20
5.08
 11
71.12
 21
6.35
  0
LINE
  5
204
100
AcDbEntity
  8
16
  6
ByLayer
 62
  256
370
   -1
100
AcDbLine
 10
71.12
 20
6.35
 11
71.12
 21
12.7
  0
LINE
  5
205
100
AcDbEntity
  8
16
  6
ByLayer
 62
  256
370
   -1
100
AcDbLine
 10
47.023
 20
21.557
 11
47.023
 21
21.579
  0
LINE
  5
206
100
AcDbEntity
  8
16
  6
ByLayer
 62
  256
370
   -1
100
AcDbLine
 10
47.023
 20
21.579
 11
47.023
 21
20.353
  0
LINE
  5
207
100
AcDbEntity
  8
16
  6
ByLayer
 62
  256
370
   -1
100
AcDbLine
 10
44.45
 20
17.78
 11
44.45
 21
15.24
  0
LINE
  5
208
100
AcDbEntity
  8
1
  6
ByLayer
 62
  256
370
   -1
100
AcDbLine
 10
44.45
 20
15.24
 11
44.45
 21
13.97
  0
LINE
  5
209
100
AcDbEntity
  8
1
  6
ByLayer
 62
  256
370
   -1
100
AcDbLine
 10
44.45
 20
13.97
 11
46.228
 21
12.192
  0
LINE
  5
20A
100
AcDbEntity
  8
1
  6
ByLayer
 62
  256
370
   -1
100
AcDbLine
 10
54.102
 20
12.192
 11
46.228
 21
12.192
  0
LINE
  5
20B
100
AcDbEntity
  8
16
  6
ByLayer
 62
  256
370
   -1
100
AcDbLine
 10
47.023
 20
20.353
 11
44.45
 21
17.78
  0
LINE
  5
20C
100
AcDbEntity
  8
1
  6
ByLayer
 62
  256
370
   -1
100
AcDbLine
 10
54.61
 20
12.7
 11
54.102
 21
12.192
  0
LINE
  5
20D
100
AcDbEntity
  8
1
  6
ByLayer
 62
  256
370
   -1
100
AcDbLine
 10
71.12
 20
12.7
 11
54.61
 21
12.7
  0
INSERT
  5
20E
100
AcDbEntity
  8
18
  6
ByLayer
 62
  256
370
   -1
100
AcDbBlockReference
  2
ROUNDV
 10
71.12
 20
12.7
 30
0
 41
0.7564
 42
0.7564
 43
0
 50
0
 70
    1
 71
    1
 44
0
 45
0
  0
INSERT
  5
20F
100
AcDbEntity
  8
18
  6
ByLayer
 62
  256
370
   -1
100
AcDbBlockReference
  2
ROUNDV
 10
71.12
 20
12.7
 30
0
 41
0.7564
 42
0.7564
 43
0
 50
0
 70
    1
 71
    1
 44
0
 45
0
  0
INSERT
  5
210
100
AcDbEntity
  8
18
  6
ByLayer
 62
  256
370
   -1
100
AcDbBlockReference
  2
ROUNDV
 10
44.45
 20
15.24
 30
0
 41
0.7564
 42
0.7564
 43
0
 50
0
 70
    1
 71
    1
 44
0
 45
0
  0
INSERT
  5
211
100
AcDbEntity
  8
18
  6
ByLayer
 62
  256
370
   -1
100
AcDbBlockReference
  2
ROUNDV
 10
44.45
 20
15.24
 30
0
 41
0.7564
 42
0.7564
 43
0
 50
0
 70
    1
 71
    1
 44
0
 45
0
  0
LINE
  5
212
100
AcDbEntity
  8
16
  6
ByLayer
 62
  256
370
   -1
100
AcDbLine
 10
41.943
 20
21.579
 11
41.943
 21
17.813
  0
LINE
  5
213
100
AcDbEntity
  8
16
  6
ByLayer
 62
  256
370
   -1
100
AcDbLine
 10
41.943
 20
17.813
 11
39.37
 21
15.24
  0
LINE
  5
214
100
AcDbEntity
  8
16
  6
ByLayer
 62
  256
370
   -1
100
AcDbLine
 10
60.96
 20
7.62
 11
60.96
 21
3.81
  0
LINE
  5
215
100
AcDbEntity
  8
1
  6
ByLayer
 62
  256
370
   -1
100
AcDbLine
 10
36.83
 20
5.08
 11
35.56
 21
6.35
  0
LINE
  5
216
100
AcDbEntity
  8
1
  6
ByLayer
 62
  256
370
   -1
100
AcDbLine
 10
35.56
 20
6.35
 11
35.56
 21
11.43
  0
LINE
  5
217
100
AcDbEntity
  8
1
  6
ByLayer
 62
  256
370
   -1
100
AcDbLine
 10
35.56
 20
11.43
 11
39.37
 21
15.24
  0
LINE
  5
218
100
AcDbEntity
  8
1
  6
ByLayer
 62
  256
370
   -1
100
AcDbLine
 10
60.96
 20
3.81
 11
59.69
 21
5.08
  0
LINE
  5
219
100
AcDbEntity
  8
1
  6
ByLayer
 62
  256
370
   -1
100
AcDbLine
 10
36.83
 20
5.08
 11
59.69
 21
5.08
  0
INSERT
  5
21A
100
AcDbEntity
  8
18
  6
ByLayer
 62
  256
370
   -1
100
AcDbBlockReference
  2
ROUNDV
 10
39.37
 20
15.24
 30
0
 41
0.7564
 42
0.7564
 43
0
 50
0
 70
    1
 71
    1
 44
0
 45
0
  0
INSERT
  5
21B
100
AcDbEntity
  8
18
  6
ByLayer
 62
  256
370
   -1
100
AcDbBlockReference
  2
ROUNDV
 10
39.37
 20
15.24
 30
0
 41
0.7564
 42
0.7564
 43
0
 50
0
 70
    1
 71
    1
 44
0
 45
0
  0
INSERT
  5
21C
100
AcDbEntity
  8
18
  6
ByLayer
 62
  256
370
   -1
100
AcDbBlockReference
  2
ROUNDV
 10
60.96
 20
3.81
 30
0
 41
0.7564
 42
0.7564
 43
0
 50
0
 70
    1
 71
    1
 44
0
 45
0
  0
INSERT
  5
21D
100
AcDbEntity
  8
18
  6
ByLayer
 62
  256
370
   -1
100
AcDbBlockReference
  2
ROUNDV
 10
60.96
 20
3.81
 30
0
 41
0.7564
 42
0.7564
 43
0
 50
0
 70
    1
 71
    1
 44
0
 45
0
  0
LINE
  5
21E
100
AcDbEntity
  8
16
  6
ByLayer
 62
  256
370
   -1
100
AcDbLine
 10
63.5
 20
7.62
 11
63.5
 21
6.35
  0
LINE
  5
21F
100
AcDbEntity
  8
16
  6
ByLayer
 62
  256
370
   -1
100
AcDbLine
 10
63.5
 20
6.35
 11
66.04000000000001
 21
3.81
  0
LINE
  5
220
100
AcDbEntity
  8
16
  6
ByLayer
 62
  256
370
   -1
100
AcDbLine
 10
66.04000000000001
 20
3.81
 11
69.84999999999999
 21
3.81
  0
LINE
  5
221
100
AcDbEntity
  8
16
  6
ByLayer
 62
  256
370
   -1
100
AcDbLine
 10
69.84999999999999
 20
3.81
 11
73.66
 21
7.62
  0
LINE
  5
222
100
AcDbEntity
  8
16
  6
ByLayer
 62
  256
370
   -1
100
AcDbLine
 10
73.66
 20
7.62
 11
73.66
 21
15.24
  0
LINE
  5
223
100
AcDbEntity
  8
1
  6
ByLayer
 62
  256
370
   -1
100
AcDbLine
 10
73.66
 20
15.24
 11
58.42
 21
15.24
  0
LINE
  5
224
100
AcDbEntity
  8
16
  6
ByLayer
 62
  256
370
   -1
100
AcDbLine
 10
44.483
 20
19.083
 11
41.91
 21
16.51
  0
LINE
  5
225
100
AcDbEntity
  8
16
  6
ByLayer
 62
  256
370
   -1
100
AcDbLine
 10
44.483
 20
19.083
 11
44.483
 21
21.579
  0
LINE
  5
226
100
AcDbEntity
  8
16
  6
ByLayer
 62
  256
370
   -1
100
AcDbLine
 10
55.88
 20
15.24
 11
58.42
 21
15.24
  0
LINE
  5
227
100
AcDbEntity
  8
16
  6
ByLayer
 62
  256
370
   -1
100
AcDbLine
 10
43.434
 20
12.446
 11
53.086
 21
12.446
  0
LINE
  5
228
100
AcDbEntity
  8
16
  6
ByLayer
 62
  256
370
   -1
100
AcDbLine
 10
53.086
 20
12.446
 11
55.88
 21
15.24
  0
LINE
  5
229
100
AcDbEntity
  8
16
  6
ByLayer
 62
  256
370
   -1
100
AcDbLine
 10
41.91
 20
16.51
 11
41.91
 21
13.97
  0
LINE
  5
22A
100
AcDbEntity
  8
16
  6
ByLayer
 62
  256
370
   -1
100
AcDbLine
 10
41.91
 20
13.97
 11
43.434
 21
12.446
  0
INSERT
  5
22B
100
AcDbEntity
  8
18
  6
ByLayer
 62
  256
370
   -1
100
AcDbBlockReference
  2
ROUNDV
 10
73.66
 20
15.24
 30
0
 41
0.7564
 42
0.7564
 43
0
 50
0
 70
    1
 71
    1
 44
0
 45
0
  0
INSERT
  5
22C
100
AcDbEntity
  8
18
  6
ByLayer
 62
  256
370
   -1
100
AcDbBlockReference
  2
ROUNDV
 10
73.66
 20
15.24
 30
0
 41
0.7564
 42
0.7564
 43
0
 50
0
 70
    1
 71
    1
 44
0
 45
0
  0
INSERT
  5
22D
100
AcDbEntity
  8
18
  6
ByLayer
 62
  256
370
   -1
100
AcDbBlockReference
  2
ROUNDV
 10
58.42
 20
15.24
 30
0
 41
0.7564
 42
0.7564
 43
0
 50
0
 70
    1
 71
    1
 44
0
 45
0
  0
INSERT
  5
22E
100
AcDbEntity
  8
18
  6
ByLayer
 62
  256
370
   -1
100
AcDbBlockReference
  2
ROUNDV
 10
58.42
 20
15.24
 30
0
 41
0.7564
 42
0.7564
 43
0
 50
0
 70
    1
 71
    1
 44
0
 45
0
  0
LINE
  5
22F
100
AcDbEntity
  8
16
  6
ByLayer
 62
  256
370
   -1
100
AcDbLine
 10
67.31
 20
27.94
 11
69.84999999999999
 21
25.4
  0
LINE
  5
230
100
AcDbEntity
  8
16
  6
ByLayer
 62
  256
370
   -1
100
AcDbLine
 10
67.31
 20
27.94
 11
55.88
 21
27.94
  0
LINE
  5
231
100
AcDbEntity
  8
1
  6
ByLayer
 62
  256
370
   -1
100
AcDbLine
 10
55.88
 20
27.94
 11
44.45
 21
27.94
  0
LINE
  5
232
100
AcDbEntity
  8
16
  6
ByLayer
 62
  256
370
   -1
100
AcDbLine
 10
44.45
 20
27.94
 11
44.483
 21
27.907
  0
LINE
  5
233
100
AcDbEntity
  8
16
  6
ByLayer
 62
  256
370
   -1
100
AcDbLine
 10
44.483
 20
27.907
 11
44.483
 21
24.119
  0
LINE
  5
234
100
AcDbEntity
  8
16
  6
ByLayer
 62
  256
370
   -1
100
AcDbLine
 10
64.74460000000001
 20
14.8786
 11
69.84999999999999
 21
19.984
  0
LINE
  5
235
100
AcDbEntity
  8
16
  6
ByLayer
 62
  256
370
   -1
100
AcDbLine
 10
69.84999999999999
 20
25.4
 11
69.84999999999999
 21
19.984
  0
LINE
  5
236
100
AcDbEntity
  8
16
  6
ByLayer
 62
  256
370
   -1
100
AcDbLine
 10
63.5
 20
10.16
 11
63.5
 21
11.43
  0
LINE
  5
237
100
AcDbEntity
  8
16
  6
ByLayer
 62
  256
370
   -1
100
AcDbLine
 10
63.5
 20
11.43
 11
64.77
 21
12.7
  0
LINE
  5
238
100
AcDbEntity
  8
16
  6
ByLayer
 62
  256
370
   -1
100
AcDbLine
 10
64.77
 20
12.7
 11
64.77
 21
14.8532
  0
LINE
  5
239
100
AcDbEntity
  8
16
  6
ByLayer
 62
  256
370
   -1
100
AcDbLine
 10
64.77
 20
14.8532
 11
64.74460000000001
 21
14.8786
  0
INSERT
  5
23A
100
AcDbEntity
  8
18
  6
ByLayer
 62
  256
370
   -1
100
AcDbBlockReference
  2
ROUNDV
 10
55.88
 20
27.94
 30
0
 41
0.7564
 42
0.7564
 43
0
 50
0
 70
    1
 71
    1
 44
0
 45
0
  0
INSERT
  5
23B
100
AcDbEntity
  8
18
  6
ByLayer
 62
  256
370
   -1
100
AcDbBlockReference
  2
ROUNDV
 10
55.88
 20
27.94
 30
0
 41
0.7564
 42
0.7564
 43
0
 50
0
 70
    1
 71
    1
 44
0
 45
0
  0
INSERT
  5
23C
100
AcDbEntity
  8
18
  6
ByLayer
 62
  256
370
   -1
100
AcDbBlockReference
  2
ROUNDV
 10
44.45
 20
27.94
 30
0
 41
0.7564
 42
0.7564
 43
0
 50
0
 70
    1
 71
    1
 44
0
 45
0
  0
INSERT
  5
23D
100
AcDbEntity
  8
18
  6
ByLayer
 62
  256
370
   -1
100
AcDbBlockReference
  2
ROUNDV
 10
44.45
 20
27.94
 30
0
 41
0.7564
 42
0.7564
 43
0
 50
0
 70
    1
 71
    1
 44
0
 45
0
  0
ENDSEC
  0
SECTION
  2
OBJECTS
  0
DICTIONARY
  5
C
330
0
100
AcDbDictionary
281
    1
  3
ACAD_GROUP
350
D
  0
DICTIONARY
  5
D
330
C
100
AcDbDictionary
281
    1
  0
ENDSEC
  0
EOF
